<svg width="47" height="47" viewBox="0 0 47 47" fill="none" xmlns="http://www.w3.org/2000/svg">
<path d="M41.4227 32.5471C48.8583 25.1114 48.8581 13.0125 41.4227 5.57679C33.987 -1.85893 21.8883 -1.85893 14.4527 5.57679C8.1445 11.885 7.18912 21.2669 11.584 28.5931C11.584 28.5931 11.8997 29.1227 11.4733 29.5488C9.04098 31.981 1.74349 39.2786 1.74349 39.2786C-0.193147 41.2151 -0.654179 43.923 1.06322 45.6407L1.35892 45.9361C3.07632 47.6538 5.78438 47.1929 7.72086 45.2563C7.72086 45.2563 15.0029 37.9741 17.4303 35.5469C17.8771 35.1001 18.4065 35.4158 18.4065 35.4158C25.7326 39.8105 35.1145 38.8553 41.4227 32.5471ZM17.9735 29.0261C12.4793 23.5319 12.4794 14.5923 17.9736 9.09804C23.4679 3.60396 32.4075 3.60381 37.9016 9.09804C43.3958 14.5921 43.3958 23.5319 37.9016 29.0261C32.4074 34.5201 23.4679 34.5201 17.9735 29.0261Z" fill="#D6D6D6"/>
</svg>
