<svg width="30" height="30" viewBox="0 0 30 30" fill="none" xmlns="http://www.w3.org/2000/svg">
<path d="M25.6676 8.03572H4.33236C3.66599 8.03572 3.18603 7.39624 3.37217 6.75639L3.88126 5.00638C4.00548 4.57938 4.39675 4.28571 4.84145 4.28571H25.1585C25.6032 4.28571 25.9945 4.57938 26.1187 5.00638L26.6278 6.75639C26.814 7.39624 26.334 8.03572 25.6676 8.03572Z" fill="#B7B7B7"/>
<path d="M11.8905 2.67857H11.5779C10.8678 2.67857 10.3839 1.95907 10.6518 1.30138L10.9282 0.62281C11.0815 0.24622 11.4477 0 11.8543 0H18.1457C18.5523 0 18.9185 0.24622 19.0718 0.62281L19.3482 1.30138C19.6161 1.95907 19.1322 2.67857 18.4221 2.67857H18.1095C17.8645 2.67857 17.6293 2.58239 17.4545 2.41071C17.2798 2.23904 17.0445 2.14286 16.7996 2.14286H13.2004C12.9555 2.14286 12.7202 2.23904 12.5455 2.41071C12.3707 2.58239 12.1355 2.67857 11.8905 2.67857Z" fill="#B7B7B7"/>
<path fill-rule="evenodd" clip-rule="evenodd" d="M6.81087 9.64285H23.1891C23.773 9.64285 24.2327 10.141 24.1859 10.723L22.7103 29.0801C22.6685 29.5997 22.2347 30 21.7135 30H8.28647C7.76525 30 7.33145 29.5997 7.28968 29.0801L5.81409 10.723C5.7673 10.141 6.227 9.64285 6.81087 9.64285ZM9.50675 11.7857C8.9345 11.7857 8.47895 12.265 8.50804 12.8366L9.22441 26.908C9.25148 27.4398 9.69059 27.8571 10.2231 27.8571H10.6751C11.2473 27.8571 11.7029 27.3778 11.6738 26.8063L10.9574 12.7349C10.9303 12.203 10.4912 11.7857 9.95871 11.7857H9.50675ZM21.4919 12.8366C21.521 12.265 21.0655 11.7857 20.4932 11.7857H20.0413C19.5088 11.7857 19.0697 12.203 19.0426 12.7349L18.3262 26.8063C18.2971 27.3778 18.7527 27.8571 19.3249 27.8571H19.7769C20.3094 27.8571 20.7485 27.4398 20.7756 26.908L21.4919 12.8366ZM14.9091 11.7857C14.3568 11.7857 13.9091 12.2334 13.9091 12.7857V26.8571C13.9091 27.4094 14.3568 27.8571 14.9091 27.8571H15.0909C15.6432 27.8571 16.0909 27.4094 16.0909 26.8571V12.7857C16.0909 12.2334 15.6432 11.7857 15.0909 11.7857H14.9091Z" fill="#B7B7B7"/>
</svg>
