<svg width="39" height="39" viewBox="0 0 39 39" fill="none" xmlns="http://www.w3.org/2000/svg">
<path d="M19.4998 36.3589L23.0801 35.5326L20.3259 32.7786L19.4998 36.3589Z" fill="#96A7BA"/>
<path d="M18.7933 34.0003L19.3857 31.4333C19.3871 31.427 19.3893 31.4211 19.3909 31.4149C19.3938 31.4043 19.3966 31.3937 19.3999 31.3833C19.4033 31.3728 19.4066 31.3641 19.4102 31.3546C19.4138 31.3452 19.4169 31.3368 19.4207 31.328C19.4252 31.3176 19.4302 31.3075 19.4352 31.2976C19.4389 31.29 19.4428 31.2827 19.4467 31.2755C19.4526 31.2648 19.4588 31.2546 19.4652 31.2444C19.4693 31.2379 19.4734 31.2315 19.4778 31.2252C19.4848 31.215 19.4922 31.2052 19.4998 31.1955C19.5044 31.1895 19.5091 31.1835 19.514 31.1778C19.5216 31.1684 19.5302 31.1594 19.5386 31.1506C19.542 31.147 19.545 31.1429 19.5485 31.1396L27.5317 23.1562C25.3031 18.5722 21.1819 15.8438 16.4531 15.8438C12.9857 15.8438 9.78217 17.328 7.4328 20.0229C5.06675 22.7372 3.73351 26.5204 3.65955 30.7091C5.05837 31.4146 10.8021 34.125 16.4531 34.125C17.2348 34.1238 18.0159 34.0821 18.7933 34.0003Z" fill="#F5FAFF"/>
<path d="M20.8362 31.5698L30.3144 22.0916L33.761 25.5382L24.2828 35.0165L20.8362 31.5698Z" fill="#96A7BA"/>
<path d="M16.4531 14.625C19.8186 14.625 22.5469 11.8967 22.5469 8.53125C22.5469 5.16576 19.8186 2.4375 16.4531 2.4375C13.0876 2.4375 10.3594 5.16576 10.3594 8.53125C10.3594 11.8967 13.0876 14.625 16.4531 14.625Z" fill="#F5FAFF"/>
<path d="M35.3437 22.9523C35.3437 22.4703 35.2007 21.9991 34.9328 21.5983C34.665 21.1975 34.2843 20.8851 33.8389 20.7006C33.3935 20.5162 32.9034 20.4679 32.4306 20.562C31.9578 20.656 31.5236 20.8882 31.1827 21.229L34.6298 24.6761C34.8569 24.4503 35.0369 24.1817 35.1595 23.8858C35.282 23.5899 35.3446 23.2726 35.3437 22.9523Z" fill="#96A7BA"/>
</svg>
