<svg width="26" height="28" viewBox="0 0 26 28" fill="none" xmlns="http://www.w3.org/2000/svg">
<path d="M9.24327 13.8205C9.68323 14.4572 9.55171 13.9267 9.55171 26.6172C9.55171 27.7529 10.8474 28.4028 11.7605 27.7236C15.6627 24.7815 16.4423 24.5267 16.4423 23.1506C16.4423 13.9028 16.3345 14.4228 16.7507 13.8205L23.0873 5.19531H2.90674L9.24327 13.8205Z" fill="#C53838"/>
<path d="M25.4809 0.703281C25.2545 0.269609 24.8105 0 24.3216 0H1.67245C0.616703 0 -0.00449213 1.19093 0.601117 2.05625C0.606094 2.06456 0.532375 1.96366 1.70143 3.55469H24.2926C25.2888 2.19882 25.9547 1.61301 25.4809 0.703281Z" fill="#A31010"/>
</svg>
