<svg id="Layer_1" data-name="Layer 1" xmlns="http://www.w3.org/2000/svg" viewBox="0 0 64 64"><defs><style>.cls-1{fill:none;}.cls-2{fill:#fbc43b;}</style></defs><title>ico_favorite_selected</title><rect class="cls-1" width="64" height="64"/><path class="cls-2" d="M35.22,5.87,40,20.51a3.06,3.06,0,0,0,2.92,2.12H58.29A3.08,3.08,0,0,1,60.1,28.2l-12.45,9a3.09,3.09,0,0,0-1.12,3.44l4.76,14.64a3.07,3.07,0,0,1-4.73,3.44l-12.46-9a3.08,3.08,0,0,0-3.61,0L18,58.76a3.07,3.07,0,0,1-4.73-3.44l4.76-14.64a3.09,3.09,0,0,0-1.12-3.44l-12.45-9a3.08,3.08,0,0,1,1.8-5.57h15.4a3.06,3.06,0,0,0,2.92-2.12L29.37,5.87A3.08,3.08,0,0,1,35.22,5.87Z"/></svg>