<svg width="25" height="28" viewBox="0 0 25 28" fill="none" xmlns="http://www.w3.org/2000/svg">
<path d="M15.5992 23.971H1.46359C1.27139 23.971 1.08107 23.9333 0.903496 23.8601C0.725924 23.787 0.56458 23.6797 0.428674 23.5446C0.292768 23.4094 0.184961 23.2489 0.111409 23.0723C0.0378566 22.8956 0 22.7063 0 22.5151V1.45448C0.00036323 1.0686 0.154722 0.698655 0.429159 0.425924C0.703595 0.153196 1.07566 -1.69152e-07 1.46359 0H19.572C19.9602 0.000180612 20.3323 0.153621 20.6067 0.426607C20.8812 0.699589 21.0355 1.06979 21.0356 1.45584V18.8592L15.5992 23.971Z" fill="#C1C1C1"/>
<path d="M19.285 27.637H5.14863C4.95644 27.637 4.7661 27.5993 4.58852 27.5262C4.41098 27.453 4.24962 27.3458 4.11371 27.2106C3.9778 27.0754 3.87 26.9149 3.79644 26.7383C3.7229 26.5617 3.68504 26.3724 3.68504 26.1812V5.12051C3.68504 4.92934 3.7229 4.74003 3.79644 4.56338C3.87 4.38676 3.9778 4.22629 4.11371 4.09109C4.24962 3.95589 4.41098 3.84865 4.58852 3.77549C4.7661 3.70232 4.95644 3.66469 5.14863 3.66469H23.2571C23.6453 3.66469 24.0175 3.81807 24.292 4.09109C24.5665 4.36411 24.7207 4.7344 24.7207 5.12051V22.5252L19.285 27.637Z" fill="#E2E2E2"/>
<path d="M19.285 27.637L24.7206 22.5252H20.5409C20.2071 22.5252 19.8869 22.6571 19.6509 22.8919C19.4148 23.1267 19.2822 23.4452 19.2822 23.7773L19.285 27.637Z" fill="#B7B7B7"/>
<path d="M20.693 10.4866H8.10591C7.86966 10.4866 7.6431 10.3932 7.47602 10.2271C7.30897 10.0609 7.21515 9.83553 7.21515 9.60055C7.21515 9.36553 7.30897 9.14019 7.47602 8.974C7.6431 8.80786 7.86966 8.71448 8.10591 8.71448H20.693C20.9293 8.71448 21.1558 8.80786 21.3229 8.974C21.4899 9.14019 21.5838 9.36553 21.5838 9.60055C21.5838 9.83553 21.4899 10.0609 21.3229 10.2271C21.1558 10.3932 20.9293 10.4866 20.693 10.4866Z" fill="#B7B7B7"/>
<path d="M20.693 14.1221H8.10591C7.86966 14.1221 7.6431 14.0288 7.47602 13.8626C7.30897 13.6965 7.21515 13.4711 7.21515 13.2361C7.21515 13.0011 7.30897 12.7757 7.47602 12.6096C7.6431 12.4434 7.86966 12.35 8.10591 12.35H20.693C20.9293 12.35 21.1558 12.4434 21.3229 12.6096C21.4899 12.7757 21.5838 13.0011 21.5838 13.2361C21.5838 13.4711 21.4899 13.6965 21.3229 13.8626C21.1558 14.0288 20.9293 14.1221 20.693 14.1221Z" fill="#B7B7B7"/>
<path d="M20.693 17.757H8.10591C7.86966 17.757 7.6431 17.6636 7.47602 17.4975C7.30897 17.3313 7.21515 17.106 7.21515 16.8709C7.21515 16.636 7.30897 16.4106 7.47602 16.2444C7.6431 16.0783 7.86966 15.9849 8.10591 15.9849H20.693C20.9293 15.9849 21.1558 16.0783 21.3229 16.2444C21.4899 16.4106 21.5838 16.636 21.5838 16.8709C21.5838 17.106 21.4899 17.3313 21.3229 17.4975C21.1558 17.6636 20.9293 17.757 20.693 17.757Z" fill="#B7B7B7"/>
<path d="M17.6836 21.4321H8.10591C7.86966 21.4321 7.6431 21.3387 7.47602 21.1726C7.30897 21.0064 7.21515 20.781 7.21515 20.546C7.21515 20.311 7.30897 20.0857 7.47602 19.9195C7.6431 19.7534 7.86966 19.66 8.10591 19.66H17.6836C17.9199 19.66 18.1464 19.7534 18.3135 19.9195C18.4805 20.0857 18.5744 20.311 18.5744 20.546C18.5744 20.781 18.4805 21.0064 18.3135 21.1726C18.1464 21.3387 17.9199 21.4321 17.6836 21.4321Z" fill="#B7B7B7"/>
<path d="M8.56352 5.33774L4.49507 9.42608L14.7934 19.7749L18.8596 15.6865L8.56352 5.33774Z" fill="#0F3B6D"/>
<path d="M1.40789 4.35173L3.22226 2.52847C3.92345 1.82384 5.06204 1.82384 5.76562 2.52847L7.50361 4.27497L3.43515 8.36335L1.40789 6.32615C0.864039 5.7796 0.864039 4.89824 1.40789 4.35173ZM20.9887 21.433C21.0627 21.7679 20.7619 22.0679 20.4286 21.9865L15.895 20.8819L19.9611 16.7936L20.9887 21.433Z" fill="#C53838"/>
</svg>
