<svg width="30" height="30" viewBox="0 0 30 30" fill="none" xmlns="http://www.w3.org/2000/svg">
<rect x="20.6728" y="14.9281" width="3" height="7" rx="1.5" transform="rotate(-19.7734 20.6728 14.9281)" fill="black"/>
<rect x="6.36772" y="13.9132" width="3" height="7" rx="1.5" transform="rotate(19.77 6.36772 13.9132)" fill="black"/>
<rect x="13" y="16" width="3" height="7" rx="1.5" fill="black"/>
<path d="M0 12.0931C0 10.2654 1.99491 9.0735 3.65796 9.83152C6.78952 11.2589 11.3563 13 15 13C18.6437 13 23.2105 11.2589 26.342 9.83152C28.0051 9.0735 30 10.2654 30 12.0931V12.0931C30 12.6773 29.786 13.2399 29.3293 13.6042C27.7908 14.8313 23.4711 17.5 15 17.5C6.5289 17.5 2.20918 14.8313 0.670704 13.6042C0.213974 13.2399 0 12.6773 0 12.0931V12.0931Z" fill="black"/>
</svg>
