<svg width="30" height="30" viewBox="0 0 30 30" fill="none" xmlns="http://www.w3.org/2000/svg">
<path d="M16.9417 7.50461L12.6698 11.7974L23.4831 22.6636L27.7525 18.3709L16.9417 7.50461Z" fill="#0F3B6D"/>
<path d="M9.42828 6.46932L11.3334 4.55489C12.0696 3.81504 13.2651 3.81504 14.0039 4.55489L15.8288 6.38872L11.5569 10.6815L9.42828 8.54246C8.85724 7.96858 8.85724 7.04315 9.42828 6.46932ZM29.9881 24.4047C30.0659 24.7563 29.75 25.0713 29.4 24.9858L24.6398 23.826L28.9092 19.5332L29.9881 24.4047Z" fill="#C53838"/>
<path d="M0 24C0 23.4477 0.447715 23 1 23H18.5185C18.8366 23 19.1517 23.0607 19.447 23.1788L21.5 24L23.053 24.497C23.3062 24.578 23.2857 24.9429 23.025 24.995V24.995C23.0084 24.9983 22.9915 25 22.9745 25H1C0.447715 25 0 24.5523 0 24V24Z" fill="#C4C4C4"/>
<path d="M5.412 22H4.812C4.74267 22 4.68667 21.9827 4.644 21.948C4.60133 21.9133 4.56933 21.8693 4.548 21.816L4.012 20.432H1.44L0.904 21.816C0.885333 21.864 0.853333 21.9067 0.808 21.944C0.762667 21.9813 0.706667 22 0.64 22H0.04L2.332 16.268H3.12L5.412 22ZM1.656 19.872H3.796L2.896 17.54C2.83733 17.396 2.78 17.216 2.724 17C2.69467 17.1093 2.66533 17.2107 2.636 17.304C2.60933 17.3947 2.58267 17.4747 2.556 17.544L1.656 19.872ZM6.1335 22V16.268H7.9615C8.3135 16.268 8.61617 16.3027 8.8695 16.372C9.1255 16.4413 9.33483 16.54 9.4975 16.668C9.66283 16.796 9.78417 16.9533 9.8615 17.14C9.9415 17.324 9.9815 17.532 9.9815 17.764C9.9815 17.9053 9.95883 18.0413 9.9135 18.172C9.87083 18.3027 9.80417 18.424 9.7135 18.536C9.6255 18.648 9.5135 18.748 9.3775 18.836C9.24417 18.924 9.08683 18.996 8.9055 19.052C9.32417 19.1347 9.64017 19.2853 9.8535 19.504C10.0668 19.7227 10.1735 20.0107 10.1735 20.368C10.1735 20.6107 10.1282 20.832 10.0375 21.032C9.9495 21.232 9.81883 21.404 9.6455 21.548C9.47483 21.692 9.26417 21.804 9.0135 21.884C8.7655 21.9613 8.4815 22 8.1615 22H6.1335ZM6.9095 19.388V21.384H8.1495C8.37083 21.384 8.56017 21.3587 8.7175 21.308C8.8775 21.2573 9.00817 21.1867 9.1095 21.096C9.2135 21.0027 9.2895 20.8933 9.3375 20.768C9.3855 20.64 9.4095 20.5 9.4095 20.348C9.4095 20.052 9.30417 19.8187 9.0935 19.648C8.8855 19.4747 8.5695 19.388 8.1455 19.388H6.9095ZM6.9095 18.836H7.9335C8.15217 18.836 8.3415 18.812 8.5015 18.764C8.6615 18.716 8.7935 18.6493 8.8975 18.564C9.00417 18.4787 9.08283 18.376 9.1335 18.256C9.18417 18.1333 9.2095 18 9.2095 17.856C9.2095 17.52 9.10817 17.2733 8.9055 17.116C8.70283 16.9587 8.38817 16.88 7.9615 16.88H6.9095V18.836ZM15.3532 20.816C15.3959 20.816 15.4345 20.8333 15.4692 20.868L15.7732 21.2C15.5385 21.472 15.2532 21.684 14.9172 21.836C14.5839 21.988 14.1812 22.064 13.7092 22.064C13.2959 22.064 12.9212 21.9933 12.5852 21.852C12.2492 21.708 11.9625 21.508 11.7252 21.252C11.4879 20.9933 11.3039 20.684 11.1732 20.324C11.0425 19.964 10.9772 19.568 10.9772 19.136C10.9772 18.704 11.0465 18.308 11.1852 17.948C11.3265 17.588 11.5239 17.2787 11.7772 17.02C12.0305 16.7613 12.3332 16.5613 12.6852 16.42C13.0399 16.276 13.4305 16.204 13.8572 16.204C14.2785 16.204 14.6412 16.2693 14.9452 16.4C15.2519 16.5307 15.5239 16.708 15.7612 16.932L15.5092 17.288C15.4905 17.3147 15.4692 17.3373 15.4452 17.356C15.4212 17.372 15.3865 17.38 15.3412 17.38C15.3065 17.38 15.2692 17.368 15.2292 17.344C15.1919 17.3173 15.1465 17.2853 15.0932 17.248C15.0399 17.2107 14.9772 17.1707 14.9052 17.128C14.8332 17.0853 14.7479 17.0453 14.6492 17.008C14.5505 16.9707 14.4359 16.94 14.3052 16.916C14.1745 16.8893 14.0239 16.876 13.8532 16.876C13.5465 16.876 13.2652 16.9293 13.0092 17.036C12.7559 17.14 12.5372 17.2893 12.3532 17.484C12.1692 17.6787 12.0252 17.916 11.9212 18.196C11.8199 18.476 11.7692 18.7893 11.7692 19.136C11.7692 19.4933 11.8199 19.812 11.9212 20.092C12.0252 20.372 12.1652 20.6093 12.3412 20.804C12.5199 20.996 12.7305 21.1427 12.9732 21.244C13.2159 21.3453 13.4772 21.396 13.7572 21.396C13.9279 21.396 14.0812 21.3867 14.2172 21.368C14.3532 21.3467 14.4785 21.3147 14.5932 21.272C14.7105 21.2293 14.8185 21.176 14.9172 21.112C15.0185 21.0453 15.1199 20.9667 15.2212 20.876C15.2665 20.836 15.3105 20.816 15.3532 20.816Z" fill="#B7B7B7"/>
</svg>
