<svg width="30" height="30" viewBox="0 0 30 30" fill="none" xmlns="http://www.w3.org/2000/svg">
<path d="M30 7L23.25 10.8971L23.25 3.10289L30 7Z" fill="black"/>
<path d="M30 23.2L23.25 27.0971L23.25 19.3029L30 23.2Z" fill="black"/>
<path fill-rule="evenodd" clip-rule="evenodd" d="M0 25.2043C3.66282 24.8303 6.33081 23.8108 8.4163 22.3495C10.5298 20.8685 11.9475 18.9906 13.1579 17.1903C14.3683 18.9906 15.786 20.8685 17.8995 22.3495C19.771 23.6609 22.1116 24.6164 25.2193 25.069V22.033C22.7282 21.6161 20.9688 20.837 19.6211 19.8926C17.6136 18.4859 16.3697 16.6236 14.9622 14.4792C16.0826 12.8662 17.2643 11.4407 18.9716 10.3104C20.4616 9.32388 22.427 8.51805 25.2193 8.10932V5.0812C21.8505 5.51836 19.3225 6.48011 17.3154 7.80892C15.5425 8.98273 14.2408 10.4052 13.1579 11.8492C12.075 10.4052 10.7733 8.98273 9.00035 7.80892C6.7812 6.3397 3.92519 5.3192 0 4.96037V7.97407C3.38547 8.31769 5.66632 9.19948 7.34422 10.3104C9.05149 11.4407 10.2332 12.8662 11.3536 14.4793C9.94609 16.6236 8.7022 18.4859 6.69471 19.8926C5.15721 20.97 3.08399 21.8322 0 22.187V25.2043Z" fill="black"/>
</svg>
