<svg width="30" height="30" viewBox="0 0 30 30" fill="none" xmlns="http://www.w3.org/2000/svg">
<path d="M22.0916 19V24C22.0916 26.2091 20.3008 28 18.0916 28H6C3.79087 28 2 26.2091 2 24V11.9084C2 9.69922 3.79086 7.90836 6 7.90836H12" stroke="black" stroke-width="4" stroke-linecap="round"/>
<path d="M22.5398 4.09333L26.5527 8.10621L16.3949 18.264L12.3842 14.2511L22.5398 4.09333ZM29.5977 3.12552L27.8081 1.33591C27.1165 0.644295 25.9934 0.644295 25.2995 1.33591L23.5852 3.05018L27.5981 7.06309L29.5977 5.0635C30.1341 4.52704 30.1341 3.66194 29.5977 3.12552ZM10.2842 19.8915C10.2112 20.2202 10.5079 20.5147 10.8366 20.4348L15.3083 19.3506L11.2977 15.3377L10.2842 19.8915Z" fill="black"/>
</svg>
