<svg width="25" height="28" viewBox="0 0 25 28" fill="none" xmlns="http://www.w3.org/2000/svg">
<path d="M15.5992 23.971H1.46359C1.27139 23.971 1.08107 23.9333 0.903496 23.8601C0.725924 23.787 0.56458 23.6797 0.428674 23.5446C0.292768 23.4094 0.184961 23.2489 0.111409 23.0723C0.0378566 22.8956 0 22.7063 0 22.5151V1.45448C0.00036323 1.0686 0.154722 0.698655 0.429159 0.425924C0.703595 0.153196 1.07566 -1.69152e-07 1.46359 0H19.572C19.9602 0.000180612 20.3323 0.153621 20.6067 0.426607C20.8812 0.699589 21.0355 1.06979 21.0356 1.45584V18.8592L15.5992 23.971Z" fill="#B7B7B7"/>
<path d="M19.285 27.637H5.14863C4.95644 27.637 4.7661 27.5993 4.58852 27.5262C4.41098 27.453 4.24962 27.3458 4.11371 27.2106C3.9778 27.0754 3.87 26.9149 3.79644 26.7383C3.7229 26.5617 3.68504 26.3724 3.68504 26.1812V5.12051C3.68504 4.92934 3.7229 4.74003 3.79644 4.56338C3.87 4.38676 3.9778 4.22629 4.11371 4.09109C4.24962 3.95589 4.41098 3.84865 4.58852 3.77549C4.7661 3.70232 4.95644 3.66469 5.14863 3.66469H23.2571C23.6453 3.66469 24.0175 3.81807 24.292 4.09109C24.5665 4.36411 24.7207 4.7344 24.7207 5.12051V22.5252L19.285 27.637Z" fill="#E2E2E2"/>
<path d="M19.285 27.637L24.7206 22.5252H20.5409C20.2071 22.5252 19.8869 22.6571 19.6509 22.8919C19.4148 23.1267 19.2822 23.4452 19.2822 23.7773L19.285 27.637Z" fill="#B7B7B7"/>
<path d="M8.83016 11H8.59316C8.54116 11 8.49916 10.992 8.46716 10.976C8.43516 10.96 8.41416 10.926 8.40416 10.874L8.34416 10.592C8.26416 10.664 8.18616 10.729 8.11016 10.787C8.03416 10.843 7.95416 10.891 7.87016 10.931C7.78616 10.969 7.69616 10.998 7.60016 11.018C7.50616 11.038 7.40116 11.048 7.28516 11.048C7.16716 11.048 7.05616 11.032 6.95216 11C6.85016 10.966 6.76116 10.916 6.68516 10.85C6.60916 10.784 6.54816 10.701 6.50216 10.601C6.45816 10.499 6.43616 10.379 6.43616 10.241C6.43616 10.121 6.46916 10.006 6.53516 9.896C6.60116 9.784 6.70716 9.685 6.85316 9.599C7.00116 9.513 7.19416 9.443 7.43216 9.389C7.67016 9.333 7.96116 9.301 8.30516 9.293V9.056C8.30516 8.82 8.25416 8.642 8.15216 8.522C8.05216 8.4 7.90316 8.339 7.70516 8.339C7.57516 8.339 7.46516 8.356 7.37516 8.39C7.28716 8.422 7.21016 8.459 7.14416 8.501C7.08016 8.541 7.02416 8.578 6.97616 8.612C6.93016 8.644 6.88416 8.66 6.83816 8.66C6.80216 8.66 6.77016 8.651 6.74216 8.633C6.71616 8.613 6.69516 8.589 6.67916 8.561L6.58316 8.39C6.75116 8.228 6.93216 8.107 7.12616 8.027C7.32016 7.947 7.53516 7.907 7.77116 7.907C7.94116 7.907 8.09216 7.935 8.22416 7.991C8.35616 8.047 8.46716 8.125 8.55716 8.225C8.64716 8.325 8.71516 8.446 8.76116 8.588C8.80716 8.73 8.83016 8.886 8.83016 9.056V11ZM7.44416 10.673C7.53816 10.673 7.62416 10.664 7.70216 10.646C7.78016 10.626 7.85316 10.599 7.92116 10.565C7.99116 10.529 8.05716 10.486 8.11916 10.436C8.18316 10.386 8.24516 10.329 8.30516 10.265V9.632C8.05916 9.64 7.85016 9.66 7.67816 9.692C7.50616 9.722 7.36616 9.762 7.25816 9.812C7.15016 9.862 7.07116 9.921 7.02116 9.989C6.97316 10.057 6.94916 10.133 6.94916 10.217C6.94916 10.297 6.96216 10.366 6.98816 10.424C7.01416 10.482 7.04916 10.53 7.09316 10.568C7.13716 10.604 7.18916 10.631 7.24916 10.649C7.30916 10.665 7.37416 10.673 7.44416 10.673ZM10.0952 9.113C10.0952 8.685 10.0402 8.269 9.93017 7.865C9.82217 7.461 9.66317 7.077 9.45317 6.713C9.43317 6.675 9.42317 6.641 9.42317 6.611C9.42317 6.583 9.43017 6.56 9.44417 6.542C9.45817 6.524 9.47617 6.508 9.49817 6.494L9.73517 6.347C9.88517 6.579 10.0122 6.808 10.1162 7.034C10.2222 7.26 10.3072 7.487 10.3712 7.715C10.4372 7.941 10.4852 8.17 10.5152 8.402C10.5452 8.634 10.5602 8.871 10.5602 9.113C10.5602 9.357 10.5452 9.595 10.5152 9.827C10.4852 10.057 10.4372 10.286 10.3712 10.514C10.3072 10.742 10.2222 10.969 10.1162 11.195C10.0122 11.421 9.88517 11.649 9.73517 11.879L9.49817 11.735C9.47617 11.721 9.45817 11.705 9.44417 11.687C9.43017 11.669 9.42317 11.646 9.42317 11.618C9.42317 11.602 9.42517 11.586 9.42917 11.57C9.43317 11.554 9.44117 11.535 9.45317 11.513C9.66117 11.147 9.82017 10.763 9.93017 10.361C10.0402 9.957 10.0952 9.541 10.0952 9.113ZM6.39936 18V13.581H6.93636V15.399C7.06236 15.253 7.20636 15.136 7.36836 15.048C7.53236 14.958 7.71936 14.913 7.92936 14.913C8.10536 14.913 8.26436 14.946 8.40636 15.012C8.54836 15.078 8.66936 15.177 8.76936 15.309C8.86936 15.439 8.94636 15.601 9.00036 15.795C9.05436 15.987 9.08136 16.209 9.08136 16.461C9.08136 16.685 9.05136 16.894 8.99136 17.088C8.93136 17.28 8.84436 17.447 8.73036 17.589C8.61836 17.729 8.48036 17.84 8.31636 17.922C8.15436 18.002 7.97136 18.042 7.76736 18.042C7.57136 18.042 7.40436 18.004 7.26636 17.928C7.13036 17.852 7.01136 17.746 6.90936 17.61L6.88236 17.886C6.86636 17.962 6.82036 18 6.74436 18H6.39936ZM7.75536 15.339C7.58136 15.339 7.42836 15.379 7.29636 15.459C7.16636 15.539 7.04636 15.652 6.93636 15.798V17.268C7.03236 17.4 7.13836 17.493 7.25436 17.547C7.37236 17.601 7.50336 17.628 7.64736 17.628C7.93136 17.628 8.14936 17.527 8.30136 17.325C8.45336 17.123 8.52936 16.835 8.52936 16.461C8.52936 16.263 8.51136 16.093 8.47536 15.951C8.44136 15.809 8.39136 15.693 8.32536 15.603C8.25936 15.511 8.17836 15.444 8.08236 15.402C7.98636 15.36 7.87736 15.339 7.75536 15.339ZM10.0952 16.113C10.0952 15.685 10.0402 15.269 9.93017 14.865C9.82217 14.461 9.66317 14.077 9.45317 13.713C9.43317 13.675 9.42317 13.641 9.42317 13.611C9.42317 13.583 9.43017 13.56 9.44417 13.542C9.45817 13.524 9.47617 13.508 9.49817 13.494L9.73517 13.347C9.88517 13.579 10.0122 13.808 10.1162 14.034C10.2222 14.26 10.3072 14.487 10.3712 14.715C10.4372 14.941 10.4852 15.17 10.5152 15.402C10.5452 15.634 10.5602 15.871 10.5602 16.113C10.5602 16.357 10.5452 16.595 10.5152 16.827C10.4852 17.057 10.4372 17.286 10.3712 17.514C10.3072 17.742 10.2222 17.969 10.1162 18.195C10.0122 18.421 9.88517 18.649 9.73517 18.879L9.49817 18.735C9.47617 18.721 9.45817 18.705 9.44417 18.687C9.43017 18.669 9.42317 18.646 9.42317 18.618C9.42317 18.602 9.42517 18.586 9.42917 18.57C9.43317 18.554 9.44117 18.535 9.45317 18.513C9.66117 18.147 9.82017 17.763 9.93017 17.361C10.0402 16.957 10.0952 16.541 10.0952 16.113ZM8.91139 22.501C8.89539 22.523 8.87939 22.54 8.86339 22.552C8.84739 22.564 8.82439 22.57 8.79439 22.57C8.76439 22.57 8.73139 22.558 8.69539 22.534C8.66139 22.508 8.61739 22.48 8.56339 22.45C8.50939 22.42 8.44339 22.393 8.36539 22.369C8.28939 22.343 8.19539 22.33 8.08339 22.33C7.93539 22.33 7.80439 22.357 7.69039 22.411C7.57639 22.463 7.48039 22.539 7.40239 22.639C7.32639 22.739 7.26839 22.86 7.22839 23.002C7.19039 23.144 7.17139 23.303 7.17139 23.479C7.17139 23.663 7.19239 23.827 7.23439 23.971C7.27639 24.113 7.33539 24.233 7.41139 24.331C7.48739 24.427 7.57939 24.501 7.68739 24.553C7.79739 24.603 7.92039 24.628 8.05639 24.628C8.18639 24.628 8.29339 24.613 8.37739 24.583C8.46139 24.551 8.53139 24.516 8.58739 24.478C8.64339 24.44 8.68939 24.406 8.72539 24.376C8.76139 24.344 8.79739 24.328 8.83339 24.328C8.87939 24.328 8.91339 24.345 8.93539 24.379L9.08539 24.574C8.95339 24.736 8.78839 24.855 8.59039 24.931C8.39239 25.005 8.18339 25.042 7.96339 25.042C7.77339 25.042 7.59639 25.007 7.43239 24.937C7.27039 24.867 7.12939 24.766 7.00939 24.634C6.88939 24.5 6.79439 24.336 6.72439 24.142C6.65639 23.948 6.62239 23.727 6.62239 23.479C6.62239 23.253 6.65339 23.044 6.71539 22.852C6.77939 22.66 6.87139 22.495 6.99139 22.357C7.11339 22.217 7.26339 22.108 7.44139 22.03C7.61939 21.952 7.82339 21.913 8.05339 21.913C8.26539 21.913 8.45339 21.948 8.61739 22.018C8.78139 22.086 8.92639 22.183 9.05239 22.309L8.91139 22.501ZM10.0952 23.113C10.0952 22.685 10.0402 22.269 9.93017 21.865C9.82217 21.461 9.66317 21.077 9.45317 20.713C9.43317 20.675 9.42317 20.641 9.42317 20.611C9.42317 20.583 9.43017 20.56 9.44417 20.542C9.45817 20.524 9.47617 20.508 9.49817 20.494L9.73517 20.347C9.88517 20.579 10.0122 20.808 10.1162 21.034C10.2222 21.26 10.3072 21.487 10.3712 21.715C10.4372 21.941 10.4852 22.17 10.5152 22.402C10.5452 22.634 10.5602 22.871 10.5602 23.113C10.5602 23.357 10.5452 23.595 10.5152 23.827C10.4852 24.057 10.4372 24.286 10.3712 24.514C10.3072 24.742 10.2222 24.969 10.1162 25.195C10.0122 25.421 9.88517 25.649 9.73517 25.879L9.49817 25.735C9.47617 25.721 9.45817 25.705 9.44417 25.687C9.43017 25.669 9.42317 25.646 9.42317 25.618C9.42317 25.602 9.42517 25.586 9.42917 25.57C9.43317 25.554 9.44117 25.535 9.45317 25.513C9.66117 25.147 9.82017 24.763 9.93017 24.361C10.0402 23.957 10.0952 23.541 10.0952 23.113Z" fill="#A31010"/>
<path d="M12.352 9.56C12.352 9.49067 12.364 9.42533 12.388 9.364C12.4147 9.30267 12.4493 9.24933 12.492 9.204C12.5373 9.15867 12.5907 9.12267 12.652 9.096C12.7133 9.06933 12.7787 9.056 12.848 9.056C12.9173 9.056 12.9827 9.06933 13.044 9.096C13.1053 9.12267 13.1587 9.15867 13.204 9.204C13.2493 9.24933 13.284 9.30267 13.308 9.364C13.3347 9.42533 13.348 9.49067 13.348 9.56C13.348 9.632 13.3347 9.69867 13.308 9.76C13.284 9.81867 13.2493 9.87067 13.204 9.916C13.1587 9.96133 13.1053 9.996 13.044 10.02C12.9827 10.0467 12.9173 10.06 12.848 10.06C12.7787 10.06 12.7133 10.0467 12.652 10.02C12.5907 9.996 12.5373 9.96133 12.492 9.916C12.4493 9.87067 12.4147 9.81867 12.388 9.76C12.364 9.69867 12.352 9.632 12.352 9.56ZM14.6274 9.56C14.6274 9.49067 14.6394 9.42533 14.6634 9.364C14.6901 9.30267 14.7247 9.24933 14.7674 9.204C14.8127 9.15867 14.8661 9.12267 14.9274 9.096C14.9887 9.06933 15.0541 9.056 15.1234 9.056C15.1927 9.056 15.2581 9.06933 15.3194 9.096C15.3807 9.12267 15.4341 9.15867 15.4794 9.204C15.5247 9.24933 15.5594 9.30267 15.5834 9.364C15.6101 9.42533 15.6234 9.49067 15.6234 9.56C15.6234 9.632 15.6101 9.69867 15.5834 9.76C15.5594 9.81867 15.5247 9.87067 15.4794 9.916C15.4341 9.96133 15.3807 9.996 15.3194 10.02C15.2581 10.0467 15.1927 10.06 15.1234 10.06C15.0541 10.06 14.9887 10.0467 14.9274 10.02C14.8661 9.996 14.8127 9.96133 14.7674 9.916C14.7247 9.87067 14.6901 9.81867 14.6634 9.76C14.6394 9.69867 14.6274 9.632 14.6274 9.56ZM16.9028 9.56C16.9028 9.49067 16.9148 9.42533 16.9388 9.364C16.9654 9.30267 17.0001 9.24933 17.0428 9.204C17.0881 9.15867 17.1414 9.12267 17.2028 9.096C17.2641 9.06933 17.3294 9.056 17.3988 9.056C17.4681 9.056 17.5334 9.06933 17.5948 9.096C17.6561 9.12267 17.7094 9.15867 17.7548 9.204C17.8001 9.24933 17.8348 9.30267 17.8588 9.364C17.8854 9.42533 17.8988 9.49067 17.8988 9.56C17.8988 9.632 17.8854 9.69867 17.8588 9.76C17.8348 9.81867 17.8001 9.87067 17.7548 9.916C17.7094 9.96133 17.6561 9.996 17.5948 10.02C17.5334 10.0467 17.4681 10.06 17.3988 10.06C17.3294 10.06 17.2641 10.0467 17.2028 10.02C17.1414 9.996 17.0881 9.96133 17.0428 9.916C17.0001 9.87067 16.9654 9.81867 16.9388 9.76C16.9148 9.69867 16.9028 9.632 16.9028 9.56Z" fill="#0F3B6D"/>
<path d="M12.352 16.56C12.352 16.4907 12.364 16.4253 12.388 16.364C12.4147 16.3027 12.4493 16.2493 12.492 16.204C12.5373 16.1587 12.5907 16.1227 12.652 16.096C12.7133 16.0693 12.7787 16.056 12.848 16.056C12.9173 16.056 12.9827 16.0693 13.044 16.096C13.1053 16.1227 13.1587 16.1587 13.204 16.204C13.2493 16.2493 13.284 16.3027 13.308 16.364C13.3347 16.4253 13.348 16.4907 13.348 16.56C13.348 16.632 13.3347 16.6987 13.308 16.76C13.284 16.8187 13.2493 16.8707 13.204 16.916C13.1587 16.9613 13.1053 16.996 13.044 17.02C12.9827 17.0467 12.9173 17.06 12.848 17.06C12.7787 17.06 12.7133 17.0467 12.652 17.02C12.5907 16.996 12.5373 16.9613 12.492 16.916C12.4493 16.8707 12.4147 16.8187 12.388 16.76C12.364 16.6987 12.352 16.632 12.352 16.56ZM14.6274 16.56C14.6274 16.4907 14.6394 16.4253 14.6634 16.364C14.6901 16.3027 14.7247 16.2493 14.7674 16.204C14.8127 16.1587 14.8661 16.1227 14.9274 16.096C14.9887 16.0693 15.0541 16.056 15.1234 16.056C15.1927 16.056 15.2581 16.0693 15.3194 16.096C15.3807 16.1227 15.4341 16.1587 15.4794 16.204C15.5247 16.2493 15.5594 16.3027 15.5834 16.364C15.6101 16.4253 15.6234 16.4907 15.6234 16.56C15.6234 16.632 15.6101 16.6987 15.5834 16.76C15.5594 16.8187 15.5247 16.8707 15.4794 16.916C15.4341 16.9613 15.3807 16.996 15.3194 17.02C15.2581 17.0467 15.1927 17.06 15.1234 17.06C15.0541 17.06 14.9887 17.0467 14.9274 17.02C14.8661 16.996 14.8127 16.9613 14.7674 16.916C14.7247 16.8707 14.6901 16.8187 14.6634 16.76C14.6394 16.6987 14.6274 16.632 14.6274 16.56ZM16.9028 16.56C16.9028 16.4907 16.9148 16.4253 16.9388 16.364C16.9654 16.3027 17.0001 16.2493 17.0428 16.204C17.0881 16.1587 17.1414 16.1227 17.2028 16.096C17.2641 16.0693 17.3294 16.056 17.3988 16.056C17.4681 16.056 17.5334 16.0693 17.5948 16.096C17.6561 16.1227 17.7094 16.1587 17.7548 16.204C17.8001 16.2493 17.8348 16.3027 17.8588 16.364C17.8854 16.4253 17.8988 16.4907 17.8988 16.56C17.8988 16.632 17.8854 16.6987 17.8588 16.76C17.8348 16.8187 17.8001 16.8707 17.7548 16.916C17.7094 16.9613 17.6561 16.996 17.5948 17.02C17.5334 17.0467 17.4681 17.06 17.3988 17.06C17.3294 17.06 17.2641 17.0467 17.2028 17.02C17.1414 16.996 17.0881 16.9613 17.0428 16.916C17.0001 16.8707 16.9654 16.8187 16.9388 16.76C16.9148 16.6987 16.9028 16.632 16.9028 16.56Z" fill="#0F3B6D"/>
<path d="M12.352 23.56C12.352 23.4907 12.364 23.4253 12.388 23.364C12.4147 23.3027 12.4493 23.2493 12.492 23.204C12.5373 23.1587 12.5907 23.1227 12.652 23.096C12.7133 23.0693 12.7787 23.056 12.848 23.056C12.9173 23.056 12.9827 23.0693 13.044 23.096C13.1053 23.1227 13.1587 23.1587 13.204 23.204C13.2493 23.2493 13.284 23.3027 13.308 23.364C13.3347 23.4253 13.348 23.4907 13.348 23.56C13.348 23.632 13.3347 23.6987 13.308 23.76C13.284 23.8187 13.2493 23.8707 13.204 23.916C13.1587 23.9613 13.1053 23.996 13.044 24.02C12.9827 24.0467 12.9173 24.06 12.848 24.06C12.7787 24.06 12.7133 24.0467 12.652 24.02C12.5907 23.996 12.5373 23.9613 12.492 23.916C12.4493 23.8707 12.4147 23.8187 12.388 23.76C12.364 23.6987 12.352 23.632 12.352 23.56ZM14.6274 23.56C14.6274 23.4907 14.6394 23.4253 14.6634 23.364C14.6901 23.3027 14.7247 23.2493 14.7674 23.204C14.8127 23.1587 14.8661 23.1227 14.9274 23.096C14.9887 23.0693 15.0541 23.056 15.1234 23.056C15.1927 23.056 15.2581 23.0693 15.3194 23.096C15.3807 23.1227 15.4341 23.1587 15.4794 23.204C15.5247 23.2493 15.5594 23.3027 15.5834 23.364C15.6101 23.4253 15.6234 23.4907 15.6234 23.56C15.6234 23.632 15.6101 23.6987 15.5834 23.76C15.5594 23.8187 15.5247 23.8707 15.4794 23.916C15.4341 23.9613 15.3807 23.996 15.3194 24.02C15.2581 24.0467 15.1927 24.06 15.1234 24.06C15.0541 24.06 14.9887 24.0467 14.9274 24.02C14.8661 23.996 14.8127 23.9613 14.7674 23.916C14.7247 23.8707 14.6901 23.8187 14.6634 23.76C14.6394 23.6987 14.6274 23.632 14.6274 23.56ZM16.9028 23.56C16.9028 23.4907 16.9148 23.4253 16.9388 23.364C16.9654 23.3027 17.0001 23.2493 17.0428 23.204C17.0881 23.1587 17.1414 23.1227 17.2028 23.096C17.2641 23.0693 17.3294 23.056 17.3988 23.056C17.4681 23.056 17.5334 23.0693 17.5948 23.096C17.6561 23.1227 17.7094 23.1587 17.7548 23.204C17.8001 23.2493 17.8348 23.3027 17.8588 23.364C17.8854 23.4253 17.8988 23.4907 17.8988 23.56C17.8988 23.632 17.8854 23.6987 17.8588 23.76C17.8348 23.8187 17.8001 23.8707 17.7548 23.916C17.7094 23.9613 17.6561 23.996 17.5948 24.02C17.5334 24.0467 17.4681 24.06 17.3988 24.06C17.3294 24.06 17.2641 24.0467 17.2028 24.02C17.1414 23.996 17.0881 23.9613 17.0428 23.916C17.0001 23.8707 16.9654 23.8187 16.9388 23.76C16.9148 23.6987 16.9028 23.632 16.9028 23.56Z" fill="#0F3B6D"/>
</svg>
