<svg width="33" height="29" viewBox="0 0 33 29" fill="none" xmlns="http://www.w3.org/2000/svg">
<path d="M14.5503 2.95756V1.76049C14.5503 1.03268 13.9603 0.442627 13.2324 0.442627H1.37182C0.643941 0.442627 0.0539551 1.03261 0.0539551 1.76049V9.51685H33.0001V5.154C33.0001 4.42619 32.4101 3.83614 31.6822 3.83614H15.4288C14.9436 3.83614 14.5503 3.44279 14.5503 2.95756Z" fill="#96A7BA"/>
<path d="M31.2429 28.2069H1.81111C0.84065 28.2069 0.0539551 27.4202 0.0539551 26.4498V9.20329H14.5994C14.9701 9.20329 15.3236 9.04724 15.5733 8.77336L17.1923 6.99756C17.442 6.72367 17.7955 6.56763 18.1662 6.56763H33.0001V26.4498C33.0001 27.4202 32.2134 28.2069 31.2429 28.2069Z" fill="white"/>
</svg>
