<svg width="64" height="54" viewBox="0 0 64 54" fill="none" xmlns="http://www.w3.org/2000/svg">
<path d="M28.0714 4.87005V2.55198C28.0714 1.14262 26.9289 0 25.5194 0H2.55198C1.14248 0 0 1.14248 0 2.55198V17.5718H63.7987V9.12336C63.7987 7.71399 62.6562 6.57137 61.2467 6.57137H29.7727C28.8331 6.57137 28.0714 5.80967 28.0714 4.87005Z" fill="#C53838"/>
<path d="M60.396 53.7644H3.40265C1.5234 53.7644 0 52.241 0 50.3617V16.9647H28.1667C28.8843 16.9647 29.5689 16.6625 30.0524 16.1321L33.1877 12.6934C33.6712 12.163 34.3557 11.8608 35.0734 11.8608H63.7987V50.3617C63.7987 52.241 62.2753 53.7644 60.396 53.7644Z" fill="#FFE9E9"/>
</svg>
