<svg width="35" height="35" viewBox="0 0 35 35" fill="none" xmlns="http://www.w3.org/2000/svg">
<path d="M33.9049 16.4054H20.0512C19.4475 16.4054 18.9575 15.9154 18.9575 15.3117C18.9575 14.708 19.4475 14.218 20.0512 14.218H33.9049C34.5086 14.218 34.9986 14.708 34.9986 15.3117C34.9986 15.9154 34.5086 16.4054 33.9049 16.4054Z" fill="white"/>
<path d="M28.4362 21.8741C28.1561 21.8741 27.8763 21.7676 27.6632 21.5534C27.236 21.1259 27.236 20.4333 27.6632 20.0061L32.359 15.3106L27.6632 10.6148C27.236 10.1876 27.236 9.49492 27.6632 9.06769C28.0907 8.6402 28.7833 8.6402 29.2106 9.06769L34.6791 14.5362C35.1063 14.9634 35.1063 15.6561 34.6791 16.0833L29.2106 21.5518C28.9961 21.7676 28.7163 21.8741 28.4362 21.8741Z" fill="white"/>
<path d="M11.6663 35C11.3541 35 11.058 34.9562 10.7621 34.8643L1.98607 31.9405C0.791973 31.5234 0 30.4107 0 29.167V2.91809C0 1.30958 1.30812 0.00146484 2.91663 0.00146484C3.22851 0.00146484 3.52463 0.0452557 3.82075 0.13711L12.5965 3.06095C13.7909 3.47803 14.5826 4.59069 14.5826 5.83446V32.0833C14.5826 33.6918 13.2748 35 11.6663 35ZM2.91663 2.18887C2.51557 2.18887 2.18741 2.51703 2.18741 2.91809V29.167C2.18741 29.4775 2.39595 29.7661 2.6934 29.8697L11.4283 32.7805C11.4911 32.8008 11.5728 32.8125 11.6663 32.8125C12.0673 32.8125 12.3952 32.4844 12.3952 32.0833V5.83446C12.3952 5.52392 12.1867 5.23527 11.8892 5.13167L3.15427 2.22091C3.09153 2.20062 3.00982 2.18887 2.91663 2.18887Z" fill="#FFE9E9"/>
<path d="M22.2384 11.6663C21.6346 11.6663 21.1447 11.1763 21.1447 10.5725V4.01033C21.1447 3.00555 20.3268 2.18741 19.322 2.18741H2.91646C2.31273 2.18741 1.82275 1.69743 1.82275 1.0937C1.82275 0.489977 2.31273 0 2.91646 0H19.322C21.5342 0 23.3321 1.79809 23.3321 4.01033V10.5725C23.3321 11.1763 22.8421 11.6663 22.2384 11.6663Z" fill="#FFE9E9"/>
<path d="M19.3222 30.6235H13.489C12.8852 30.6235 12.3953 30.1335 12.3953 29.5298C12.3953 28.9261 12.8852 28.4361 13.489 28.4361H19.3222C20.327 28.4361 21.1449 27.618 21.1449 26.6132V20.051C21.1449 19.4473 21.6349 18.9573 22.2386 18.9573C22.8423 18.9573 23.3323 19.4473 23.3323 20.051V26.6132C23.3323 28.8254 21.5345 30.6235 19.3222 30.6235Z" fill="#FFE9E9"/>
</svg>
