<svg width="31" height="27" viewBox="0 0 31 27" fill="none" xmlns="http://www.w3.org/2000/svg">
<path fill-rule="evenodd" clip-rule="evenodd" d="M8.20843 6.92948L0 15.141L8.20842 23.3525C12.1129 27.2584 18.4434 27.2584 22.3479 23.3525L30.5563 15.141L22.3479 6.92948C18.4434 3.02351 12.1129 3.0235 8.20843 6.92948ZM8.20842 11.2958L4.36467 15.141L8.20842 18.9862C12.1129 22.8921 18.4434 22.8921 22.3479 18.9862L26.1917 15.141L22.3479 11.2958C18.4434 7.38981 12.1129 7.38981 8.20842 11.2958Z" fill="black"/>
<circle cx="15.5" cy="14.5" r="5" stroke="black" stroke-width="3"/>
<rect x="3" y="4.76045" width="3" height="7" rx="1.5" transform="rotate(-35.9316 3 4.76045)" fill="black"/>
<rect x="25.1076" y="2.99997" width="3" height="7" rx="1.5" transform="rotate(35.93 25.1076 2.99997)" fill="black"/>
<rect x="14" width="3" height="7" rx="1.5" fill="black"/>
<path fill-rule="evenodd" clip-rule="evenodd" d="M17.9418 13.9611C17.7984 13.9867 17.6507 14 17.5 14C16.3043 14 15.3047 13.1606 15.0582 12.0389C13.8882 12.2475 13 13.27 13 14.5C13 15.8807 14.1193 17 15.5 17C16.8807 17 18 15.8807 18 14.5C18 14.315 17.9799 14.1347 17.9418 13.9611Z" fill="black"/>
</svg>
