<svg width="38" height="38" viewBox="0 0 38 38" fill="none" xmlns="http://www.w3.org/2000/svg">
<path d="M26.4388 28.5V30.697C26.4388 32.9061 24.648 34.697 22.4388 34.697H7.30303C5.09389 34.697 3.30302 32.9061 3.30302 30.697V15.5612C3.30302 13.352 5.09389 11.5612 7.30302 11.5612H8.5" stroke="#406188" stroke-width="6" stroke-linecap="round"/>
<path d="M9.39383 24.3635C8.22226 25.5351 8.22226 27.4346 9.39383 28.6062C10.5654 29.7777 12.4649 29.7777 13.6365 28.6062L9.39383 24.3635ZM13.6365 28.6062L27.4547 14.788L23.212 10.5453L9.39383 24.3635L13.6365 28.6062Z" fill="#406188"/>
<path d="M28.9394 8.06061C29.4917 8.06061 29.9394 8.50832 29.9394 9.06061L29.9394 21.7676C29.9394 22.6585 28.8622 23.1047 28.2323 22.4747L15.5253 9.76771C14.8953 9.13775 15.3415 8.06061 16.2324 8.06061L28.9394 8.06061Z" fill="#406188"/>
</svg>
