<svg width="34" height="33" viewBox="0 0 34 33" fill="none" xmlns="http://www.w3.org/2000/svg">
<path d="M29.373 22.8521C34.5936 17.6313 34.5935 9.13639 29.373 3.9156C24.1522 -1.3052 15.6573 -1.3052 10.4366 3.9156C6.00751 8.34473 5.33672 14.932 8.42247 20.0759C8.42247 20.0759 8.64412 20.4478 8.34476 20.7469C6.63695 22.4546 1.51321 27.5785 1.51321 27.5785C0.153449 28.9381 -0.170253 30.8394 1.03558 32.0454L1.24319 32.2528C2.44902 33.4589 4.35041 33.1353 5.71007 31.7755C5.71007 31.7755 10.823 26.6625 12.5273 24.9583C12.841 24.6446 13.2127 24.8663 13.2127 24.8663C18.3566 27.9519 24.9438 27.2812 29.373 22.8521ZM12.9087 20.38C9.05106 16.5223 9.05116 10.2456 12.9088 6.38796C16.7664 2.53043 23.0432 2.53032 26.9007 6.38796C30.7583 10.2455 30.7583 16.5223 26.9007 20.38C23.0431 24.2374 16.7664 24.2374 12.9087 20.38Z" fill="white"/>
<path d="M13.7629 12.5893C13.5833 12.5893 13.4008 12.554 13.2249 12.4797C12.5221 12.1823 12.1933 11.3714 12.4907 10.6685C14.3602 6.2505 19.4753 4.17721 23.8932 6.04671C24.596 6.34415 24.9248 7.15506 24.6273 7.85795C24.3298 8.56085 23.5191 8.88944 22.816 8.5921C19.8018 7.31664 16.3116 8.73126 15.0362 11.7455C14.8131 12.2726 14.3013 12.5893 13.7629 12.5893Z" fill="#96A7BA"/>
</svg>
