<svg width="19" height="32" viewBox="0 0 19 32" fill="none" xmlns="http://www.w3.org/2000/svg">
<path d="M9.14289 0C4.10154 0 0 4.03336 0 8.99201C0 10.3441 1.1149 11.4407 2.49 11.4407C3.86482 11.4407 4.97985 10.3441 4.97985 8.99201C4.97985 6.73435 6.84711 4.89716 9.14282 4.89716C11.4385 4.89716 13.3058 6.73435 13.3058 8.99201C13.3058 11.2497 11.4385 13.0858 9.14282 13.0858C7.76787 13.0858 6.65283 14.1823 6.65283 15.5344V21.0618C6.65283 22.4138 7.76787 23.5102 9.14282 23.5102C10.5178 23.5102 11.6327 22.4138 11.6327 21.0618V17.6439C15.4678 16.5756 18.2857 13.1015 18.2857 8.99194C18.2858 4.03336 14.1842 0 9.14289 0Z" fill="white"/>
<path d="M9.14281 25.4692C7.3396 25.4692 5.87744 26.9314 5.87744 28.7356C5.87744 30.5378 7.3396 31.9999 9.14281 31.9999C10.946 31.9999 12.4081 30.5378 12.4081 28.7356C12.4081 26.9314 10.946 25.4692 9.14281 25.4692Z" fill="#96A7BA"/>
</svg>
