<svg width="65" height="65" viewBox="0 0 65 65" fill="none" xmlns="http://www.w3.org/2000/svg">
<path d="M57.2875 45.0126C67.5709 34.729 67.5707 17.9963 57.2875 7.71269C47.004 -2.57089 30.2714 -2.57089 19.9881 7.71269C11.2638 16.4369 9.94255 29.412 16.0207 39.5442C16.0207 39.5442 16.4572 40.2767 15.8676 40.8659C12.5037 44.2296 2.41125 54.3223 2.41125 54.3223C-0.267122 57.0004 -0.904729 60.7454 1.47044 63.121L1.87938 63.5295C4.25455 65.9051 7.99978 65.2677 10.6779 62.5894C10.6779 62.5894 20.749 52.5181 24.106 49.1613C24.7239 48.5434 25.4562 48.98 25.4562 48.98C35.5882 55.0579 48.5633 53.7368 57.2875 45.0126ZM24.8573 40.1431C17.2588 32.5446 17.259 20.1811 24.8575 12.5826C32.456 4.98427 44.8195 4.98406 52.4179 12.5826C60.0164 20.1809 60.0164 32.5446 52.4179 40.1431C44.8193 47.7412 32.456 47.7412 24.8573 40.1431Z" fill="#C53838"/>
<path d="M26.5396 24.797C26.1859 24.797 25.8264 24.7274 25.4798 24.5811C24.0955 23.9952 23.4479 22.3979 24.0338 21.0134C27.7162 12.3112 37.7916 8.22734 46.4936 11.9098C47.878 12.4956 48.5256 14.0929 47.9397 15.4774C47.3536 16.8619 45.7568 17.5092 44.3718 16.9235C38.4347 14.4112 31.5598 17.1976 29.0477 23.1348C28.6082 24.1732 27.6002 24.797 26.5396 24.797Z" fill="#FFE9E9"/>
</svg>
