<svg width="30" height="30" viewBox="0 0 30 30" fill="none" xmlns="http://www.w3.org/2000/svg">
<path d="M17.933 26.0205H2.58872C2.38009 26.0205 2.1735 25.9796 1.98075 25.9002C1.78799 25.8208 1.61285 25.7044 1.46533 25.5577C1.3178 25.4109 1.20078 25.2367 1.12093 25.0449C1.04109 24.8532 1 24.6477 1 24.4402V1.57884C1.00039 1.15997 1.16795 0.75839 1.46585 0.46234C1.76375 0.166294 2.16762 -1.83614e-07 2.58872 0H22.2455C22.6668 0.000196054 23.0707 0.166756 23.3686 0.463082C23.6665 0.759404 23.834 1.16125 23.8342 1.58032V20.4716L17.933 26.0205Z" fill="#B7B7B7"/>
<path d="M21.9339 30H6.58885C6.38022 30 6.17361 29.9591 5.98085 29.8797C5.78813 29.8003 5.61297 29.6839 5.46544 29.5371C5.31791 29.3904 5.20089 29.2162 5.12104 29.0244C5.04121 28.8327 5.00012 28.6272 5.00012 28.4197V5.55832C5.00012 5.35081 5.04121 5.14532 5.12104 4.95356C5.20089 4.76184 5.31791 4.58764 5.46544 4.44088C5.61297 4.29413 5.78813 4.17772 5.98085 4.0983C6.17361 4.01888 6.38022 3.97803 6.58885 3.97803H26.2456C26.6669 3.97803 27.071 4.14452 27.369 4.44088C27.6669 4.73725 27.8343 5.1392 27.8343 5.55832V24.4511L21.9339 30Z" fill="#E2E2E2"/>
<path d="M21.9338 30L27.8343 24.4511H23.2972C22.9348 24.4511 22.5873 24.5943 22.331 24.8492C22.0748 25.1041 21.9308 25.4498 21.9308 25.8102L21.9338 30Z" fill="#B7B7B7"/>
<rect x="15" y="9" width="3" height="15" fill="#0F3B6D"/>
<path d="M15 15L18 18L9 18L9 15L15 15Z" fill="#A31010"/>
<rect x="24" y="15" width="3" height="6" transform="rotate(90 24 15)" fill="#A31010"/>
</svg>
