<svg width="30" height="30" viewBox="0 0 30 30" fill="none" xmlns="http://www.w3.org/2000/svg">
<rect y="7" width="30" height="4" rx="2" fill="black"/>
<rect y="13" width="30" height="4" rx="2" fill="black"/>
<rect y="19" width="30" height="4" rx="2" fill="black"/>
<path d="M14.4413 0.376301C14.779 0.148829 15.221 0.148828 15.5587 0.3763L20.0783 3.4206C20.8968 3.97197 20.5066 5.25 19.5196 5.25H10.4804C9.49343 5.25 9.10315 3.97197 9.92172 3.4206L14.4413 0.376301Z" fill="black"/>
<path d="M15.5587 29.6237C15.221 29.8512 14.779 29.8512 14.4413 29.6237L9.92172 26.5794C9.10315 26.028 9.49344 24.75 10.4804 24.75H19.5196C20.5066 24.75 20.8968 26.028 20.0783 26.5794L15.5587 29.6237Z" fill="black"/>
</svg>
