<svg width="30" height="30" viewBox="0 0 30 30" fill="none" xmlns="http://www.w3.org/2000/svg">
<path d="M17.933 26.0205H2.58872C2.38009 26.0205 2.1735 25.9796 1.98075 25.9002C1.78799 25.8208 1.61285 25.7044 1.46533 25.5577C1.3178 25.4109 1.20078 25.2367 1.12093 25.0449C1.04109 24.8532 1 24.6477 1 24.4402V1.57884C1.00039 1.15997 1.16795 0.75839 1.46585 0.46234C1.76375 0.166294 2.16762 -1.83614e-07 2.58872 0H22.2455C22.6668 0.000196054 23.0707 0.166756 23.3686 0.463082C23.6665 0.759404 23.834 1.16125 23.8342 1.58032V20.4716L17.933 26.0205Z" fill="#B7B7B7"/>
<path d="M21.9339 30H6.58885C6.38022 30 6.17361 29.9591 5.98085 29.8797C5.78813 29.8003 5.61297 29.6839 5.46544 29.5371C5.31791 29.3904 5.20089 29.2162 5.12104 29.0244C5.04121 28.8327 5.00012 28.6272 5.00012 28.4197V5.55832C5.00012 5.35081 5.04121 5.14532 5.12104 4.95356C5.20089 4.76184 5.31791 4.58764 5.46544 4.44088C5.61297 4.29413 5.78813 4.17772 5.98085 4.0983C6.17361 4.01888 6.38022 3.97803 6.58885 3.97803H26.2456C26.6669 3.97803 27.071 4.14452 27.369 4.44088C27.6669 4.73725 27.8343 5.1392 27.8343 5.55832V24.4511L21.9339 30Z" fill="#E2E2E2"/>
<path d="M21.9338 30L27.8343 24.4511H23.2972C22.9348 24.4511 22.5873 24.5943 22.331 24.8492C22.0748 25.1041 21.9308 25.4498 21.9308 25.8102L21.9338 30Z" fill="#B7B7B7"/>
<path fill-rule="evenodd" clip-rule="evenodd" d="M26.081 9.66999C26.3101 10.6434 26.3104 10.6433 26.3106 10.6433L26.3085 10.6438L26.2941 10.6473C26.2802 10.6506 26.258 10.6561 26.228 10.6636C26.1681 10.6786 26.0771 10.702 25.9596 10.7336C25.7243 10.7969 25.3839 10.8929 24.9738 11.0216C24.149 11.2803 23.0641 11.6642 21.9918 12.1688C20.9055 12.68 19.9111 13.2788 19.2095 13.9391C18.5062 14.6011 18.2398 15.1832 18.2398 15.6963C18.2398 17.3542 17.3529 18.6717 16.3261 19.638C15.2978 20.6059 13.9854 21.364 12.7651 21.9383C11.5306 22.5192 10.3089 22.9495 9.4037 23.2334C8.94879 23.3762 8.5683 23.4836 8.29899 23.5561C8.16422 23.5923 8.05696 23.6199 7.98177 23.6387C7.94417 23.6482 7.91456 23.6554 7.89351 23.6605L7.86841 23.6666L7.86081 23.6684L7.85826 23.669L7.85731 23.6692C7.85692 23.6693 7.85657 23.6694 7.51301 22.2093C7.62753 22.696 7.62767 22.696 7.62784 22.6959L7.62837 22.6958L7.63006 22.6954L7.63593 22.694L7.65749 22.6888C7.67614 22.6843 7.70328 22.6776 7.73834 22.6688C7.80846 22.6512 7.91029 22.6251 8.03931 22.5904C8.29728 22.521 8.66438 22.4173 9.10436 22.2793C9.98275 22.0037 11.1589 21.5889 12.3393 21.0334C13.515 20.4802 14.7213 19.7752 15.6408 18.9098C16.5597 18.045 17.2398 16.9726 17.2398 15.6963C17.2398 14.8016 17.713 13.9743 18.5241 13.2109C19.3347 12.4481 20.435 11.7962 21.566 11.2639C22.6923 10.7339 23.8229 10.3346 24.6745 10.0674C25.0995 9.93407 25.4533 9.83421 25.6999 9.76789C25.8232 9.73474 25.9196 9.71 25.9846 9.69368C26.0171 9.68552 26.0418 9.67946 26.0581 9.67551L26.0761 9.67117L26.0802 9.67018L26.081 9.66999ZM25.9665 9.18328C25.623 7.72315 25.6226 7.72324 25.6222 7.72333L25.6213 7.72355L25.6187 7.72416L25.6111 7.72597L25.586 7.73202C25.565 7.73713 25.5354 7.74441 25.4977 7.75384C25.4226 7.77271 25.3153 7.80026 25.1805 7.8365C24.9112 7.90892 24.5307 8.01641 24.0758 8.15912C23.1707 8.4431 21.9489 8.87338 20.7144 9.4543C19.4941 10.0286 18.1818 10.7867 17.1534 11.7545C16.1267 12.7209 15.2398 14.0383 15.2398 15.6963C15.2398 16.2093 14.9733 16.7915 14.27 17.4534C13.5684 18.1138 12.574 18.7126 11.4877 19.2238C10.4155 19.7284 9.33052 20.1122 8.50568 20.371C8.09558 20.4997 7.75522 20.5957 7.51995 20.659C7.40242 20.6906 7.31145 20.7139 7.25148 20.729C7.22151 20.7365 7.19931 20.7419 7.18544 20.7453L7.17097 20.7488L7.16891 20.7493C7.16913 20.7492 7.16938 20.7492 7.39847 21.7226L7.39848 21.7226L7.39931 21.7224L7.40345 21.7214L7.42146 21.7171C7.43772 21.7131 7.46239 21.707 7.49491 21.6989C7.55995 21.6826 7.65635 21.6578 7.77963 21.6247C8.02625 21.5584 8.37998 21.4585 8.80502 21.3252C9.65664 21.058 10.7872 20.6587 11.9135 20.1286C13.0445 19.5964 14.1448 18.9445 14.9554 18.1816C15.7665 17.4182 16.2398 16.591 16.2398 15.6963C16.2398 14.42 16.9198 13.3476 17.8388 12.4827C18.7582 11.6174 19.9646 10.9124 21.1402 10.3591C22.3206 9.80365 23.4968 9.38884 24.3752 9.11327C24.8151 8.97524 25.1822 8.87157 25.4402 8.8022C25.5692 8.7675 25.6711 8.74136 25.7412 8.72376C25.7762 8.71496 25.8034 8.7083 25.822 8.70377L25.8436 8.69857L25.8495 8.69717L25.8512 8.69677L25.8517 8.69665C25.8519 8.6966 25.852 8.69657 25.9665 9.18328Z" fill="#A31010"/>
<path fill-rule="evenodd" clip-rule="evenodd" d="M7.39847 9.66999C7.16938 10.6434 7.16913 10.6433 7.16891 10.6433L7.17097 10.6438L7.18544 10.6473C7.19931 10.6506 7.22151 10.6561 7.25148 10.6636C7.31145 10.6786 7.40242 10.702 7.51994 10.7336C7.75522 10.7969 8.09558 10.8929 8.50568 11.0216C9.33052 11.2803 10.4155 11.6642 11.4877 12.1688C12.574 12.68 13.5684 13.2788 14.27 13.9391C14.9733 14.6011 15.2398 15.1832 15.2398 15.6963C15.2398 17.3542 16.1267 18.6717 17.1534 19.638C18.1818 20.6059 19.4941 21.364 20.7144 21.9383C21.9489 22.5192 23.1707 22.9495 24.0758 23.2334C24.5307 23.3762 24.9112 23.4836 25.1805 23.5561C25.3153 23.5923 25.4226 23.6199 25.4977 23.6387C25.5354 23.6482 25.565 23.6554 25.586 23.6605L25.6111 23.6666L25.6187 23.6684L25.6213 23.669L25.6222 23.6692C25.6226 23.6693 25.623 23.6694 25.9665 22.2093C25.852 22.696 25.8519 22.696 25.8517 22.6959L25.8512 22.6958L25.8495 22.6954L25.8436 22.694L25.822 22.6888C25.8034 22.6843 25.7762 22.6776 25.7412 22.6688C25.6711 22.6512 25.5692 22.6251 25.4402 22.5904C25.1822 22.521 24.8151 22.4173 24.3752 22.2793C23.4968 22.0037 22.3206 21.5889 21.1402 21.0334C19.9646 20.4802 18.7582 19.7752 17.8388 18.9098C16.9198 18.045 16.2398 16.9726 16.2398 15.6963C16.2398 14.8016 15.7665 13.9743 14.9554 13.2109C14.1448 12.4481 13.0445 11.7962 11.9135 11.2639C10.7872 10.7339 9.65664 10.3346 8.80502 10.0674C8.37998 9.93407 8.02625 9.83421 7.77963 9.76789C7.65635 9.73474 7.55995 9.71 7.49491 9.69368C7.46239 9.68552 7.43772 9.67946 7.42146 9.67551L7.40345 9.67117L7.39931 9.67018L7.39848 9.66999L7.39847 9.66999ZM7.51301 9.18328C7.62753 8.69657 7.62767 8.6966 7.62784 8.69665L7.62837 8.69677L7.63006 8.69717L7.63593 8.69857L7.65749 8.70377C7.67614 8.7083 7.70328 8.71496 7.73834 8.72376C7.80846 8.74136 7.91029 8.7675 8.03931 8.8022C8.29727 8.87157 8.66438 8.97524 9.10436 9.11327C9.98275 9.38884 11.1589 9.80365 12.3393 10.3591C13.515 10.9124 14.7213 11.6174 15.6408 12.4827C16.5597 13.3476 17.2398 14.42 17.2398 15.6963C17.2398 16.591 17.713 17.4182 18.5241 18.1816C19.3347 18.9445 20.435 19.5964 21.566 20.1286C22.6923 20.6587 23.8229 21.058 24.6745 21.3252C25.0995 21.4585 25.4533 21.5584 25.6999 21.6247C25.8232 21.6578 25.9196 21.6826 25.9846 21.6989C26.0171 21.707 26.0418 21.7131 26.0581 21.7171L26.0761 21.7214L26.0802 21.7224L26.081 21.7226C26.3101 20.7492 26.3104 20.7492 26.3106 20.7493L26.3085 20.7488L26.2941 20.7453C26.2802 20.7419 26.258 20.7365 26.228 20.729C26.1681 20.7139 26.0771 20.6906 25.9596 20.659C25.7243 20.5957 25.3839 20.4997 24.9738 20.371C24.149 20.1122 23.0641 19.7284 21.9918 19.2238C20.9055 18.7126 19.9111 18.1138 19.2095 17.4534C18.5062 16.7915 18.2398 16.2093 18.2398 15.6963C18.2398 14.0383 17.3529 12.7209 16.3261 11.7545C15.2978 10.7867 13.9854 10.0286 12.7651 9.4543C11.5306 8.87338 10.3089 8.4431 9.4037 8.15912C8.94879 8.01641 8.5683 7.90892 8.29899 7.8365C8.16422 7.80026 8.05696 7.77271 7.98177 7.75384C7.94417 7.74441 7.91456 7.73713 7.89351 7.73202L7.86841 7.72597L7.86081 7.72416L7.85826 7.72355L7.85731 7.72333C7.85692 7.72324 7.85656 7.72315 7.51301 9.18328Z" fill="#0F3B6D"/>
<path d="M8.2305 16.6005H9.0005V14.158C9.0005 14.0847 9.003 14.0105 9.008 13.9355L8.368 14.483C8.35133 14.4963 8.33467 14.5063 8.318 14.513C8.30133 14.518 8.2855 14.5205 8.2705 14.5205C8.2455 14.5205 8.223 14.5155 8.203 14.5055C8.183 14.4938 8.168 14.4805 8.158 14.4655L8.018 14.273L9.083 13.3505H9.4455V16.6005H10.1505V16.9405H8.2305V16.6005ZM10.6334 16.6655C10.6334 16.6222 10.6409 16.5813 10.6559 16.543C10.6726 16.5047 10.6942 16.4713 10.7209 16.443C10.7492 16.4147 10.7826 16.3922 10.8209 16.3755C10.8592 16.3588 10.9001 16.3505 10.9434 16.3505C10.9867 16.3505 11.0276 16.3588 11.0659 16.3755C11.1042 16.3922 11.1376 16.4147 11.1659 16.443C11.1942 16.4713 11.2159 16.5047 11.2309 16.543C11.2476 16.5813 11.2559 16.6222 11.2559 16.6655C11.2559 16.7105 11.2476 16.7522 11.2309 16.7905C11.2159 16.8272 11.1942 16.8597 11.1659 16.888C11.1376 16.9163 11.1042 16.938 11.0659 16.953C11.0276 16.9697 10.9867 16.978 10.9434 16.978C10.9001 16.978 10.8592 16.9697 10.8209 16.953C10.7826 16.938 10.7492 16.9163 10.7209 16.888C10.6942 16.8597 10.6726 16.8272 10.6559 16.7905C10.6409 16.7522 10.6334 16.7105 10.6334 16.6655Z" fill="#9A9A9A"/>
<path d="M23.127 13.318C23.2787 13.318 23.4203 13.3405 23.552 13.3855C23.6837 13.4305 23.797 13.4963 23.892 13.583C23.9887 13.668 24.0645 13.7722 24.1195 13.8955C24.1745 14.0188 24.202 14.1588 24.202 14.3155C24.202 14.4488 24.182 14.5722 24.142 14.6855C24.102 14.7988 24.0478 14.908 23.9795 15.013C23.9112 15.1163 23.832 15.2172 23.742 15.3155C23.6537 15.4122 23.5595 15.5113 23.4595 15.613L22.517 16.578C22.5837 16.5597 22.6512 16.5455 22.7195 16.5355C22.7878 16.5238 22.8537 16.518 22.917 16.518H24.117C24.1653 16.518 24.2037 16.5322 24.232 16.5605C24.2603 16.5888 24.2745 16.6255 24.2745 16.6705V16.9405H21.8845V16.788C21.8845 16.7563 21.8903 16.7238 21.902 16.6905C21.9153 16.6572 21.9362 16.6263 21.9645 16.598L23.112 15.4455C23.207 15.3488 23.2937 15.2563 23.372 15.168C23.4503 15.078 23.517 14.988 23.572 14.898C23.6287 14.808 23.672 14.7172 23.702 14.6255C23.732 14.5322 23.747 14.433 23.747 14.328C23.747 14.223 23.7303 14.1313 23.697 14.053C23.6637 13.973 23.6178 13.9072 23.5595 13.8555C23.5012 13.8038 23.4328 13.7655 23.3545 13.7405C23.2762 13.7138 23.192 13.7005 23.102 13.7005C23.012 13.7005 22.9287 13.7138 22.852 13.7405C22.7753 13.7672 22.707 13.8047 22.647 13.853C22.5887 13.8997 22.5387 13.9555 22.497 14.0205C22.457 14.0855 22.4287 14.1572 22.412 14.2355C22.3987 14.2838 22.3787 14.3188 22.352 14.3405C22.3253 14.3622 22.2903 14.373 22.247 14.373C22.2387 14.373 22.2295 14.373 22.2195 14.373C22.2112 14.3713 22.2012 14.3697 22.1895 14.368L21.957 14.328C21.9803 14.1647 22.0253 14.0205 22.092 13.8955C22.1587 13.7688 22.2428 13.663 22.3445 13.578C22.4478 13.493 22.5653 13.4288 22.697 13.3855C22.8303 13.3405 22.9737 13.318 23.127 13.318ZM24.7449 16.6655C24.7449 16.6222 24.7524 16.5813 24.7674 16.543C24.7841 16.5047 24.8057 16.4713 24.8324 16.443C24.8607 16.4147 24.8941 16.3922 24.9324 16.3755C24.9707 16.3588 25.0116 16.3505 25.0549 16.3505C25.0982 16.3505 25.1391 16.3588 25.1774 16.3755C25.2157 16.3922 25.2491 16.4147 25.2774 16.443C25.3057 16.4713 25.3274 16.5047 25.3424 16.543C25.3591 16.5813 25.3674 16.6222 25.3674 16.6655C25.3674 16.7105 25.3591 16.7522 25.3424 16.7905C25.3274 16.8272 25.3057 16.8597 25.2774 16.888C25.2491 16.9163 25.2157 16.938 25.1774 16.953C25.1391 16.9697 25.0982 16.978 25.0549 16.978C25.0116 16.978 24.9707 16.9697 24.9324 16.953C24.8941 16.938 24.8607 16.9163 24.8324 16.888C24.8057 16.8597 24.7841 16.8272 24.7674 16.7905C24.7524 16.7522 24.7449 16.7105 24.7449 16.6655Z" fill="#9A9A9A"/>
</svg>
