<svg width="27" height="30" viewBox="0 0 27 30" fill="none" xmlns="http://www.w3.org/2000/svg">
<path d="M26.9997 8.50002V27.5114C26.9997 28.4655 26.2261 29.2387 25.2723 29.2387H6.0524C5.09824 29.2387 4.32504 28.4652 4.32504 27.5114V23.2445V1.72736C4.32504 0.773526 5.09824 0 6.0524 0H18.5C21.1864 0.0438581 26.9997 5.20157 26.9997 8.50002Z" fill="#E2E2E2"/>
<path d="M4.3491 7.10143H17.4308C18.4763 7.10143 19.3239 7.94903 19.3239 8.99448V14.953C19.3239 15.9984 18.4763 16.846 17.4308 16.846H1.89304C0.847598 16.846 0 15.9984 0 14.953V5.20839" fill="#A31010"/>
<path d="M0 5.20838C0 6.25383 0.847598 7.10143 1.89304 7.10143H4.3491V3.42807H1.89304C0.847598 3.42807 0 4.27567 0 5.32111" fill="#C53838"/>
<path d="M18.5 0H20.6643C21.5824 0 22.4628 0.364834 23.1119 1.01393L25.9861 3.8881C26.6352 4.5372 27 5.41761 27 6.3357V8.50002C27 7.38927 26.0994 6.48905 24.989 6.48905H22.4336C21.3719 6.48905 20.5113 5.62845 20.5113 4.56676V2.0113C20.511 0.900552 19.6107 0 18.5 0Z" fill="#B7B7B7"/>
<path d="M5.608 8.99252H3.82476C3.55544 8.99252 3.33745 9.21051 3.33745 9.47984V12.4362V14.4605C3.33745 14.7298 3.55544 14.9478 3.82476 14.9478C4.09408 14.9478 4.31207 14.7298 4.31207 14.4605V12.9235H5.608C6.34611 12.9235 6.94713 12.3228 6.94713 11.5847V10.3313C6.9468 9.59322 6.34611 8.99252 5.608 8.99252ZM5.97218 11.5847C5.97218 11.7855 5.80877 11.9489 5.60767 11.9489H4.31175V9.96715H5.60767C5.80877 9.96715 5.97218 10.1306 5.97218 10.3313V11.5847Z" fill="white"/>
<path d="M10.1062 8.99252H8.41036C8.14104 8.99252 7.92305 9.21051 7.92305 9.47983V14.4608C7.92305 14.7301 8.14104 14.9481 8.41036 14.9481H10.1062C10.8927 14.9481 11.5327 14.3081 11.5327 13.5216V10.419C11.5327 9.63253 10.8931 8.99252 10.1062 8.99252ZM10.5581 13.5216C10.5581 13.7708 10.3554 13.9735 10.1062 13.9735H8.89767V9.96715H10.1062C10.3554 9.96715 10.5581 10.1699 10.5581 10.419V13.5216Z" fill="white"/>
<path d="M15.7223 8.99252H13.0876C12.8182 8.99252 12.6003 9.21051 12.6003 9.47983V14.4608C12.6003 14.7301 12.8182 14.9481 13.0876 14.9481C13.3569 14.9481 13.5749 14.7301 13.5749 14.4608V12.4576H14.8133C15.0823 12.4576 15.3006 12.2396 15.3006 11.9703C15.3006 11.701 15.0823 11.483 14.8133 11.483H13.5745V9.96715H15.722C15.991 9.96715 16.2093 9.74916 16.2093 9.47983C16.2093 9.21051 15.9913 8.99252 15.7223 8.99252Z" fill="white"/>
<path d="M13.546 23.4621C13.3553 23.2717 13.047 23.2717 12.8566 23.4621L11.1516 25.1671V20.0854C11.1516 19.8164 10.9336 19.5981 10.6643 19.5981C10.395 19.5981 10.177 19.8164 10.177 20.0854V25.1671L8.47207 23.4621C8.28169 23.2717 7.97339 23.2717 7.78301 23.4621C7.59263 23.6525 7.59263 23.9608 7.78301 24.1512L9.83719 26.2054C10.0402 26.4084 10.2998 26.5156 10.5659 26.538C10.5977 26.5445 10.6309 26.5481 10.6646 26.5481C10.6984 26.5481 10.7316 26.5445 10.7634 26.538C11.0292 26.5156 11.2891 26.4084 11.4921 26.2054L13.5463 24.1512C13.736 23.9608 13.736 23.6525 13.546 23.4621Z" fill="#0F3B6D"/>
</svg>
