<svg id="Layer_1" data-name="Layer 1" xmlns="http://www.w3.org/2000/svg" viewBox="0 0 1080 1080"><defs><style>.cls-1{fill:#406188;}.cls-2{fill:none;stroke:#fff;stroke-linecap:round;stroke-miterlimit:10;stroke-width:106px;}.cls-3{fill:#fff;}</style></defs><title>questao_dissertativa</title><rect class="cls-1" width="1080" height="1080" rx="200"/><line class="cls-2" x1="240" y1="191" x2="841" y2="191"/><line class="cls-2" x1="240" y1="405" x2="841" y2="405"/><line class="cls-2" x1="240" y1="634" x2="841" y2="634"/><line class="cls-2" x1="240" y1="863" x2="841" y2="863"/><path class="cls-3" d="M345.62,466.44c0,1.18-.83,2-2.46,2.46q-3,.78-18.31.79-14.09,0-18.12-.79a5.31,5.31,0,0,1-4.23-4.43q-3.35-14.18-5.22-15.16-1.57-.69-26.38-.69-16.74,0-17.82.89-1.67,1.58-3.74,10.53-1.86,8.18-4.52,8.86-3.34.78-22.45.79-15.06,0-15.06-2.86,0-2.56,22.25-62.9,24.12-65.26,26.18-71.76c.79-2.5,1.71-3.74,2.76-3.74q2.65,0,8.22.49t8.32.49q2.65,0,7.82-.34c3.45-.23,6-.35,7.73-.35,1.25,0,2.39,1.09,3.44,3.25q4.83,10.33,28.16,70.88Q345.62,463.78,345.62,466.44Zm-69.8-89.68q-2.06,4.33-7,18.8-5.31,15.36-5.31,18,0,1.77,5.91,2c2,.14,5.38.2,10,.2q6.5,0,7.18-1.57a3.87,3.87,0,0,0,.2-1.38q0-3.26-4.53-17.92Q277.9,380.7,275.82,376.76Z"/><path class="cls-3" d="M340.18,654.8q0,20.19-12.63,33.48-14.37,15.26-50.49,15.26-2.74,0-7.91-.11h-7.79q-40.52,0-48.19-1.65-3.19-.66-3.19-3.4,0-11.75,1.38-35.57t1.37-35.68q0-12.74-1.32-47.86-.33-9-1.21-27l-.11-1.54q-.1-2.09,3.46-2.53t25.41-.44q35,0,41,.22,27,1,39.85,8.79,17,10.43,17,35.23a28.75,28.75,0,0,1-4,13.73,57.09,57.09,0,0,1-7.46,10.32q-4.07,4.5-4.06,4.17c0,.51.95,1.31,2.85,2.41q7.68,4.39,12.08,13.94A43.07,43.07,0,0,1,340.18,654.8ZM293,593q0-9.43-9.44-12.51-5.26-1.65-17.34-1.65-11.87,0-11.86,1.76,0,2.08-.38,6.31t-.39,6.31q0,11,1.87,12.3,1.21,1,13.94,1Q293,606.49,293,593Zm3.3,61.37q0-9.89-8.24-13.4-5.26-2.19-17.12-2.19-14.16,0-15.37,1t-1.21,13.45q0,13,1.43,14.33T271.57,669q11.85,0,16.68-1.87Q296.26,663.91,296.27,654.36Z"/><path class="cls-3" d="M338.76,906.9c0,1.25-.82,2.88-2.46,4.91q-21.53,25.63-57.22,25.63-36.51,0-59.21-24.93-22.11-24.1-22.11-60.84,0-35.58,21.64-60.38,22.59-26,57.46-26,37.9,0,59.44,23.28,2.34,2.58,2.34,4.57,0,2.22-8.13,16.5t-10.24,16a3.19,3.19,0,0,1-2.34.93q-.58,0-5.85-4.68a61.74,61.74,0,0,0-12.4-8.77,42,42,0,0,0-19.19-4.68q-17.21,0-27.5,12.87-9.48,11.94-9.48,29.49,0,17.77,9.48,29.84,10.29,13.09,27.5,13.1a43.43,43.43,0,0,0,19.3-4.45A59.33,59.33,0,0,0,312,881.15c3.44-3,5.34-4.44,5.74-4.44A3.3,3.3,0,0,1,320,878q1.86,2.12,10.18,14.63Q338.76,905.61,338.76,906.9Z"/><rect class="cls-1" width="1080" height="1080" rx="200"/><line class="cls-2" x1="240" y1="191" x2="841" y2="191"/><line class="cls-2" x1="240" y1="405" x2="841" y2="405"/><line class="cls-2" x1="240" y1="634" x2="841" y2="634"/><line class="cls-2" x1="240" y1="863" x2="841" y2="863"/></svg>