<svg id="Layer_1" data-name="Layer 1" xmlns="http://www.w3.org/2000/svg" viewBox="0 0 1080 1080"><defs><style>.cls-1{fill:#406188;}.cls-2{fill:none;stroke:#fff;stroke-linecap:round;stroke-miterlimit:10;stroke-width:106px;}.cls-3{fill:#fff;}</style></defs><title>Untitled-1</title><rect class="cls-1" width="1080" height="1080" rx="200"/><line class="cls-2" x1="240" y1="191" x2="841" y2="191"/><line class="cls-2" x1="240" y1="405" x2="841" y2="405"/><line class="cls-2" x1="510" y1="634" x2="841" y2="634"/><line class="cls-2" x1="510" y1="863" x2="841" y2="863"/><path class="cls-3" d="M287.07,703.36q-16.69,0-19-.49t-4-3.59Q250,671.47,235.76,643.53q-22.37-44.88-22.37-50.81,0-9.76.68-29.36t.68-29.36q0-4.57,2.47-4.58,7.41,0,22.5.62t22.62.62c2.06,0,3.09.86,3.09,2.6q0,10-1.42,30.1t-1.42,30.1q0,7.66,25.1,54.76,6.8-12.22,15.45-30,11.61-24,11.62-29.42,0-9-.25-27.13t-.25-27.14c0-2.22.38-3.46,1.12-3.71h3.95q6.81,0,20.59-.68t20.58-.68q3.71,0,3.71,3,0,9.52-.31,28.74T363.59,590q0,7.66-24.35,56.37-9.64,17.55-27.82,52.91a11.16,11.16,0,0,1-1.67,3,9.88,9.88,0,0,1-3.15.56Q300.3,703.35,287.07,703.36Z"/><path class="cls-3" d="M349.82,817.28c0,1-.87,1.43-2.61,1.43q-9.76,0-29.63-1.69t-29.76-1.7q-12.51,0-14.59.92-4.83,2.21-4.82,12.5,0,12.38,6.25,14.07a35.75,35.75,0,0,0,7.94.65q9,0,26.9-1t26.9-1q4.29,0,4.3,22.92,0,19.92-1.44,23.18a3.44,3.44,0,0,1-3.51,2.35q1.69,0-8.21-.91-13.94-1.31-42.2-1.31-9.12,0-10.29.14-6.65,1-6.64,5.6,0,18.49,1.56,42.59,1.3,21.75,1.3,19.41c0,2.25-2.73,3.56-8.2,3.9q2.21-.12-11.6-.13-24.34,0-31.39-1.69c-2.52-.61-3.77-1.95-3.77-4q0-14.46,1-43.44t1-43.44q0-17.19-1.56-43.24-2.35-40.24-2.48-43.25l-.13-1.56c-.09-2.17,1.22-3.25,3.91-3.25q9.63,0,29.11.39t29.24.39q10.42,0,31.33-1.57T339,773q6.53,0,7.3,5.34,0,5.61.52,16.8c.17,1.92.74,5.6,1.69,11.08A66.46,66.46,0,0,1,349.82,817.28Z"/></svg>