<svg width="500" height="500" viewBox="0 0 500 500" fill="none" xmlns="http://www.w3.org/2000/svg">
<g id="teste 1">
<g id="chao">
<path id="oval" d="M257.17 429.79C380.451 429.79 480.39 376.4 480.39 310.54C480.39 244.68 380.451 191.29 257.17 191.29C133.889 191.29 33.95 244.68 33.95 310.54C33.95 376.4 133.889 429.79 257.17 429.79Z" fill="#D7D7D7"/>
</g>
<g id="sombra">
<path id="Union" opacity="0.1" fill-rule="evenodd" clip-rule="evenodd" d="M109.009 343.005L167.34 376.92L216.55 265.97L126.688 317.903L108.5 307.41C107.897 307.104 107.231 306.945 106.555 306.945C105.879 306.945 105.213 307.104 104.61 307.41L64.61 330.75C64.3759 330.831 64.1728 330.983 64.029 331.184C63.8852 331.386 63.8079 331.627 63.8079 331.875C63.8079 332.123 63.8852 332.364 64.029 332.566C64.1728 332.767 64.3759 332.919 64.61 333L93.61 349.72C94.2128 350.026 94.8791 350.185 95.555 350.185C96.2309 350.185 96.8972 350.026 97.5 349.72L109.009 343.005Z" fill="black"/>
</g>
<g id="planta">
<path id="Vector" d="M68.9182 331.592C66.9182 328.372 60.7482 324.832 52.6482 323.082C44.5482 321.332 36.4082 319.192 38.2682 314.462C40.2682 309.392 47.8082 309.142 55.1782 312.162C63.2282 315.462 69.1782 323.622 69.2882 328.762L68.9182 331.592Z" fill="#C53F3F"/>
<path id="Vector_2" opacity="0.1" d="M68.9182 331.592C66.9182 328.372 60.7482 324.832 52.6482 323.082C44.5482 321.332 36.4082 319.192 38.2682 314.462C40.2682 309.392 47.8082 309.142 55.1782 312.162C63.2282 315.462 69.1782 323.622 69.2882 328.762L68.9182 331.592Z" fill="black"/>
<path id="Vector_3" d="M69.5481 330.131C69.4342 330.13 69.3229 330.097 69.2273 330.035C69.1316 329.973 69.0556 329.885 69.0081 329.781C62.5781 316.481 47.6682 314.331 43.0082 315.061C42.8492 315.084 42.6875 315.044 42.5583 314.948C42.4291 314.853 42.3428 314.71 42.3182 314.551C42.3053 314.473 42.3081 314.393 42.3264 314.316C42.3446 314.239 42.3779 314.166 42.4244 314.102C42.4709 314.038 42.5296 313.984 42.5972 313.943C42.6648 313.901 42.7399 313.874 42.8182 313.862C47.7582 313.102 63.4082 315.332 70.1382 329.262C70.2074 329.406 70.2168 329.572 70.1644 329.724C70.112 329.876 70.0019 330 69.8582 330.071C69.7612 330.116 69.6548 330.137 69.5481 330.131Z" fill="white"/>
<path id="Vector_4" d="M68.9181 331.591C68.9181 331.591 65.0481 316.261 55.2381 308.021C52.3281 305.571 49.2381 302.502 47.0481 300.392C42.3881 295.852 44.3381 290.901 50.7881 291.001C60.3881 291.131 67.4081 299.211 70.4481 309.781C73.4881 320.351 68.9181 331.591 68.9181 331.591Z" fill="#C53F3F"/>
<path id="Vector_5" d="M70.4482 325.642C70.2963 325.642 70.1495 325.586 70.0367 325.485C69.9239 325.383 69.8531 325.243 69.8382 325.091C68.0382 305.591 53.1582 295.792 49.1082 294.752C48.953 294.712 48.82 294.612 48.7384 294.474C48.6569 294.336 48.6334 294.172 48.6732 294.017C48.7129 293.861 48.8127 293.728 48.9506 293.647C49.0884 293.565 49.253 293.542 49.4082 293.582C54.3282 294.842 69.1982 305.012 71.0482 324.982C71.0621 325.142 71.0121 325.301 70.9091 325.425C70.806 325.548 70.6584 325.626 70.4982 325.642H70.4482Z" fill="white"/>
</g>
<g id="armario">
<g id="baixo">
<path id="Vector_6" d="M94.59 347.26L67.27 331.48L67.26 272.88L94.59 288.66V347.26Z" fill="#263238"/>
<path id="Vector_7" d="M94.59 288.66L133.63 266.12V324.72L94.59 347.26V288.66Z" fill="#37474F"/>
<path id="Vector_8" d="M133.63 266.12L94.59 288.66L67.26 272.88L106.31 250.34L133.63 266.12Z" fill="#455A64"/>
<path id="Vector_9" d="M111.46 287.94L116.77 284.87C117.46 284.47 118.02 284.65 118.02 285.28C117.969 285.663 117.83 286.029 117.613 286.348C117.396 286.667 117.107 286.932 116.77 287.12L111.46 290.19C110.77 290.59 110.21 290.41 110.21 289.78C110.261 289.397 110.4 289.031 110.617 288.712C110.834 288.393 111.123 288.128 111.46 287.94Z" fill="#263238"/>
<path id="Vector_10" d="M97.78 318.38L129.01 300.35L129.73 300.76L129.01 322.05L129.73 322.47L98.5 340.5L97.78 340.08V318.38Z" fill="#263238"/>
<path id="Vector_11" d="M98.5 318.79L129.73 300.76V322.47L98.5 340.5V318.79Z" fill="#455A64"/>
<path id="Vector_12" d="M110.74 315.4L116.05 312.34C116.74 311.94 117.3 312.12 117.3 312.74C117.25 313.124 117.111 313.492 116.894 313.813C116.677 314.134 116.388 314.4 116.05 314.59L110.74 317.66C110.05 318.06 109.49 317.87 109.49 317.25C109.541 316.866 109.681 316.499 109.898 316.178C110.115 315.857 110.403 315.591 110.74 315.4Z" fill="#263238"/>
<path id="Vector_13" d="M97.78 291.38L129.01 273.35L129.73 273.76L129.01 295.05L129.73 295.47L98.5 313.5L97.78 313.08V291.38Z" fill="#263238"/>
<path id="Vector_14" d="M98.5 291.79L129.73 273.76V295.47L98.5 313.5V291.79Z" fill="#455A64"/>
<path id="Vector_15" d="M110.74 288.4L116.05 285.34C116.74 284.94 117.3 285.12 117.3 285.74C117.25 286.124 117.111 286.492 116.894 286.813C116.677 287.134 116.388 287.4 116.05 287.59L110.74 290.66C110.05 291.06 109.49 290.87 109.49 290.25C109.541 289.866 109.681 289.499 109.898 289.178C110.115 288.857 110.403 288.591 110.74 288.4V288.4Z" fill="#263238"/>
</g>
<g id="cima">
<path id="Vector_16" d="M94.59 286.17L67.27 270.39L67.26 211.78L94.59 227.56V286.17Z" fill="#263238"/>
<path id="Vector_17" d="M94.59 227.56L133.63 205.02V263.63L94.59 286.17V227.56Z" fill="#37474F"/>
<path id="Vector_18" d="M133.63 205.02L94.59 227.56L67.26 211.78L106.31 189.24L133.63 205.02Z" fill="#455A64"/>
<path id="Vector_19" d="M98.5 229.81L129.73 211.78L130.45 212.2V233.9L99.22 251.94L98.5 251.52V229.81Z" fill="#263238"/>
<path id="Vector_20" d="M111.46 226.84L116.77 223.77C117.46 223.37 118.02 223.56 118.02 224.18C117.969 224.564 117.829 224.931 117.612 225.252C117.395 225.573 117.107 225.839 116.77 226.03L111.46 229.09C110.77 229.49 110.21 229.31 110.21 228.69C110.26 228.306 110.399 227.938 110.616 227.617C110.833 227.296 111.122 227.03 111.46 226.84V226.84Z" fill="#263238"/>
<path id="Vector_21" d="M97.78 257.28L129.01 239.25V260.96L129.73 261.37L98.5 279.4L97.78 278.99V257.28Z" fill="#263238"/>
<path id="Vector_22" d="M98.5 257.7L129.73 239.66V261.37L98.5 279.4V257.7Z" fill="#455A64"/>
<path id="Vector_23" d="M110.74 254.31L116.05 251.24C116.74 250.84 117.3 251.02 117.3 251.65C117.249 252.033 117.11 252.399 116.893 252.718C116.676 253.037 116.387 253.302 116.05 253.49L110.74 256.56C110.05 256.96 109.49 256.78 109.49 256.15C109.541 255.767 109.68 255.401 109.897 255.082C110.114 254.763 110.403 254.498 110.74 254.31V254.31Z" fill="#263238"/>
<path id="Vector_24" d="M98.5 229.81L129.73 211.78V233.49L98.5 251.52V229.81Z" fill="#263238"/>
<path id="Vector_25" d="M145.35 222.5L128.25 212.64V231.76L145.35 241.63V222.5Z" fill="#263238"/>
<g id="arquivo">
<path id="Vector_26" d="M110.21 254.61V227.56L116.91 223.68L118.02 225.31L137.54 214.03V238.83L110.21 254.61Z" fill="#C53F3F"/>
<path id="Vector_27" opacity="0.2" d="M110.21 254.61V227.56L116.91 223.68L118.02 225.31L137.54 214.03V238.83L110.21 254.61Z" fill="black"/>
<path id="Vector_28" d="M110.21 254.61L112.16 230.94L139.49 215.16L137.54 238.83L110.21 254.61Z" fill="#C53F3F"/>
</g>
<path id="Vector_29" d="M114.11 240.54L99.21 231.94V251.06L114.11 259.66V240.54Z" fill="#37474F"/>
<path id="Vector_30" d="M114.11 238.83L145.35 220.8V242.5L114.11 260.54V238.83Z" fill="#455A64"/>
<path id="Vector_31" d="M126.36 235.44L131.67 232.37C132.36 231.97 132.92 232.16 132.92 232.78C132.869 233.164 132.729 233.531 132.512 233.852C132.295 234.173 132.007 234.439 131.67 234.63L126.36 237.69C125.67 238.09 125.11 237.91 125.11 237.29C125.161 236.906 125.301 236.539 125.518 236.218C125.735 235.897 126.023 235.631 126.36 235.44V235.44Z" fill="#263238"/>
<path id="Vector_32" d="M114.11 238.83L113.07 238.23V259.94L114.11 260.54V238.83Z" fill="#263238"/>
<path id="Vector_33" d="M113.07 238.23L144.31 220.2L145.35 220.8L114.11 238.83L113.07 238.23Z" fill="#37474F"/>
</g>
</g>
<g id="aba">
<path id="Vector_34" d="M375 82.3L370.94 79.94L163.75 199.54V372.77C163.695 373.306 163.782 373.848 164.003 374.339C164.225 374.831 164.572 375.256 165.01 375.57L169.07 377.93C169.562 378.156 170.106 378.248 170.646 378.195C171.185 378.142 171.701 377.947 172.14 377.63L370.64 263C371.9 262.178 372.949 261.07 373.701 259.767C374.453 258.464 374.888 257.002 374.97 255.5L375 82.3Z" fill="#E6E6E6"/>
<path id="Vector_35" d="M167.81 375.13C167.81 377.89 169.74 379.01 172.14 377.63L370.64 263C371.9 262.178 372.949 261.07 373.701 259.767C374.453 258.464 374.888 257.002 374.97 255.5V82.3L167.81 201.91V375.13Z" fill="#FAFAFA"/>
<path id="Vector_36" d="M374 84V255.52C373.918 256.847 373.529 258.138 372.865 259.29C372.2 260.442 371.278 261.424 370.17 262.16L171.67 376.76C171.237 377.034 170.741 377.192 170.23 377.22C168.97 377.22 168.84 375.76 168.84 375.13V202.48L374 84ZM375 82.27L167.81 201.91V375.13C167.81 377.13 168.81 378.22 170.2 378.22C170.887 378.193 171.555 377.99 172.14 377.63L370.64 263C371.9 262.178 372.949 261.07 373.701 259.767C374.453 258.464 374.888 257.002 374.97 255.5V82.3L375 82.27Z" fill="#E0E0E0"/>
<path id="Vector_37" d="M167.81 201.91V220.66L374.97 101.05V82.3L167.81 201.91Z" fill="#C53F3F"/>
<path id="Vector_38" d="M297.79 134.21V138.21C297.79 139.03 298.38 139.37 299.09 138.96L362.78 102.18V95.18L299.09 132C298.718 132.244 298.408 132.57 298.183 132.954C297.957 133.337 297.823 133.767 297.79 134.21V134.21Z" fill="#FAFAFA"/>
<path id="Vector_39" d="M369.61 91.25C370.33 90.83 370.91 91.17 370.91 92V96C370.886 96.4511 370.756 96.8901 370.53 97.2812C370.304 97.6723 369.989 98.0043 369.61 98.25L362.78 102.19V95.19L369.61 91.25Z" fill="#455A64"/>
<path id="Vector_40" d="M369.11 96.78L368.34 96.54C368.425 96.2134 368.468 95.8774 368.47 95.54C368.504 95.2324 368.458 94.9212 368.335 94.6372C368.212 94.3531 368.017 94.1059 367.77 93.92C367.602 93.8206 367.41 93.7681 367.215 93.7681C367.02 93.7681 366.828 93.8206 366.66 93.92C366.176 94.292 365.786 94.7728 365.521 95.3235C365.257 95.8742 365.127 96.4794 365.14 97.09C365.104 97.3978 365.149 97.7096 365.272 97.9941C365.395 98.2785 365.591 98.5255 365.84 98.71C365.984 98.7981 366.151 98.8432 366.32 98.84C366.539 98.8353 366.753 98.7733 366.94 98.66C367.523 98.2627 367.956 97.6819 368.17 97.01L368.94 97.25H369C369.059 97.251 369.117 97.2332 369.166 97.199C369.215 97.1649 369.251 97.1162 369.27 97.06C369.274 97.0027 369.261 96.9456 369.233 96.8957C369.204 96.8459 369.161 96.8056 369.11 96.78V96.78ZM366.66 98.24C366.584 98.2983 366.493 98.3339 366.397 98.3427C366.302 98.3516 366.206 98.3333 366.12 98.29C365.965 98.1491 365.847 97.9726 365.775 97.7757C365.704 97.5788 365.681 97.3675 365.71 97.16C365.7 96.6495 365.805 96.1433 366.018 95.6793C366.231 95.2152 366.546 94.8053 366.94 94.48C367.046 94.4145 367.166 94.3767 367.29 94.37C367.361 94.3698 367.431 94.3907 367.49 94.43C367.643 94.5725 367.76 94.7492 367.831 94.9456C367.902 95.1421 367.926 95.3526 367.9 95.56C367.908 96.0712 367.801 96.5777 367.586 97.0417C367.371 97.5057 367.055 97.9153 366.66 98.24V98.24Z" fill="#FAFAFA"/>
<path id="Vector_41" d="M369.68 68.09C369.187 67.8487 368.637 67.7471 368.091 67.7965C367.544 67.8459 367.022 68.0442 366.58 68.37L168.08 183C166.818 183.821 165.768 184.928 165.016 186.231C164.264 187.534 163.83 188.997 163.75 190.5V199.57L167.81 201.94L375 82.3V73.23C375.061 72.6956 374.977 72.1547 374.757 71.6638C374.537 71.173 374.189 70.7503 373.75 70.44C373 70 370.39 68.52 369.68 68.09Z" fill="#263238"/>
<path id="Vector_42" d="M167.81 192.84C167.888 191.337 168.321 189.873 169.074 188.57C169.826 187.266 170.877 186.159 172.14 185.34L370.64 70.73C373.03 69.35 374.97 70.47 374.97 73.23V82.3L167.81 201.91V192.84Z" fill="#37474F"/>
<path id="Vector_43" d="M373.76 70.46C373.266 70.2133 372.713 70.1079 372.162 70.1556C371.611 70.2032 371.085 70.402 370.64 70.73L172.14 185.33C170.861 186.128 169.808 187.24 169.08 188.56L165 186.21C165.731 184.887 166.788 183.771 168.07 182.97L366.58 68.36C367.023 68.0358 367.546 67.8393 368.092 67.7917C368.639 67.744 369.188 67.8472 369.68 68.09C370.39 68.52 372.99 70.01 373.68 70.43L373.76 70.46Z" fill="#455A64"/>
<path id="Vector_44" d="M350.6 87C350.014 87.3891 349.528 87.9104 349.181 88.5218C348.833 89.1332 348.634 89.8176 348.6 90.52C348.6 91.81 349.51 92.34 350.6 91.69C351.186 91.3009 351.672 90.7796 352.019 90.1682C352.367 89.5568 352.566 88.8724 352.6 88.17C352.63 86.86 351.72 86.33 350.6 87Z" fill="#C53F3F"/>
<path id="Vector_45" d="M357.71 82.89C357.125 83.277 356.638 83.7964 356.291 84.4062C355.943 85.016 355.744 85.699 355.71 86.4C355.71 87.7 356.62 88.22 357.71 87.58C358.295 87.1897 358.78 86.6682 359.127 86.057C359.474 85.4459 359.674 84.762 359.71 84.06C359.74 82.76 358.83 82.24 357.71 82.89Z" fill="#C53F3F"/>
<path id="Vector_46" d="M364.81 78.79C364.224 79.1791 363.738 79.7004 363.391 80.3118C363.043 80.9232 362.844 81.6076 362.81 82.31C362.81 83.61 363.72 84.13 364.81 83.48C365.397 83.0926 365.885 82.5718 366.232 81.96C366.58 81.3482 366.778 80.6629 366.81 79.96C366.85 78.67 365.94 78.14 364.81 78.79Z" fill="#C53F3F"/>
<path id="Vector_47" d="M172.14 377.63L208.43 356.68V197.2L167.81 220.66V375.13C167.81 377.89 169.74 379 172.14 377.63Z" fill="#F5F5F5"/>
<path id="Vector_48" d="M207.43 198.93V356.1L171.64 376.76C171.207 377.034 170.711 377.192 170.2 377.22C168.94 377.22 168.81 375.76 168.81 375.13V221.23L207.43 198.93V198.93ZM208.43 197.2L167.81 220.66V375.13C167.81 377.13 168.81 378.22 170.2 378.22C170.887 378.193 171.555 377.99 172.14 377.63L208.43 356.68V197.2V197.2Z" fill="#E0E0E0"/>
<path id="Vector_49" d="M181.29 222.25L200.73 211C201.44 210.58 202.02 210.92 202.02 211.75V213.44C201.995 213.89 201.866 214.327 201.642 214.718C201.418 215.108 201.105 215.441 200.73 215.69L181.29 226.92C180.57 227.34 179.99 227 179.99 226.17V224.5C180.017 224.05 180.148 223.612 180.374 223.221C180.6 222.831 180.913 222.498 181.29 222.25V222.25Z" fill="#E0E0E0"/>
<path id="Vector_50" d="M175.93 226.85V228.54C175.906 228.991 175.775 229.43 175.549 229.821C175.323 230.212 175.008 230.544 174.63 230.79L173.17 231.63C172.45 232.05 171.87 231.71 171.87 230.88V229.19C171.894 228.739 172.025 228.3 172.251 227.909C172.477 227.518 172.792 227.186 173.17 226.94L174.63 226.1C175.35 225.68 175.93 226 175.93 226.85Z" fill="#C53F3F"/>
<path id="Vector_51" d="M181.29 231.6L200.73 220.37C201.44 219.95 202.02 220.29 202.02 221.11V222.8C201.995 223.251 201.866 223.69 201.642 224.082C201.418 224.474 201.106 224.809 200.73 225.06L181.29 236.29C180.57 236.7 179.99 236.37 179.99 235.54V233.85C180.015 233.399 180.146 232.961 180.372 232.57C180.598 232.179 180.912 231.847 181.29 231.6V231.6Z" fill="#E0E0E0"/>
<path id="Vector_52" d="M175.93 236.19V237.88C175.906 238.331 175.776 238.77 175.55 239.161C175.324 239.552 175.009 239.884 174.63 240.13L173.17 240.98C172.45 241.39 171.87 241.06 171.87 240.23V238.54C171.894 238.089 172.024 237.65 172.25 237.259C172.476 236.868 172.791 236.536 173.17 236.29L174.63 235.44C175.35 235 175.93 235.36 175.93 236.19Z" fill="#C53F3F"/>
<path id="Vector_53" d="M181.29 240.94L200.73 229.71C201.44 229.3 202.02 229.63 202.02 230.46V232.15C201.997 232.6 201.868 233.038 201.644 233.429C201.42 233.82 201.107 234.153 200.73 234.4L181.29 245.63C180.57 246.05 179.99 245.71 179.99 244.89V243.19C180.018 242.74 180.149 242.302 180.375 241.912C180.601 241.521 180.914 241.189 181.29 240.94V240.94Z" fill="#E0E0E0"/>
<path id="Vector_54" d="M175.93 245.54V247.23C175.906 247.681 175.776 248.12 175.55 248.511C175.324 248.902 175.009 249.234 174.63 249.48L173.17 250.33C172.45 250.74 171.87 250.4 171.87 249.58V247.88C171.896 247.43 172.027 246.991 172.253 246.601C172.479 246.21 172.793 245.878 173.17 245.63L174.63 244.79C175.35 244.38 175.93 244.71 175.93 245.54Z" fill="#C53F3F"/>
<path id="Vector_55" d="M181.29 271.94L200.73 260.7C201.44 260.29 202.02 260.62 202.02 261.45V263.14C201.997 263.59 201.868 264.028 201.644 264.419C201.42 264.81 201.107 265.143 200.73 265.39L181.29 276.63C180.57 277.04 179.99 276.71 179.99 275.88V274.19C180.015 273.739 180.146 273.301 180.372 272.91C180.598 272.519 180.912 272.187 181.29 271.94V271.94Z" fill="#E0E0E0"/>
<path id="Vector_56" d="M175.93 276.53V278.22C175.906 278.671 175.776 279.11 175.55 279.501C175.324 279.892 175.009 280.224 174.63 280.47L173.17 281.32C172.45 281.73 171.87 281.4 171.87 280.57V278.88C171.894 278.429 172.024 277.99 172.25 277.599C172.476 277.208 172.791 276.876 173.17 276.63L174.63 275.78C175.35 275.37 175.93 275.7 175.93 276.53Z" fill="#C53F3F"/>
<path id="Vector_57" d="M181.29 280.21L200.73 269C201.44 268.59 202.02 268.92 202.02 269.75V271.44C201.997 271.89 201.868 272.328 201.644 272.719C201.42 273.11 201.107 273.443 200.73 273.69L181.29 284.9C180.57 285.32 179.99 284.98 179.99 284.15V282.46C180.018 282.01 180.149 281.572 180.375 281.182C180.601 280.791 180.914 280.459 181.29 280.21V280.21Z" fill="#E0E0E0"/>
<path id="Vector_58" d="M175.93 284.81V286.5C175.906 286.951 175.776 287.39 175.55 287.781C175.324 288.172 175.009 288.504 174.63 288.75L173.17 289.59C172.45 290.01 171.87 289.67 171.87 288.84V287.15C171.896 286.7 172.027 286.261 172.253 285.871C172.479 285.48 172.793 285.148 173.17 284.9L174.63 284.06C175.35 283.65 175.93 284 175.93 284.81Z" fill="#C53F3F"/>
<path id="Vector_59" d="M181.29 288.49L200.73 277.26C201.44 276.84 202.02 277.18 202.02 278.01V279.7C201.995 280.15 201.866 280.587 201.642 280.978C201.418 281.368 201.105 281.701 200.73 281.95L181.29 293.18C180.57 293.6 179.99 293.26 179.99 292.43V290.74C180.017 290.29 180.148 289.852 180.374 289.461C180.6 289.071 180.913 288.738 181.29 288.49Z" fill="#E0E0E0"/>
<path id="Vector_60" d="M175.93 293.09V294.78C175.906 295.231 175.775 295.67 175.549 296.061C175.323 296.452 175.008 296.784 174.63 297.03L173.17 297.87C172.45 298.29 171.87 297.95 171.87 297.12V295.43C171.894 294.979 172.025 294.54 172.251 294.149C172.477 293.758 172.792 293.426 173.17 293.18L174.63 292.34C175.35 291.92 175.93 292.26 175.93 293.09Z" fill="#C53F3F"/>
<path id="Vector_61" d="M179.99 251.15V254.06L182.52 251.15H179.99Z" fill="#C53F3F"/>
<path id="Vector_62" d="M184.06 250.54C184.06 251.09 184.44 251.3 184.92 251.02L201.16 241.68C201.411 241.515 201.62 241.294 201.769 241.033C201.919 240.772 202.005 240.48 202.02 240.18C202.02 239.63 201.64 239.41 201.16 239.69L184.92 249.06C184.67 249.222 184.462 249.44 184.313 249.697C184.163 249.954 184.077 250.243 184.06 250.54Z" fill="#E0E0E0"/>
<path id="Vector_63" d="M179.99 255.83V258.75L182.52 255.83H179.99Z" fill="#C53F3F"/>
<path id="Vector_64" d="M184.06 255.23C184.06 255.77 184.44 255.99 184.92 255.71L201.16 246.36C201.412 246.198 201.621 245.978 201.77 245.719C201.92 245.46 202.006 245.169 202.02 244.87C202.02 244.32 201.64 244.1 201.16 244.38L184.92 253.75C184.67 253.912 184.462 254.13 184.313 254.387C184.163 254.644 184.077 254.933 184.06 255.23V255.23Z" fill="#E0E0E0"/>
<path id="Vector_65" d="M179.99 260.52V263.44L182.52 260.52H179.99Z" fill="#C53F3F"/>
<path id="Vector_66" d="M184.06 259.92C184.06 260.46 184.44 260.68 184.92 260.4L201.16 251.05C201.412 250.888 201.621 250.668 201.77 250.409C201.92 250.15 202.006 249.859 202.02 249.56C202.02 249.01 201.64 248.79 201.16 249.07L184.92 258.44C184.67 258.602 184.462 258.82 184.313 259.077C184.163 259.334 184.077 259.623 184.06 259.92V259.92Z" fill="#E0E0E0"/>
<path id="Vector_67" d="M179.99 265.21V268.13L182.52 265.21H179.99Z" fill="#C53F3F"/>
<path id="Vector_68" d="M184.06 264.61C184.06 265.15 184.44 265.37 184.92 265.09L201.16 255.74C201.412 255.578 201.621 255.358 201.77 255.099C201.92 254.84 202.006 254.549 202.02 254.25C202.02 253.7 201.64 253.48 201.16 253.76L184.92 263.13C184.67 263.292 184.462 263.51 184.313 263.767C184.163 264.024 184.077 264.313 184.06 264.61Z" fill="#E0E0E0"/>
<path id="Vector_69" d="M220.61 202.79V227.23C220.61 228.23 221.33 228.67 222.22 228.16L249.09 212.64C249.559 212.337 249.95 211.927 250.23 211.444C250.509 210.96 250.671 210.418 250.7 209.86V189.77C250.7 188.77 249.98 188.33 249.09 188.84L233.5 197.84C232.61 198.35 231.89 197.94 231.89 196.92V196.28C231.89 195.28 231.18 194.84 230.29 195.35L222.22 200C221.751 200.306 221.361 200.718 221.081 201.202C220.802 201.687 220.64 202.231 220.61 202.79V202.79Z" fill="#C53F3F"/>
<path id="Vector_70" d="M225.9 231.84V233.41C225.9 234.17 226.44 234.48 227.1 234.1L247.26 222.46C247.61 222.232 247.901 221.925 248.109 221.564C248.318 221.202 248.438 220.797 248.46 220.38V218.81C248.46 218.05 247.92 217.74 247.26 218.12L227.1 229.76C226.75 229.988 226.459 230.295 226.251 230.656C226.042 231.018 225.922 231.423 225.9 231.84V231.84Z" fill="#E0E0E0"/>
<path id="Vector_71" d="M258 181.34V205.78C258 206.78 258.72 207.21 259.6 206.7L286.47 191.19C286.937 190.885 287.327 190.475 287.606 189.992C287.886 189.509 288.048 188.967 288.08 188.41V168.31C288.08 167.31 287.36 166.87 286.47 167.38L270.88 176.38C269.99 176.89 269.28 176.47 269.28 175.45V174.81C269.28 173.81 268.56 173.38 267.67 173.89L259.6 178.55C259.133 178.856 258.744 179.269 258.466 179.753C258.188 180.238 258.028 180.782 258 181.34V181.34Z" fill="#C53F3F"/>
<path id="Vector_72" d="M263.26 210.39V212C263.26 212.77 263.8 213.08 264.46 212.7L284.62 201C284.969 200.77 285.26 200.46 285.468 200.098C285.677 199.735 285.797 199.328 285.82 198.91V197.35C285.82 196.58 285.28 196.27 284.62 196.66L264.46 208.3C264.111 208.53 263.82 208.84 263.612 209.202C263.403 209.565 263.283 209.972 263.26 210.39Z" fill="#E0E0E0"/>
<path id="Vector_73" d="M220.61 251.89V276.33C220.61 277.33 221.33 277.77 222.22 277.26L249.09 261.74C249.553 261.44 249.939 261.036 250.219 260.56C250.498 260.085 250.663 259.55 250.7 259V238.9C250.7 237.9 249.98 237.47 249.09 237.98L233.5 246.98C232.61 247.49 231.89 247.08 231.89 246.06V245.42C231.89 244.42 231.18 243.98 230.29 244.49L222.22 249.15C221.757 249.45 221.371 249.854 221.091 250.33C220.812 250.805 220.647 251.34 220.61 251.89V251.89Z" fill="#C53F3F"/>
<path id="Vector_74" d="M225.9 280.94V282.51C225.9 283.27 226.44 283.58 227.1 283.2L247.26 271.56C247.609 271.331 247.899 271.024 248.107 270.663C248.315 270.301 248.436 269.896 248.46 269.48V267.91C248.46 267.15 247.92 266.84 247.26 267.22L227.1 278.86C226.75 279.088 226.459 279.395 226.251 279.756C226.042 280.118 225.922 280.523 225.9 280.94V280.94Z" fill="#E0E0E0"/>
<path id="Vector_75" d="M258 230.43V254.87C258 255.87 258.72 256.31 259.6 255.8L286.47 240.28C286.938 239.978 287.328 239.57 287.607 239.088C287.887 238.607 288.049 238.066 288.08 237.51V217.41C288.08 216.41 287.36 215.97 286.47 216.48L270.88 225.48C269.99 225.99 269.28 225.57 269.28 224.55V223.91C269.28 222.91 268.56 222.47 267.67 222.99L259.6 227.65C259.133 227.955 258.745 228.365 258.467 228.848C258.189 229.331 258.029 229.873 258 230.43V230.43Z" fill="#C53F3F"/>
<path id="Vector_76" d="M263.26 259.49V261.05C263.26 261.82 263.8 262.13 264.46 261.74L284.62 250.11C284.969 249.88 285.26 249.57 285.468 249.207C285.677 248.845 285.797 248.438 285.82 248.02V246.46C285.82 245.69 285.28 245.38 284.62 245.76L264.46 257.4C264.111 257.63 263.82 257.94 263.612 258.302C263.403 258.665 263.283 259.072 263.26 259.49V259.49Z" fill="#E0E0E0"/>
<path id="Vector_77" d="M295.78 158.7V183.14C295.78 184.14 296.5 184.58 297.38 184.07L324.26 168.55C324.726 168.245 325.114 167.834 325.392 167.351C325.67 166.868 325.83 166.326 325.86 165.77V145.68C325.86 144.68 325.14 144.24 324.26 144.75L308.66 153.75C307.78 154.27 307.06 153.85 307.06 152.83V152.19C307.06 151.19 306.34 150.75 305.45 151.26L297.38 155.93C296.915 156.234 296.527 156.643 296.249 157.124C295.971 157.605 295.811 158.145 295.78 158.7Z" fill="#C53F3F"/>
<path id="Vector_78" d="M300.62 188.93V190.5C300.62 191.26 301.16 191.57 301.83 191.19L322 179.55C322.352 179.324 322.645 179.018 322.856 178.656C323.066 178.294 323.188 177.888 323.21 177.47V175.91C323.21 175.14 322.67 174.83 322 175.21L301.85 186.85C301.494 187.074 301.197 187.379 300.983 187.741C300.769 188.103 300.645 188.51 300.62 188.93V188.93Z" fill="#E0E0E0"/>
<path id="Vector_79" d="M332.7 138.43V162.87C332.7 163.87 333.42 164.3 334.31 163.79L361.18 148.28C361.646 147.975 362.034 147.564 362.312 147.081C362.59 146.598 362.75 146.056 362.78 145.5V125.4C362.78 124.4 362.07 123.96 361.18 124.47L345.59 133.47C344.7 133.98 343.98 133.56 343.98 132.54V131.9C343.98 130.9 343.27 130.47 342.38 130.98L334.31 135.64C333.84 135.944 333.448 136.356 333.168 136.841C332.888 137.326 332.728 137.871 332.7 138.43V138.43Z" fill="#C53F3F"/>
<path id="Vector_80" d="M338 167.48V169C338 169.77 338.53 170.08 339.2 169.7L359.36 158.06C359.708 157.831 359.998 157.523 360.206 157.162C360.414 156.801 360.536 156.396 360.56 155.98V154.41C360.56 153.64 360.02 153.33 359.36 153.72L339.2 165.35C338.844 165.583 338.55 165.898 338.341 166.269C338.132 166.64 338.015 167.055 338 167.48V167.48Z" fill="#E0E0E0"/>
<path id="Vector_81" d="M300.62 238V239.57C300.62 240.33 301.16 240.64 301.83 240.26L322 228.63C322.352 228.404 322.645 228.098 322.856 227.736C323.066 227.374 323.188 226.968 323.21 226.55V225C323.21 224.24 322.67 223.93 322 224.31L301.85 235.95C301.498 236.171 301.203 236.472 300.99 236.828C300.776 237.184 300.649 237.586 300.62 238V238Z" fill="#E0E0E0"/>
<path id="Vector_82" d="M301.13 203.66L322 191.59C322.95 191.04 323.73 191.49 323.73 192.59V216.73C323.698 217.331 323.524 217.915 323.223 218.437C322.923 218.958 322.504 219.401 322 219.73L301.13 231.8C300.13 232.35 299.4 231.91 299.4 230.8V206.66C299.433 206.059 299.607 205.475 299.908 204.954C300.208 204.433 300.627 203.99 301.13 203.66Z" fill="#FAFAFA"/>
<path id="Vector_83" d="M300.35 232.54C300.105 232.542 299.864 232.48 299.65 232.36C299.397 232.191 299.194 231.957 299.062 231.683C298.93 231.408 298.874 231.103 298.9 230.8V206.66C298.935 205.97 299.135 205.298 299.483 204.702C299.831 204.105 300.317 203.6 300.9 203.23L321.81 191.16C322.059 190.986 322.351 190.884 322.653 190.863C322.956 190.841 323.259 190.903 323.53 191.04C323.783 191.208 323.986 191.44 324.12 191.712C324.254 191.984 324.312 192.287 324.29 192.59V216.73C324.255 217.42 324.055 218.092 323.707 218.688C323.359 219.285 322.873 219.79 322.29 220.16L301.38 232.24C301.069 232.428 300.714 232.531 300.35 232.54V232.54ZM322.81 191.86C322.624 191.867 322.444 191.926 322.29 192.03L301.38 204.1C300.951 204.382 300.594 204.761 300.337 205.205C300.08 205.649 299.931 206.148 299.9 206.66V230.8C299.9 231.15 299.99 231.4 300.15 231.49C300.272 231.53 300.403 231.54 300.53 231.519C300.657 231.499 300.777 231.447 300.88 231.37L321.79 219.3C322.217 219.014 322.573 218.633 322.83 218.188C323.087 217.742 323.237 217.243 323.27 216.73V192.59C323.285 192.463 323.27 192.333 323.224 192.213C323.179 192.093 323.106 191.986 323.01 191.9C322.948 191.87 322.879 191.857 322.81 191.86V191.86Z" fill="#EBEBEB"/>
<path id="Vector_84" d="M324.5 194.85L319.84 197.54C319.334 197.868 318.913 198.31 318.611 198.832C318.309 199.353 318.134 199.938 318.1 200.54V205.92C318.1 207.03 318.88 207.48 319.84 206.92L324.5 204.23C325.004 203.901 325.423 203.458 325.723 202.937C326.024 202.415 326.198 201.831 326.23 201.23V195.85C326.23 194.75 325.45 194.3 324.5 194.85Z" fill="#C53F3F"/>
<path id="Vector_85" d="M302.72 206.27L313.2 200.27C313.67 200 314.06 200.22 314.06 200.78V201.11C314.042 201.41 313.956 201.701 313.806 201.961C313.657 202.221 313.45 202.444 313.2 202.61L302.72 208.61C302.24 208.89 301.85 208.67 301.86 208.11V207.77C301.875 207.47 301.961 207.178 302.111 206.917C302.26 206.656 302.469 206.435 302.72 206.27V206.27Z" fill="#EBEBEB"/>
<path id="Vector_86" d="M302.72 211L313.2 205C313.67 204.72 314.06 204.95 314.06 205.5V205.83C314.045 206.13 313.959 206.422 313.809 206.683C313.66 206.944 313.451 207.165 313.2 207.33L302.72 213.33C302.24 213.61 301.85 213.33 301.86 212.83V212.48C301.878 212.183 301.966 211.895 302.115 211.638C302.264 211.381 302.471 211.163 302.72 211V211Z" fill="#EBEBEB"/>
<path id="Vector_87" d="M302.72 215.64L313.2 209.64C313.67 209.37 314.06 209.59 314.06 210.14V210.48C314.042 210.779 313.956 211.071 313.806 211.331C313.657 211.591 313.45 211.813 313.2 211.98L302.72 217.98C302.24 218.26 301.85 218.04 301.86 217.48V217.14C301.874 216.84 301.96 216.547 302.11 216.287C302.259 216.026 302.468 215.804 302.72 215.64V215.64Z" fill="#EBEBEB"/>
<path id="Vector_88" d="M302.72 220.32L320.12 210.32C320.6 210.05 320.99 210.32 320.99 210.82V211.16C320.973 211.461 320.885 211.753 320.734 212.014C320.583 212.274 320.373 212.496 320.12 212.66L302.72 222.66C302.24 222.93 301.85 222.71 301.86 222.16V221.81C301.877 221.512 301.963 221.221 302.113 220.963C302.262 220.704 302.47 220.484 302.72 220.32Z" fill="#EBEBEB"/>
<path id="Vector_89" d="M302.72 225L320.12 215C320.6 214.72 320.99 215 320.99 215.5V215.83C320.974 216.131 320.886 216.424 320.735 216.684C320.584 216.945 320.373 217.166 320.12 217.33L302.72 227.33C302.24 227.61 301.85 227.38 301.86 226.83V226.49C301.874 226.191 301.96 225.9 302.11 225.641C302.259 225.382 302.468 225.162 302.72 225V225Z" fill="#EBEBEB"/>
<path id="Vector_90" d="M337.18 216.91V218.47C337.18 219.24 337.72 219.55 338.38 219.17L358.54 207.53C358.89 207.301 359.182 206.992 359.39 206.629C359.599 206.266 359.719 205.858 359.74 205.44V203.88C359.74 203.11 359.21 202.8 358.54 203.18L338.38 214.82C338.031 215.05 337.74 215.36 337.532 215.722C337.323 216.085 337.203 216.492 337.18 216.91V216.91Z" fill="#E0E0E0"/>
<path id="Vector_91" d="M337.69 182.56L358.59 170.49C359.59 169.93 360.33 170.38 360.33 171.49V195.63C360.295 196.231 360.119 196.816 359.817 197.337C359.515 197.858 359.094 198.301 358.59 198.63L337.69 210.7C336.69 211.25 335.95 210.8 335.95 209.7V185.56C335.983 184.958 336.158 184.373 336.46 183.851C336.762 183.33 337.184 182.887 337.69 182.56V182.56Z" fill="#FAFAFA"/>
<path id="Vector_92" d="M336.91 211.43C336.665 211.432 336.424 211.37 336.21 211.25C335.957 211.082 335.754 210.85 335.62 210.578C335.487 210.306 335.428 210.003 335.45 209.7V185.56C335.483 184.868 335.682 184.195 336.03 183.596C336.378 182.997 336.865 182.491 337.45 182.12L358.35 170.05C358.594 169.859 358.889 169.746 359.197 169.724C359.506 169.703 359.814 169.774 360.082 169.929C360.349 170.083 360.565 170.315 360.7 170.593C360.835 170.871 360.884 171.184 360.84 171.49V195.63C360.806 196.32 360.607 196.992 360.258 197.589C359.91 198.186 359.424 198.69 358.84 199.06L337.94 211.13C337.629 211.318 337.274 211.421 336.91 211.43V211.43ZM337.91 182.99C337.479 183.273 337.12 183.653 336.862 184.099C336.603 184.545 336.452 185.045 336.42 185.56V209.7C336.405 209.827 336.421 209.957 336.466 210.077C336.511 210.197 336.584 210.304 336.68 210.39C336.803 210.431 336.934 210.44 337.061 210.417C337.189 210.395 337.309 210.341 337.41 210.26L358.31 198.19C358.74 197.908 359.099 197.53 359.357 197.086C359.616 196.642 359.768 196.143 359.8 195.63V171.49C359.854 171.359 359.859 171.214 359.813 171.08C359.767 170.946 359.674 170.834 359.552 170.764C359.429 170.694 359.285 170.671 359.146 170.7C359.008 170.728 358.885 170.807 358.8 170.92L337.91 182.99Z" fill="#EBEBEB"/>
<path id="Vector_93" d="M361.05 173.75L356.39 176.44C355.886 176.769 355.467 177.212 355.167 177.733C354.866 178.255 354.692 178.839 354.66 179.44V184.82C354.66 185.92 355.44 186.37 356.39 185.82L361.05 183.13C361.555 182.801 361.975 182.358 362.277 181.837C362.579 181.316 362.755 180.731 362.79 180.13V174.75C362.79 173.64 362 173.19 361.05 173.75Z" fill="#C53F3F"/>
<path id="Vector_94" d="M339.28 185.16L349.75 179.16C350.23 178.88 350.62 179.16 350.62 179.66V180C350.605 180.301 350.519 180.595 350.367 180.856C350.216 181.117 350.004 181.338 349.75 181.5L339.28 187.5C338.8 187.78 338.41 187.55 338.41 187V186.65C338.429 186.351 338.517 186.061 338.668 185.802C338.819 185.543 339.029 185.323 339.28 185.16V185.16Z" fill="#EBEBEB"/>
<path id="Vector_95" d="M339.28 189.85L349.75 183.85C350.23 183.58 350.62 183.85 350.62 184.35V184.69C350.603 184.991 350.515 185.283 350.364 185.544C350.213 185.804 350.003 186.026 349.75 186.19L339.28 192.19C338.8 192.47 338.41 192.25 338.41 191.69V191.35C338.426 191.049 338.514 190.756 338.665 190.496C338.816 190.235 339.027 190.014 339.28 189.85V189.85Z" fill="#EBEBEB"/>
<path id="Vector_96" d="M339.28 194.53L349.75 188.53C350.23 188.25 350.62 188.53 350.62 189.03V189.36C350.604 189.661 350.516 189.954 350.365 190.214C350.214 190.475 350.003 190.696 349.75 190.86L339.28 196.86C338.8 197.13 338.41 196.91 338.41 196.36V196C338.432 195.704 338.522 195.418 338.673 195.163C338.823 194.908 339.031 194.691 339.28 194.53V194.53Z" fill="#EBEBEB"/>
<path id="Vector_97" d="M339.28 199.22L356.68 189.22C357.16 188.94 357.55 189.17 357.55 189.72V190C357.533 190.301 357.445 190.593 357.294 190.854C357.143 191.114 356.933 191.336 356.68 191.5L339.28 201.5C338.8 201.78 338.41 201.55 338.41 201V200.66C338.434 200.369 338.525 200.088 338.676 199.838C338.827 199.588 339.034 199.377 339.28 199.22V199.22Z" fill="#EBEBEB"/>
<path id="Vector_98" d="M339.28 203.9L356.68 193.9C357.16 193.63 357.55 193.85 357.55 194.4V194.74C357.533 195.041 357.445 195.333 357.294 195.594C357.143 195.854 356.933 196.076 356.68 196.24L339.28 206.24C338.8 206.51 338.41 206.29 338.41 205.74V205.39C338.429 205.091 338.517 204.8 338.668 204.542C338.819 204.283 339.029 204.063 339.28 203.9V203.9Z" fill="#EBEBEB"/>
<path id="Vector_99" d="M300.62 287.83V289.4C300.62 290.16 301.16 290.47 301.83 290.09L322 278.45C322.352 278.224 322.645 277.918 322.856 277.556C323.066 277.194 323.188 276.788 323.21 276.37V274.8C323.21 274.04 322.67 273.73 322 274.11L301.85 285.75C301.494 285.974 301.197 286.279 300.983 286.641C300.769 287.003 300.645 287.41 300.62 287.83V287.83Z" fill="#E0E0E0"/>
<path id="Vector_100" d="M301.13 253.48L322 241.41C322.95 240.86 323.73 241.31 323.73 242.41V266.55C323.696 267.15 323.522 267.735 323.221 268.255C322.921 268.776 322.503 269.22 322 269.55L301.09 281.62C300.09 282.17 299.36 281.73 299.36 280.62V256.48C299.396 255.875 299.575 255.288 299.883 254.767C300.191 254.245 300.618 253.804 301.13 253.48V253.48Z" fill="#FAFAFA"/>
<path id="Vector_101" d="M300.35 282.36C300.105 282.362 299.864 282.3 299.65 282.18C299.398 282.009 299.196 281.775 299.064 281.501C298.933 281.227 298.876 280.923 298.9 280.62V256.48C298.935 255.79 299.135 255.118 299.483 254.522C299.831 253.925 300.317 253.42 300.9 253.05L321.79 241C322.033 240.814 322.326 240.704 322.632 240.684C322.937 240.663 323.242 240.734 323.507 240.887C323.773 241.04 323.987 241.269 324.122 241.543C324.258 241.818 324.31 242.126 324.27 242.43V266.57C324.235 267.26 324.035 267.932 323.687 268.528C323.339 269.125 322.853 269.63 322.27 270L301.36 282.07C301.053 282.25 300.706 282.35 300.35 282.36ZM322.81 241.67C322.625 241.682 322.446 241.74 322.29 241.84L301.38 253.92C300.951 254.202 300.593 254.58 300.336 255.024C300.079 255.469 299.93 255.967 299.9 256.48V280.62C299.846 280.751 299.841 280.896 299.887 281.03C299.933 281.164 300.026 281.276 300.148 281.346C300.271 281.416 300.415 281.439 300.554 281.41C300.692 281.382 300.815 281.303 300.9 281.19L321.81 269.12C322.237 268.834 322.593 268.453 322.85 268.008C323.107 267.562 323.257 267.063 323.29 266.55V242.41C323.305 242.283 323.29 242.153 323.244 242.033C323.199 241.913 323.126 241.806 323.03 241.72C322.963 241.684 322.887 241.666 322.81 241.67V241.67Z" fill="#EBEBEB"/>
<path id="Vector_102" d="M324.5 244.67L319.84 247.36C319.334 247.688 318.913 248.13 318.611 248.652C318.309 249.173 318.134 249.758 318.1 250.36V255.74C318.1 256.85 318.88 257.29 319.84 256.74L324.5 254.05C325.004 253.721 325.423 253.278 325.723 252.757C326.024 252.235 326.198 251.651 326.23 251.05V245.67C326.23 244.57 325.45 244.12 324.5 244.67Z" fill="#C53F3F"/>
<path id="Vector_103" d="M302.72 256.09L313.2 250.09C313.67 249.82 314.06 250.04 314.06 250.59V250.93C314.042 251.229 313.956 251.521 313.806 251.781C313.657 252.041 313.45 252.263 313.2 252.43L302.72 258.43C302.24 258.71 301.85 258.49 301.86 257.93V257.59C301.874 257.29 301.96 256.997 302.11 256.737C302.259 256.476 302.468 256.254 302.72 256.09Z" fill="#EBEBEB"/>
<path id="Vector_104" d="M302.72 260.77L313.2 254.77C313.67 254.49 314.06 254.72 314.06 255.27V255.6C314.044 255.9 313.958 256.192 313.808 256.452C313.659 256.713 313.451 256.935 313.2 257.1L302.72 263.1C302.24 263.37 301.85 263.15 301.86 262.6V262.25C301.878 261.953 301.966 261.665 302.115 261.408C302.264 261.151 302.471 260.933 302.72 260.77V260.77Z" fill="#EBEBEB"/>
<path id="Vector_105" d="M302.72 265.46L313.2 259.46C313.67 259.19 314.06 259.41 314.06 259.96V260.3C314.042 260.599 313.956 260.891 313.806 261.151C313.657 261.411 313.45 261.633 313.2 261.8L302.72 267.8C302.24 268.08 301.85 267.85 301.86 267.3V267C301.866 266.693 301.948 266.391 302.098 266.123C302.248 265.854 302.462 265.627 302.72 265.46Z" fill="#EBEBEB"/>
<path id="Vector_106" d="M302.72 270.14L320.12 260.14C320.6 259.87 320.99 260.09 320.99 260.64V261C320.973 261.301 320.885 261.593 320.734 261.854C320.583 262.114 320.373 262.336 320.12 262.5L302.72 272.5C302.24 272.77 301.85 272.55 301.86 272V271.65C301.874 271.348 301.959 271.054 302.108 270.792C302.258 270.529 302.467 270.306 302.72 270.14V270.14Z" fill="#EBEBEB"/>
<path id="Vector_107" d="M302.72 274.83L320.12 264.83C320.6 264.55 320.99 264.77 320.99 265.33V265.66C320.973 265.961 320.885 266.253 320.734 266.514C320.583 266.774 320.373 266.996 320.12 267.16L302.72 277.16C302.24 277.44 301.85 277.21 301.86 276.66V276.32C301.874 276.021 301.96 275.73 302.11 275.471C302.259 275.212 302.468 274.992 302.72 274.83V274.83Z" fill="#EBEBEB"/>
<path id="Vector_108" d="M337.18 266.72V268.29C337.18 269.06 337.72 269.37 338.38 268.98L358.54 257.35C358.89 257.121 359.182 256.812 359.39 256.449C359.599 256.086 359.719 255.678 359.74 255.26V253.7C359.74 252.93 359.21 252.62 358.54 253L338.38 264.64C338.032 264.87 337.742 265.177 337.534 265.538C337.326 265.899 337.204 266.304 337.18 266.72V266.72Z" fill="#E0E0E0"/>
<path id="Vector_109" d="M337.69 232.38L358.59 220.31C359.59 219.75 360.33 220.2 360.33 221.31V245.44C360.297 246.042 360.122 246.627 359.82 247.149C359.518 247.67 359.096 248.113 358.59 248.44L337.69 260.52C336.69 261.07 335.95 260.62 335.95 259.52V235.38C335.983 234.778 336.158 234.193 336.46 233.671C336.762 233.15 337.184 232.707 337.69 232.38V232.38Z" fill="#FAFAFA"/>
<path id="Vector_110" d="M336.91 261.25C336.665 261.252 336.424 261.19 336.21 261.07C335.957 260.902 335.754 260.67 335.62 260.398C335.487 260.126 335.428 259.823 335.45 259.52V235.38C335.482 234.688 335.681 234.014 336.029 233.415C336.377 232.817 336.865 232.31 337.45 231.94L358.35 219.87C358.594 219.679 358.889 219.566 359.197 219.544C359.506 219.523 359.814 219.594 360.082 219.749C360.349 219.903 360.565 220.135 360.7 220.413C360.835 220.691 360.884 221.004 360.84 221.31V245.44C360.808 246.132 360.609 246.806 360.261 247.405C359.913 248.003 359.425 248.51 358.84 248.88L337.94 261C337.624 261.17 337.269 261.257 336.91 261.25V261.25ZM337.91 232.81C337.479 233.093 337.12 233.473 336.862 233.919C336.603 234.365 336.452 234.865 336.42 235.38V259.52C336.403 259.646 336.418 259.774 336.463 259.893C336.509 260.012 336.583 260.117 336.68 260.2C336.802 260.243 336.933 260.254 337.06 260.233C337.188 260.212 337.308 260.16 337.41 260.08L358.34 248C358.771 247.717 359.13 247.337 359.388 246.891C359.647 246.445 359.798 245.945 359.83 245.43V221.31C359.884 221.179 359.889 221.034 359.843 220.9C359.797 220.766 359.704 220.654 359.582 220.584C359.459 220.514 359.315 220.491 359.176 220.52C359.038 220.548 358.915 220.627 358.83 220.74L337.91 232.81Z" fill="#EBEBEB"/>
<path id="Vector_111" d="M361.05 223.57L356.39 226.26C355.886 226.589 355.467 227.032 355.167 227.553C354.866 228.075 354.692 228.659 354.66 229.26V234.64C354.66 235.74 355.44 236.19 356.39 235.64L361.05 232.95C361.555 232.621 361.975 232.178 362.277 231.657C362.579 231.136 362.755 230.551 362.79 229.95V224.57C362.79 223.46 362 223 361.05 223.57Z" fill="#C53F3F"/>
<path id="Vector_112" d="M339.28 235L349.75 229C350.23 228.72 350.62 228.95 350.62 229.5V229.83C350.604 230.131 350.516 230.424 350.365 230.684C350.214 230.945 350.003 231.166 349.75 231.33L339.28 237.33C338.8 237.6 338.41 237.33 338.41 236.83V236.48C338.43 236.183 338.519 235.894 338.67 235.637C338.821 235.38 339.03 235.162 339.28 235Z" fill="#EBEBEB"/>
<path id="Vector_113" d="M339.28 239.67L349.75 233.67C350.23 233.4 350.62 233.67 350.62 234.17V234.51C350.603 234.811 350.515 235.103 350.364 235.364C350.213 235.624 350.003 235.846 349.75 236.01L339.28 242.01C338.8 242.29 338.41 242.06 338.41 241.51V241.17C338.425 240.869 338.511 240.575 338.663 240.314C338.814 240.053 339.026 239.832 339.28 239.67V239.67Z" fill="#EBEBEB"/>
<path id="Vector_114" d="M339.28 244.35L349.75 238.35C350.23 238.07 350.62 238.29 350.62 238.85V239.18C350.603 239.481 350.515 239.773 350.364 240.034C350.213 240.294 350.003 240.516 349.75 240.68L339.28 246.68C338.8 246.95 338.41 246.73 338.41 246.18V245.83C338.43 245.533 338.519 245.244 338.67 244.987C338.821 244.73 339.03 244.512 339.28 244.35V244.35Z" fill="#EBEBEB"/>
<path id="Vector_115" d="M339.28 249L356.68 239C357.16 238.72 357.55 238.94 357.55 239.5V239.83C357.533 240.131 357.445 240.423 357.294 240.684C357.143 240.944 356.933 241.166 356.68 241.33L339.28 251.33C338.8 251.61 338.41 251.38 338.41 250.83V250.49C338.426 250.19 338.514 249.899 338.665 249.64C338.816 249.381 339.027 249.161 339.28 249V249Z" fill="#EBEBEB"/>
<path id="Vector_116" d="M339.28 253.72L356.68 243.72C357.16 243.44 357.55 243.67 357.55 244.22V244.55C357.535 244.851 357.449 245.145 357.297 245.406C357.146 245.667 356.934 245.888 356.68 246.05L339.28 256.05C338.8 256.32 338.41 256.1 338.41 255.55V255.2C338.43 254.903 338.519 254.614 338.67 254.357C338.821 254.1 339.03 253.882 339.28 253.72Z" fill="#EBEBEB"/>
<path id="Vector_117" d="M225.9 331V332.56C225.9 333.33 226.44 333.64 227.11 333.26L247.26 321.62C247.612 321.393 247.904 321.087 248.115 320.725C248.325 320.364 248.447 319.958 248.47 319.54V318C248.47 317.23 247.93 316.92 247.26 317.31L227.11 328.94C226.762 329.166 226.472 329.47 226.262 329.827C226.052 330.185 225.928 330.586 225.9 331Z" fill="#E0E0E0"/>
<path id="Vector_118" d="M226.41 296.65L247.32 284.58C248.32 284.03 249.05 284.47 249.05 285.58V309.72C249.015 310.32 248.841 310.904 248.54 311.425C248.24 311.946 247.822 312.389 247.32 312.72L226.41 324.79C225.41 325.34 224.68 324.89 224.68 323.79V299.65C224.711 299.049 224.884 298.464 225.184 297.942C225.485 297.421 225.905 296.978 226.41 296.65V296.65Z" fill="#FAFAFA"/>
<path id="Vector_119" d="M225.63 325.52C225.385 325.522 225.144 325.46 224.93 325.34C224.678 325.172 224.476 324.939 224.344 324.667C224.212 324.395 224.156 324.092 224.18 323.79V299.65C224.215 298.96 224.415 298.288 224.763 297.692C225.111 297.095 225.597 296.59 226.18 296.22L247.09 284.15C247.332 283.958 247.626 283.844 247.933 283.821C248.241 283.799 248.548 283.869 248.815 284.023C249.083 284.177 249.298 284.408 249.432 284.686C249.567 284.963 249.615 285.275 249.57 285.58V309.72C249.535 310.41 249.335 311.082 248.987 311.678C248.639 312.275 248.153 312.78 247.57 313.15L226.66 325.22C226.349 325.408 225.994 325.511 225.63 325.52ZM226.41 296.65L226.66 297.08C226.231 297.364 225.874 297.745 225.617 298.191C225.36 298.637 225.211 299.136 225.18 299.65V323.79C225.126 323.921 225.121 324.066 225.167 324.2C225.213 324.334 225.306 324.446 225.428 324.516C225.551 324.586 225.695 324.609 225.834 324.58C225.972 324.552 226.095 324.473 226.18 324.36L247.09 312.28C247.517 311.996 247.873 311.617 248.13 311.173C248.386 310.729 248.537 310.232 248.57 309.72V285.58C248.624 285.449 248.629 285.304 248.583 285.17C248.537 285.036 248.444 284.924 248.322 284.854C248.199 284.784 248.055 284.761 247.916 284.79C247.778 284.818 247.655 284.897 247.57 285.01L226.66 297.08L226.41 296.65Z" fill="#EBEBEB"/>
<path id="Vector_120" d="M249.78 287.84L245.12 290.53C244.614 290.857 244.192 291.3 243.89 291.821C243.588 292.343 243.413 292.928 243.38 293.53V298.91C243.38 300.01 244.16 300.46 245.12 299.91L249.78 297.22C250.283 296.89 250.701 296.446 251.001 295.925C251.302 295.405 251.476 294.82 251.51 294.22V288.84C251.51 287.73 250.73 287.29 249.78 287.84Z" fill="#C53F3F"/>
<path id="Vector_121" d="M228 299.26L238.48 293.26C238.95 292.98 239.34 293.21 239.34 293.76V294.09C239.325 294.39 239.239 294.682 239.089 294.943C238.94 295.204 238.731 295.425 238.48 295.59L228 301.59C227.52 301.87 227.14 301.59 227.14 301.09V300.75C227.154 300.451 227.24 300.16 227.39 299.901C227.539 299.642 227.748 299.422 228 299.26V299.26Z" fill="#EBEBEB"/>
<path id="Vector_122" d="M228 303.94L238.48 297.94C238.95 297.67 239.34 297.89 239.34 298.45V298.78C239.322 299.08 239.236 299.371 239.086 299.631C238.937 299.891 238.73 300.114 238.48 300.28L228 306.28C227.52 306.55 227.14 306.28 227.14 305.78V305.43C227.157 305.132 227.243 304.841 227.393 304.583C227.542 304.324 227.75 304.104 228 303.94V303.94Z" fill="#EBEBEB"/>
<path id="Vector_123" d="M228 308.63L238.48 302.63C238.95 302.35 239.34 302.58 239.34 303.13V303.46C239.325 303.76 239.239 304.052 239.089 304.313C238.94 304.574 238.731 304.795 238.48 304.96L228 311C227.52 311.28 227.14 311 227.14 310.5V310.15C227.15 309.846 227.233 309.549 227.383 309.284C227.533 309.019 227.744 308.795 228 308.63V308.63Z" fill="#EBEBEB"/>
<path id="Vector_124" d="M228 313.31L245.4 303.31C245.88 303.03 246.27 303.31 246.27 303.81V304.14C246.255 304.441 246.169 304.735 246.017 304.996C245.866 305.257 245.654 305.478 245.4 305.64L228 315.64C227.52 315.92 227.14 315.7 227.14 315.14V314.8C227.157 314.502 227.243 314.211 227.393 313.953C227.542 313.694 227.75 313.474 228 313.31V313.31Z" fill="#EBEBEB"/>
<path id="Vector_125" d="M228 318L245.4 308C245.88 307.73 246.27 308 246.27 308.5V308.84C246.253 309.141 246.165 309.433 246.014 309.694C245.863 309.954 245.653 310.176 245.4 310.34L228 320.34C227.52 320.61 227.14 320.39 227.14 319.84V319.49C227.157 319.192 227.243 318.901 227.393 318.643C227.542 318.384 227.75 318.164 228 318V318Z" fill="#EBEBEB"/>
<path id="Vector_126" d="M262.46 309.89V311.46C262.46 312.22 263 312.54 263.66 312.15L283.82 300.51C284.171 300.284 284.464 299.977 284.672 299.616C284.881 299.254 285 298.847 285.02 298.43V296.87C285.02 296.1 284.49 295.79 283.82 296.17L263.66 307.81C263.311 308.039 263.021 308.346 262.813 308.707C262.605 309.069 262.484 309.474 262.46 309.89Z" fill="#E0E0E0"/>
<path id="Vector_127" d="M263 275.54L283.9 263.47C284.9 262.92 285.64 263.37 285.64 264.47V288.61C285.607 289.212 285.432 289.797 285.13 290.319C284.828 290.84 284.406 291.283 283.9 291.61L263 303.68C262 304.24 261.26 303.79 261.26 302.68V278.54C261.295 277.939 261.471 277.354 261.773 276.833C262.075 276.312 262.496 275.869 263 275.54V275.54Z" fill="#FAFAFA"/>
<path id="Vector_128" d="M262.19 304.42C261.945 304.422 261.704 304.36 261.49 304.24C261.237 304.07 261.034 303.836 260.9 303.562C260.767 303.288 260.708 302.984 260.73 302.68V278.54C260.766 277.85 260.966 277.179 261.314 276.582C261.662 275.986 262.147 275.481 262.73 275.11L283.62 263C283.863 262.81 284.157 262.697 284.464 262.675C284.772 262.654 285.079 262.724 285.346 262.877C285.613 263.031 285.829 263.261 285.965 263.537C286.101 263.814 286.151 264.125 286.11 264.43V288.57C286.078 289.261 285.879 289.933 285.531 290.53C285.182 291.128 284.695 291.632 284.11 292L263.21 304.08C262.905 304.28 262.554 304.398 262.19 304.42V304.42ZM284.65 263.74C284.461 263.745 284.277 263.804 284.12 263.91L263.22 276C262.79 276.282 262.431 276.66 262.173 277.104C261.914 277.548 261.762 278.047 261.73 278.56V302.7C261.712 302.828 261.727 302.958 261.772 303.078C261.817 303.199 261.892 303.306 261.99 303.39C262.112 303.43 262.243 303.44 262.37 303.419C262.497 303.399 262.617 303.347 262.72 303.27L283.62 291.2C284.05 290.916 284.409 290.536 284.667 290.09C284.926 289.644 285.077 289.144 285.11 288.63V264.47C285.125 264.343 285.109 264.213 285.064 264.093C285.019 263.973 284.946 263.866 284.85 263.78C284.787 263.752 284.719 263.738 284.65 263.74Z" fill="#EBEBEB"/>
<path id="Vector_129" d="M286.33 266.73L281.67 269.42C281.168 269.751 280.75 270.194 280.45 270.715C280.149 271.236 279.975 271.82 279.94 272.42V277.8C279.94 278.91 280.72 279.36 281.67 278.8L286.33 276.11C286.836 275.783 287.258 275.34 287.56 274.819C287.862 274.297 288.037 273.712 288.07 273.11V267.73C288.07 266.63 287.29 266.18 286.33 266.73Z" fill="#C53F3F"/>
<path id="Vector_130" d="M264.56 278.15L275.03 272.15C275.51 271.88 275.9 272.1 275.9 272.66V273C275.883 273.301 275.795 273.593 275.644 273.854C275.493 274.114 275.283 274.336 275.03 274.5L264.56 280.5C264.08 280.77 263.69 280.55 263.69 279.99V279.65C263.707 279.349 263.795 279.057 263.946 278.796C264.097 278.536 264.307 278.314 264.56 278.15V278.15Z" fill="#EBEBEB"/>
<path id="Vector_131" d="M264.56 282.84L275.03 276.84C275.51 276.56 275.9 276.79 275.9 277.34V277.67C275.885 277.971 275.799 278.265 275.647 278.526C275.496 278.787 275.284 279.008 275.03 279.17L264.56 285.17C264.08 285.45 263.69 285.22 263.69 284.67V284.32C263.708 284.022 263.796 283.733 263.947 283.476C264.098 283.218 264.308 283 264.56 282.84Z" fill="#EBEBEB"/>
<path id="Vector_132" d="M264.56 287.52L275.03 281.52C275.51 281.25 275.9 281.47 275.9 282.02V282.36C275.883 282.661 275.795 282.953 275.644 283.214C275.493 283.474 275.283 283.696 275.03 283.86L264.56 289.86C264.08 290.14 263.69 289.92 263.69 289.36V289C263.71 288.703 263.799 288.414 263.95 288.157C264.101 287.9 264.31 287.682 264.56 287.52Z" fill="#EBEBEB"/>
<path id="Vector_133" d="M264.56 292.2L281.96 282.2C282.44 281.93 282.83 282.15 282.83 282.7V283C282.813 283.301 282.725 283.593 282.574 283.854C282.423 284.114 282.213 284.336 281.96 284.5L264.56 294.5C264.08 294.77 263.69 294.55 263.69 294V293.65C263.715 293.358 263.806 293.075 263.957 292.824C264.108 292.573 264.314 292.359 264.56 292.2V292.2Z" fill="#EBEBEB"/>
<path id="Vector_134" d="M264.56 296.89L281.96 286.89C282.44 286.61 282.83 286.84 282.83 287.39V287.72C282.814 288.021 282.726 288.314 282.575 288.574C282.424 288.835 282.213 289.056 281.96 289.22L264.56 299.22C264.08 299.5 263.69 299.22 263.69 298.72V298.38C263.706 298.08 263.794 297.789 263.945 297.53C264.096 297.271 264.307 297.051 264.56 296.89V296.89Z" fill="#EBEBEB"/>
<path id="Vector_135" d="M167.81 201.91L163.75 199.54V218.31L167.81 220.66V201.91Z" fill="#C53F3F"/>
<path id="Vector_136" opacity="0.1" d="M167.81 201.91L163.75 199.54V218.31L167.81 220.66V201.91Z" fill="black"/>
</g>
<g id="sombra_lupa" opacity="0.1">
<path id="Vector_137" d="M392.373 315.469C391.784 315.51 391.157 315.635 390.556 315.832C389.954 316.028 389.399 316.289 388.945 316.589C387.64 317.403 386.611 318.296 385.942 319.196C385.273 320.096 384.982 320.979 385.092 321.773C385.104 322.066 385.279 322.316 385.599 322.499C385.919 322.682 386.373 322.791 386.915 322.815V322.815L452.768 323.25C454.079 323.295 455.893 322.767 457.737 321.695C459.572 320.553 461.016 319.299 461.952 318.036C462.889 316.772 463.29 315.534 463.124 314.422C462.836 313.387 461.794 312.908 460.36 312.985L392.373 315.469Z" fill="black"/>
<path id="Vector_138" opacity="0.15" d="M385.098 321.794C385.491 323.205 387.833 323.175 390.348 321.717C391.654 320.903 392.682 320.01 393.352 319.11C394.021 318.209 394.312 317.327 394.202 316.533C393.808 315.122 391.467 315.152 388.951 316.611C387.646 317.424 386.617 318.317 385.948 319.218C385.279 320.118 384.988 321 385.098 321.794V321.794Z" fill="black"/>
<path id="Vector_139" d="M369.469 317.901C368.674 318.395 368.049 318.939 367.644 319.486C367.239 320.034 367.067 320.57 367.14 321.051C367.148 321.228 367.253 321.378 367.446 321.489C367.638 321.599 367.911 321.664 368.237 321.679V321.679L387.995 321.38C388.349 321.357 388.726 321.283 389.088 321.164C389.45 321.046 389.784 320.888 390.054 320.707C390.858 320.21 391.489 319.662 391.896 319.111C392.303 318.559 392.472 318.02 392.391 317.537C392.387 317.358 392.284 317.205 392.09 317.094C391.897 316.982 391.622 316.917 391.292 316.903L371.534 317.202C371.175 317.23 370.794 317.309 370.431 317.432C370.068 317.555 369.736 317.717 369.469 317.901V317.901Z" fill="black"/>
<path id="Vector_140" opacity="0.1" d="M392.398 320.171L460.011 320.116C459.364 320.672 458.606 321.209 457.755 321.713C455.911 322.785 454.135 323.309 452.774 323.272L386.933 322.833C387.519 322.794 388.145 322.671 388.745 322.474C389.346 322.278 389.899 322.017 390.348 321.717C391.158 321.233 391.851 320.71 392.398 320.171V320.171Z" fill="black"/>
<path id="Vector_141" d="M396.011 292.415C395.946 292.18 395.883 291.957 395.747 291.748C395.611 291.54 395.561 291.313 395.438 291.106C395.316 290.9 395.296 290.829 395.219 290.692C395.025 290.323 394.787 289.979 394.552 289.651C394.434 289.507 394.326 289.35 394.208 289.206C394.09 289.063 393.977 288.936 393.86 288.798C393.527 288.439 393.194 288.086 392.82 287.767C392.624 287.622 392.45 287.465 392.258 287.337C392.226 287.315 392.198 287.291 392.174 287.266C391.965 287.125 391.784 286.987 391.576 286.846C391.357 286.691 391.118 286.546 390.858 286.412C390.686 286.305 390.499 286.206 390.295 286.117C390.18 286.038 390.044 285.97 389.888 285.913C389.734 285.827 389.556 285.747 389.379 285.673L389.248 285.622C389.099 285.552 388.927 285.494 388.765 285.427C388.604 285.361 388.536 285.35 388.434 285.308C387.656 285.03 386.809 284.795 385.9 284.605C385.738 284.58 385.585 284.546 385.435 284.518C385.284 284.489 385.175 284.473 385.052 284.448L384.551 284.377C384.086 284.296 383.597 284.237 383.086 284.198C382.852 284.172 382.609 284.156 382.358 284.148C382.106 284.13 381.856 284.118 381.595 284.114C381.203 284.093 380.798 284.087 380.382 284.094L380.056 284.091L379.996 284.108L365.771 284.32L365.667 284.32C361.996 284.411 358 285.047 354.079 286.164C348.223 287.796 341.863 290.508 335.371 294.284C313.021 307.276 297.827 327.962 301.328 340.525C303.073 346.785 309.119 349.844 317.551 349.719L317.623 349.699L331.847 349.481L331.919 349.461L332.151 349.455C332.525 349.445 332.885 349.433 333.256 349.412C333.626 349.39 334.173 349.35 334.642 349.307C335.111 349.264 335.477 349.227 335.902 349.167C336.123 349.145 336.349 349.113 336.576 349.073C336.81 349.052 337.048 349.019 337.289 348.974L338.023 348.858C338.199 348.832 338.377 348.8 338.555 348.763L339.516 348.577L339.733 348.517L340.884 348.266C347.465 346.767 354.777 343.836 362.264 339.484C384.613 326.486 399.805 305.795 396.306 293.242C396.209 292.987 396.118 292.708 396.011 292.415ZM364.364 291.664C365.742 292.963 366.654 294.448 367.074 296.076C370.161 307.152 356.142 326.183 336.477 337.628C333.614 339.325 330.446 340.886 327.069 342.264C325.69 340.963 324.778 339.477 324.358 337.847C321.271 326.771 335.278 307.743 354.954 296.294C357.818 294.599 360.986 293.04 364.364 291.664V291.664Z" fill="black"/>
<path id="Vector_142" opacity="0.1" d="M331.183 349.52L317.478 349.734C309.069 349.846 302.997 346.789 301.255 340.54C299.694 334.939 301.865 327.723 306.715 320.295L320.94 320.082C316.076 327.509 313.907 334.73 315.468 340.331C317.223 346.441 322.999 349.51 331.183 349.52Z" fill="black"/>
<path id="Vector_143" opacity="0.4" d="M396.012 292.414C395.946 292.18 395.884 291.957 395.748 291.748C395.612 291.539 395.562 291.313 395.439 291.106C395.317 290.9 395.297 290.829 395.22 290.692C395.026 290.323 394.787 289.978 394.553 289.65C394.435 289.507 394.326 289.35 394.208 289.206C394.091 289.063 393.977 288.936 393.861 288.798C393.527 288.439 393.195 288.086 392.82 287.767C392.624 287.622 392.451 287.465 392.259 287.336C392.227 287.315 392.199 287.291 392.174 287.266C391.966 287.125 391.785 286.987 391.577 286.846C391.358 286.691 391.118 286.546 390.858 286.412C390.687 286.305 390.499 286.206 390.296 286.116C390.181 286.038 390.044 285.969 389.888 285.913C389.735 285.827 389.557 285.747 389.38 285.673L389.249 285.621C389.099 285.551 388.928 285.494 388.766 285.427C388.605 285.361 388.537 285.35 388.434 285.308C387.657 285.029 386.81 284.794 385.901 284.605C385.738 284.58 385.586 284.546 385.435 284.518C385.284 284.489 385.176 284.473 385.052 284.448L384.552 284.376C384.087 284.296 383.598 284.236 383.087 284.198C382.853 284.172 382.61 284.156 382.358 284.148C382.107 284.13 381.857 284.118 381.596 284.114C381.204 284.093 380.799 284.086 380.383 284.094C371.871 284.118 360.511 287.342 349.576 294.047C327.601 307.499 312.234 328.028 315.522 340.292C317.235 346.672 323.521 349.705 332.146 349.48C332.519 349.47 332.88 349.458 333.25 349.437C333.621 349.415 334.168 349.375 334.637 349.332C335.105 349.289 335.471 349.252 335.896 349.192C336.118 349.17 336.344 349.138 336.571 349.098C336.804 349.077 337.043 349.044 337.284 348.999L338.018 348.883C338.194 348.857 338.371 348.825 338.549 348.788L339.51 348.602L339.727 348.541L340.878 348.291C347.459 346.792 354.772 343.861 362.259 339.509C384.607 326.511 399.799 305.82 396.301 293.267C396.21 292.987 396.119 292.707 396.012 292.414ZM356.87 337.317C351.865 340.233 346.878 342.421 342.431 343.66C334.093 345.984 329.545 344.481 327.07 342.264C325.691 340.963 324.778 339.477 324.359 337.847C321.272 326.771 335.278 307.743 354.955 296.294C357.818 294.599 360.987 293.039 364.365 291.664C365.986 291.013 367.673 290.438 369.393 289.951C383.178 286.11 386.61 292.739 387.454 295.768C390.541 306.844 376.546 325.869 356.87 337.317V337.317Z" fill="black"/>
</g>
<g id="lupa">
<path id="Vector_144" d="M407.73 279.47C407.267 279.26 406.758 279.176 406.253 279.225C405.747 279.274 405.264 279.455 404.85 279.75C403.67 280.517 402.686 281.549 401.978 282.765C401.269 283.981 400.856 285.345 400.77 286.75C400.716 287.255 400.797 287.765 401.005 288.229C401.212 288.692 401.538 289.093 401.95 289.39V289.39L452.57 321.39C453.57 322.09 455.08 322.05 456.73 321.1C458.388 320.027 459.77 318.577 460.762 316.869C461.754 315.16 462.329 313.242 462.44 311.27C462.44 309.37 461.74 308.06 460.62 307.51L407.73 279.47Z" fill="#C53F3F"/>
<path id="Vector_145" opacity="0.15" d="M400.77 286.79C400.77 289.38 402.58 290.44 404.83 289.15C406.01 288.383 406.994 287.351 407.702 286.135C408.411 284.919 408.824 283.554 408.91 282.15C408.91 279.56 407.1 278.5 404.85 279.79C403.67 280.557 402.686 281.589 401.978 282.805C401.269 284.021 400.856 285.385 400.77 286.79V286.79Z" fill="black"/>
<path id="Vector_146" d="M389.57 272.74C388.852 273.205 388.254 273.834 387.824 274.574C387.395 275.314 387.147 276.146 387.1 277C387.068 277.304 387.117 277.611 387.242 277.89C387.366 278.169 387.562 278.411 387.81 278.59V278.59L403.09 287.46C403.367 287.589 403.674 287.641 403.978 287.611C404.282 287.581 404.573 287.47 404.82 287.29C405.546 286.825 406.15 286.193 406.581 285.446C407.013 284.7 407.259 283.861 407.3 283C407.336 282.694 407.289 282.384 407.164 282.103C407.039 281.822 406.841 281.579 406.59 281.4L391.31 272.53C391.028 272.407 390.717 272.361 390.411 272.398C390.106 272.435 389.815 272.553 389.57 272.74V272.74Z" fill="#263238"/>
<path id="Vector_147" opacity="0.1" d="M406.74 287.49L458.82 319.49C458.203 320.13 457.504 320.685 456.74 321.14C455.09 322.09 453.61 322.14 452.57 321.43L401.96 289.43C402.42 289.643 402.929 289.729 403.433 289.68C403.937 289.631 404.42 289.448 404.83 289.15C405.557 288.71 406.203 288.149 406.74 287.49V287.49Z" fill="black"/>
<path id="Vector_148" d="M415.48 241.93C415.48 241.5 415.48 241.09 415.42 240.67C415.36 240.25 415.37 239.84 415.32 239.43C415.27 239.02 415.27 238.89 415.24 238.62C415.17 237.9 415.06 237.2 414.95 236.53C414.89 236.23 414.84 235.91 414.78 235.61C414.72 235.31 414.66 235.04 414.6 234.75C414.42 233.98 414.24 233.22 414.02 232.5C413.9 232.16 413.8 231.81 413.68 231.5C413.66 231.448 413.644 231.394 413.63 231.34C413.5 231 413.39 230.68 413.26 230.34C413.125 229.973 412.971 229.612 412.8 229.26C412.691 228.997 412.567 228.74 412.43 228.49C412.358 228.301 412.268 228.12 412.16 227.95C412.06 227.73 411.94 227.51 411.82 227.3L411.73 227.15C411.63 226.96 411.51 226.78 411.4 226.59C411.29 226.4 411.24 226.35 411.17 226.23C410.631 225.386 410.029 224.584 409.37 223.83C409.25 223.71 409.14 223.58 409.03 223.46C408.92 223.34 408.84 223.26 408.75 223.16L408.38 222.8C408.039 222.443 407.675 222.109 407.29 221.8C407.115 221.646 406.932 221.502 406.74 221.37C406.55 221.22 406.36 221.08 406.16 220.95C405.862 220.728 405.552 220.525 405.23 220.34L404.98 220.18H404.93L393.93 213.79L393.85 213.74C391.003 212.152 387.79 211.339 384.53 211.38C379.67 211.38 374.19 212.98 368.38 216.33C348.38 227.85 332.24 255.87 332.24 278.93C332.24 290.42 336.24 298.5 342.76 302.29H342.82L353.82 308.67H353.88L354.06 308.77C354.35 308.93 354.63 309.08 354.92 309.22C355.21 309.36 355.64 309.55 356.01 309.7C356.38 309.85 356.67 309.96 357.01 310.06C357.186 310.127 357.366 310.181 357.55 310.22C357.734 310.295 357.925 310.352 358.12 310.39L358.71 310.54C358.851 310.58 358.995 310.61 359.14 310.63L359.92 310.77H360.1L361.04 310.89C366.43 311.46 372.69 309.94 379.39 306.08C399.39 294.55 415.53 266.52 415.53 243.48C415.51 243 415.5 242.48 415.48 241.93ZM391.27 225.63C392.052 228.497 392.436 231.458 392.41 234.43C392.41 254.76 377.53 280.52 359.93 290.68C357.361 292.21 354.586 293.365 351.69 294.11C350.907 291.24 350.523 288.275 350.55 285.3C350.55 264.97 365.42 239.21 383.03 229.05C385.599 227.521 388.374 226.37 391.27 225.63V225.63Z" fill="#C53F3F"/>
<path id="Vector_149" opacity="0.1" d="M353.3 308.42L342.7 302.28C336.2 298.48 332.18 290.39 332.18 278.92C332.18 268.64 335.4 257.38 340.73 247.03L351.73 253.42C346.39 263.76 343.17 275.03 343.17 285.31C343.21 296.55 347 304.52 353.3 308.42Z" fill="black"/>
<path id="Vector_150" opacity="0.4" d="M415.48 241.93C415.48 241.5 415.48 241.09 415.42 240.67C415.36 240.25 415.37 239.84 415.32 239.43C415.27 239.02 415.27 238.89 415.24 238.62C415.17 237.9 415.06 237.2 414.95 236.53C414.89 236.23 414.84 235.91 414.78 235.61C414.72 235.31 414.66 235.04 414.6 234.75C414.42 233.98 414.24 233.22 414.02 232.5C413.9 232.16 413.8 231.81 413.68 231.5C413.66 231.448 413.643 231.394 413.63 231.34C413.5 231 413.39 230.68 413.26 230.34C413.125 229.973 412.971 229.612 412.8 229.26C412.691 228.997 412.567 228.74 412.43 228.49C412.358 228.301 412.268 228.12 412.16 227.95C412.06 227.73 411.94 227.51 411.82 227.3L411.73 227.15C411.63 226.96 411.51 226.78 411.4 226.59C411.29 226.4 411.24 226.35 411.17 226.23C410.631 225.386 410.029 224.584 409.37 223.83C409.25 223.71 409.14 223.58 409.03 223.46C408.92 223.34 408.84 223.26 408.75 223.16L408.38 222.8C408.039 222.443 407.675 222.109 407.29 221.8C407.115 221.646 406.932 221.502 406.74 221.37C406.55 221.22 406.36 221.08 406.16 220.95C405.862 220.728 405.552 220.525 405.23 220.34C398.67 216.34 389.23 216.44 379.37 222.67C359.56 235.15 343.32 262.82 343.22 285.27C343.17 296.95 347.36 305.1 354.05 308.81C354.34 308.97 354.62 309.12 354.91 309.26C355.2 309.4 355.63 309.59 356 309.74C356.37 309.89 356.66 310 357 310.1C357.176 310.167 357.356 310.221 357.54 310.26C357.724 310.335 357.915 310.392 358.11 310.43L358.7 310.58C358.841 310.62 358.985 310.65 359.13 310.67L359.91 310.81H360.09L361.03 310.93C366.42 311.5 372.68 309.98 379.38 306.12C399.38 294.59 415.52 266.56 415.52 243.52C415.51 243 415.5 242.48 415.48 241.93ZM375.7 299.83C371.22 302.42 366.91 303.78 363.22 303.78C356.3 303.78 353.12 299.06 351.69 294.11C350.907 291.24 350.523 288.275 350.55 285.3C350.55 264.97 365.42 239.21 383.03 229.05C385.599 227.521 388.374 226.37 391.27 225.63C392.658 225.29 394.081 225.112 395.51 225.1C406.95 225.1 408.17 238.02 408.17 243.58C408.17 263.91 393.31 289.67 375.7 299.83V299.83Z" fill="white"/>
<path id="Vector_151" opacity="0.1" d="M408.17 243.58C408.17 263.9 393.31 289.67 375.7 299.83C371.22 302.42 366.91 303.78 363.23 303.78C361.622 303.845 360.019 303.542 358.545 302.896C357.071 302.25 355.763 301.277 354.72 300.05V300.05C354.54 299.84 354.37 299.62 354.2 299.4C354.03 299.18 353.87 298.95 353.73 298.71C353.617 298.546 353.514 298.376 353.42 298.2C353.35 298.09 353.28 297.98 353.22 297.87C353.16 297.76 353.08 297.59 353 297.45C352.92 297.31 352.87 297.19 352.81 297.06C352.75 296.93 352.68 296.8 352.62 296.66L352.32 295.94C352.2 295.64 352.09 295.34 351.99 295.03C351.89 294.72 351.78 294.42 351.7 294.11C354.596 293.365 357.371 292.21 359.94 290.68C377.54 280.52 392.42 254.76 392.42 234.43C392.446 231.458 392.062 228.497 391.28 225.63C392.668 225.29 394.091 225.112 395.52 225.1C396.078 225.102 396.636 225.135 397.19 225.2L397.71 225.28C407.1 226.84 408.17 238.4 408.17 243.58Z" fill="black"/>
<path id="Vector_152" opacity="0.7" d="M401.85 240C401.85 260.33 386.99 286.09 369.38 296.25C364.9 298.84 360.59 300.25 356.9 300.25C356.166 300.253 355.433 300.193 354.71 300.07C354.53 299.86 354.36 299.64 354.19 299.42C354.02 299.2 353.86 298.97 353.72 298.73C353.607 298.566 353.504 298.396 353.41 298.22C353.34 298.11 353.27 298 353.21 297.89C353.15 297.78 353.07 297.61 352.99 297.47C352.91 297.33 352.86 297.21 352.8 297.08C352.74 296.95 352.67 296.82 352.61 296.68L352.31 295.96C352.19 295.66 352.08 295.36 351.98 295.05C351.88 294.74 351.77 294.44 351.69 294.13C354.586 293.385 357.361 292.23 359.93 290.7C377.53 280.54 392.41 254.78 392.41 234.45C392.436 231.478 392.052 228.517 391.27 225.65C392.658 225.31 394.081 225.132 395.51 225.12C396.068 225.122 396.626 225.155 397.18 225.22L397.7 225.3C401.32 229.54 401.85 236.37 401.85 240Z" fill="white"/>
</g>
</g>
</svg>
