<svg xmlns="http://www.w3.org/2000/svg" viewBox="0 0 500 500"><g id="freepik--character-2--inject-68"><path d="M332.52,241.42l-4-.83c-3.57-1.07-5.59-1.53-6.42-2.7-1.1-1.57,1-2.47,1-2.47s-2.46-1.43-1.89-3a1.61,1.61,0,0,1,1.65-.94s-2.14-1.37-2.41-2.43c-.37-1.44,1.41-1.82,1.41-1.82-2.78-2.58-2.11-4.46-1.34-4.5s3,1.57,3,1.57c2,1,7.32,3.87,5.83.31s-1.3-6.85-.63-7.71a1.21,1.21,0,0,1,2.07,1,14.32,14.32,0,0,0,.79,3.81,9.23,9.23,0,0,0,1.43,2.77c.74,1,1.4,1.77,2,2.43l2.89,4.14Z" style="fill:#ffbe9d"></path><path d="M317.12,448.73l3.44-7.26,13.64,6.36-4.92,10.67-.87-.34c-3.86-1.55-19.52-8.13-21.68-10.07C304.32,445.93,317.12,448.73,317.12,448.73Z" style="fill:#C53F3F"></path><g style="opacity:0.30000000000000004"><path d="M324.38,456.08a5.23,5.23,0,0,1,3.1-2.09,5,5,0,0,1,3.65.49l-1.78,3.81Z" style="fill:#fff"></path></g><g style="opacity:0.30000000000000004"><path d="M310.77,447.56s-4.6-.72-4.41.19,15.77,8.15,22.92,10.75l.12-.32-18.24-8.3S311.55,448,310.77,447.56Z" style="fill:#fff"></path></g><path d="M329.61,458.27l-.24-.08-.69-.27-2.53-1.05c-2.13-.9-5.06-2.18-8.25-3.67s-6.07-2.89-8.13-3.94L307.34,448l-.65-.35-.23-.13a.89.89,0,0,1,.24.1l.67.32,2.46,1.21c2.07,1,4.95,2.4,8.14,3.89s6.11,2.78,8.23,3.71l2.5,1.1.68.3Z" style="fill:#263238"></path><path d="M311.07,450.09a6.47,6.47,0,0,0,.08-1.39,6.28,6.28,0,0,0-.4-1.35,2.47,2.47,0,0,1,.32,2.74Z" style="fill:#263238"></path><path d="M316,449.93a1.73,1.73,0,0,1-.19-.73,1.55,1.55,0,0,1,0-.74s.13.31.18.72A1.53,1.53,0,0,1,316,449.93Z" style="fill:#263238"></path><path d="M317.42,449.86c-.05,0-.2-.23-.34-.55s-.21-.59-.16-.61.2.22.33.54A1.26,1.26,0,0,1,317.42,449.86Z" style="fill:#263238"></path><path d="M318.71,448.89c0,.05-.35-.06-.75-.24a1.89,1.89,0,0,1-.68-.4c0-.05.36.06.75.24A1.89,1.89,0,0,1,318.71,448.89Z" style="fill:#263238"></path><path d="M319.38,448.1a1.55,1.55,0,0,1-.91-.14,1.52,1.52,0,0,1-.76-.49,4.67,4.67,0,0,1,.83.32A5.26,5.26,0,0,1,319.38,448.1Z" style="fill:#263238"></path><path d="M316.13,448.52a2.86,2.86,0,0,1-.87-.41,5.35,5.35,0,0,1-.84-.64A2.83,2.83,0,0,1,314,447a.52.52,0,0,1-.09-.37.36.36,0,0,1,.29-.29,1.8,1.8,0,0,1,1.79,2.11.63.63,0,0,1-.09.25,3,3,0,0,0-.05-.94,1.8,1.8,0,0,0-.52-.83,1.5,1.5,0,0,0-1.08-.42c-.19,0-.21.23-.1.4a2.75,2.75,0,0,0,.4.44,6.9,6.9,0,0,0,.79.65C315.81,448.34,316.14,448.49,316.13,448.52Z" style="fill:#263238"></path><path d="M315.88,448.46a1,1,0,0,1,.19-.66,1.67,1.67,0,0,1,.53-.53,1,1,0,0,1,.94-.1.39.39,0,0,1,.08.53,1,1,0,0,1-.33.32,2.77,2.77,0,0,1-.66.34,1.41,1.41,0,0,1-.67.12s.25-.08.62-.24a2.85,2.85,0,0,0,.61-.36c.21-.13.45-.42.25-.56s-.54,0-.75.1a1.68,1.68,0,0,0-.52.45A5.64,5.64,0,0,0,315.88,448.46Z" style="fill:#263238"></path><path d="M331.07,454.41s-.37-.22-1-.43a4.86,4.86,0,0,0-2.62-.12,5,5,0,0,0-2.28,1.3c-.48.49-.68.87-.71.86a.78.78,0,0,1,.13-.28,3.63,3.63,0,0,1,.49-.67,4.67,4.67,0,0,1,2.33-1.39,4.61,4.61,0,0,1,2.7.18,3.93,3.93,0,0,1,.74.36C331,454.33,331.08,454.4,331.07,454.41Z" style="fill:#263238"></path><path d="M332.3,448.08a24.45,24.45,0,0,1-1.18,2.85,26.92,26.92,0,0,1-1.36,2.79,27.88,27.88,0,0,1,1.19-2.86A27.34,27.34,0,0,1,332.3,448.08Z" style="fill:#263238"></path><path d="M323.28,454a9.28,9.28,0,0,1-2.08-.73,9.08,9.08,0,0,1-1.92-1.09c0-.05.89.42,2,.92S323.3,453.91,323.28,454Z" style="fill:#263238"></path><path d="M326,455.2s-.16.15-.35.31-.32.32-.36.3,0-.25.24-.44S326,455.15,326,455.2Z" style="fill:#263238"></path><path d="M327.55,454.41s-.14.15-.34.23-.39.1-.41.05.14-.15.34-.22S327.53,454.36,327.55,454.41Z" style="fill:#263238"></path><path d="M329.26,454.51s-.21-.05-.45-.07-.42,0-.44,0,.18-.18.46-.15S329.29,454.47,329.26,454.51Z" style="fill:#263238"></path><path d="M330.41,454.72s-.11.08-.25.07-.24-.06-.23-.11.11-.08.25-.07S330.41,454.67,330.41,454.72Z" style="fill:#263238"></path><path d="M432.17,452.7l-3.4-7.28L442.36,439l5.09,10.59-.82.46c-3.65,2-18.7,9.85-21.57,10.28C421.86,460.78,432.17,452.7,432.17,452.7Z" style="fill:#C53F3F"></path><g style="opacity:0.30000000000000004"><path d="M442.47,451.79a5.16,5.16,0,0,1,.36-3.72,5.06,5.06,0,0,1,2.7-2.49l1.81,3.79Z" style="fill:#fff"></path></g><g style="opacity:0.30000000000000004"><path d="M427.23,456.85s-3.49,3.09-2.67,3.52,16.33-7,22.89-10.81l-.17-.29-18,8.76S428,456.51,427.23,456.85Z" style="fill:#fff"></path></g><path d="M447.49,449.16l-.22.13-.65.36-2.42,1.28c-2.05,1.07-4.9,2.51-8.09,4s-6.09,2.82-8.21,3.74l-2.52,1.08-.69.28-.24.08.23-.12.67-.31,2.5-1.12c2.1-.95,5-2.28,8.19-3.8s6-2.93,8.1-4l2.44-1.23.67-.33A1.07,1.07,0,0,1,447.49,449.16Z" style="fill:#263238"></path><path d="M429.37,458.24a6.42,6.42,0,0,0-1-1,6.48,6.48,0,0,0-1.29-.55,2.48,2.48,0,0,1,2.32,1.51Z" style="fill:#263238"></path><path d="M432.41,454.3s-.33-.1-.68-.32-.61-.43-.58-.47.33.1.68.32S432.43,454.26,432.41,454.3Z" style="fill:#263238"></path><path d="M433.23,453.19c0,.05-.3,0-.63-.09s-.59-.22-.58-.27a1.32,1.32,0,0,1,.63.1C433,453,433.24,453.14,433.23,453.19Z" style="fill:#263238"></path><path d="M433.32,451.58c0,.05-.28.24-.67.43s-.72.31-.75.26a1.89,1.89,0,0,1,.67-.43C433,451.65,433.29,451.53,433.32,451.58Z" style="fill:#263238"></path><path d="M433.12,450.56s-.23.36-.68.61a1.64,1.64,0,0,1-.87.28,58.51,58.51,0,0,0,1.55-.89Z" style="fill:#263238"></path><path d="M431.38,453.33a2.61,2.61,0,0,1-.87.41,5.22,5.22,0,0,1-1,.24,2.65,2.65,0,0,1-.64,0,.48.48,0,0,1-.34-.17.38.38,0,0,1,0-.41,1.78,1.78,0,0,1,2.21-.47,1.84,1.84,0,0,1,.56.45.59.59,0,0,1,.13.22,2.73,2.73,0,0,0-.75-.55,1.68,1.68,0,0,0-1-.13,1.48,1.48,0,0,0-1,.56c-.09.17,0,.31.24.33a2.92,2.92,0,0,0,.59,0,6.08,6.08,0,0,0,1-.19C431,453.46,431.37,453.31,431.38,453.33Z" style="fill:#263238"></path><path d="M431.18,453.48s-.25-.14-.39-.56a1.62,1.62,0,0,1-.07-.75,1,1,0,0,1,.52-.79.39.39,0,0,1,.46.28,1.06,1.06,0,0,1,0,.46,2.72,2.72,0,0,1-.17.72c-.14.4-.31.61-.33.59s.1-.24.21-.63a3.18,3.18,0,0,0,.12-.69c0-.25-.05-.62-.28-.55s-.35.41-.4.64a1.57,1.57,0,0,0,0,.69A2.8,2.8,0,0,0,431.18,453.48Z" style="fill:#263238"></path><path d="M445.44,445.57s-.4.15-1,.52A4.69,4.69,0,0,0,442.7,448a4.85,4.85,0,0,0-.45,2.58c.07.69.23,1.09.2,1.1a1,1,0,0,1-.13-.28,3.67,3.67,0,0,1-.2-.8,4.68,4.68,0,0,1,.41-2.68,4.58,4.58,0,0,1,1.86-2,3.75,3.75,0,0,1,.76-.34A.89.89,0,0,1,445.44,445.57Z" style="fill:#263238"></path><path d="M441.35,440.59a27.69,27.69,0,0,1,1.44,2.73,26.42,26.42,0,0,1,1.28,2.82,27.22,27.22,0,0,1-1.44-2.74A23.68,23.68,0,0,1,441.35,440.59Z" style="fill:#263238"></path><path d="M440.13,451.28a8.53,8.53,0,0,1-1.89,1.14,8.38,8.38,0,0,1-2.06.79s.89-.42,2-.95S440.1,451.24,440.13,451.28Z" style="fill:#263238"></path><path d="M442.79,450s0,.23,0,.47.05.45,0,.47-.18-.18-.18-.46S442.74,450,442.79,450Z" style="fill:#263238"></path><path d="M443.2,448.29c.05,0,0,.2-.05.41s-.17.36-.21.35,0-.2,0-.41S443.15,448.27,443.2,448.29Z" style="fill:#263238"></path><path d="M444.36,447c0,.05-.17.14-.33.3s-.26.34-.31.33,0-.26.18-.46S444.36,447,444.36,447Z" style="fill:#263238"></path><path d="M445.26,446.28s0,.14-.1.24-.2.14-.24.11,0-.14.1-.24S445.22,446.24,445.26,446.28Z" style="fill:#263238"></path><path d="M448.06,442.58l-22,10.23L386.5,382.38c-5.15-18.58-10.12-84-10.12-84L405,300.56s4.41,47,11.32,71.16Z" style="fill:#263238"></path><path d="M422.54,445.92s.28-.21.83-.5,1.36-.7,2.36-1.19c2-1,4.79-2.31,7.88-3.75s5.89-2.71,7.93-3.6c1-.45,1.86-.81,2.43-1a3.6,3.6,0,0,1,.92-.32,3.39,3.39,0,0,1-.83.5c-.56.29-1.36.7-2.36,1.19-2,1-4.79,2.31-7.87,3.75s-5.89,2.7-7.94,3.6c-1,.45-1.85.81-2.43,1A3.47,3.47,0,0,1,422.54,445.92Z" style="fill:#455a64"></path><path d="M418,272.05c.54,0,6.39,17.33.76,28.82-.57,1.15-5,7.48-5,7.48-15.58,18.38-31.36,54-35.76,63.39-9,19.21-42.36,82.4-42.36,82.4l-21.4-12.25,31.29-80.45,28.4-72.6Z" style="fill:#263238"></path><path d="M379.42,346.38s-1.51,7.31-2.29,6.89c-2.23-1.21-17.56-6.92-17.56-6.92l4.14-4.59Z" style="fill:#455a64"></path><path d="M374.9,352.06s-2.87,11.79-6.56,11.15-11.4-4.52-11.4-4.52l4.65-11.63Z" style="fill:#455a64"></path><polygon points="377.13 353.27 360.02 346.43 360.84 348.94 374.39 353.9 377.13 353.27" style="fill:#263238"></polygon><path d="M406.83,317.6a1.87,1.87,0,0,1-.28.44l-.88,1.19c-.76,1-1.84,2.56-3.09,4.49-2.51,3.86-5.67,9.38-8.9,15.62s-6,12-7.95,16.14l-2.35,4.93-.65,1.33a2.22,2.22,0,0,1-.26.45,2,2,0,0,1,.16-.49l.57-1.37c.5-1.19,1.25-2.9,2.19-5,1.9-4.2,4.58-10,7.83-16.23a160.68,160.68,0,0,1,9-15.58c1.3-1.91,2.42-3.41,3.24-4.41.38-.46.7-.83,1-1.13A2.1,2.1,0,0,1,406.83,317.6Z" style="fill:#455a64"></path><path d="M315.87,438.14c.06-.12,5.11,2.28,11.28,5.37s11.11,5.71,11,5.84-5.11-2.28-11.28-5.37S315.81,438.27,315.87,438.14Z" style="fill:#455a64"></path><path d="M341.3,230.63a72.17,72.17,0,0,1-3.94,7.63,68.73,68.73,0,0,1-4.4,7.38A73.3,73.3,0,0,1,336.9,238,72.07,72.07,0,0,1,341.3,230.63Z" style="fill:#263238"></path><path d="M381.73,200.2c1.17,0,2.56,8.5,3.74,23.77,1.34,17.32,1.22,34.8-3.57,45.79a9.54,9.54,0,0,1-5,5.33c-12.4,5.12-46.61-31.56-46.61-31.56l8.42-14.77,24.09,19.45s2.4-19.68,1.94-28.75C364.37,212.58,371.24,200.28,381.73,200.2Z" style="fill:#455a64"></path><path d="M392.39,200.37s20.92,3.06,26.33,11.28,2.67,80.72,2.67,80.72l-53.78,3.18s4.34-92.28,7-93.33C381.29,199.6,391.59,200.11,392.39,200.37Z" style="fill:#455a64"></path><path d="M306.29,181.28a12.91,12.91,0,0,1,1.19-6.4,6.37,6.37,0,0,0,.64-2.74v-2.43H276.77a4.81,4.81,0,0,0-4.81,4.81v31.22h-2.12a6.44,6.44,0,0,1-2.82-.68,13,13,0,1,0-.4,23.61,6.46,6.46,0,0,1,2.63-.58H272v30.44a4.81,4.81,0,0,0,4.81,4.82h84.69a3.92,3.92,0,0,0,3.92-3.92v-85.8a3.91,3.91,0,0,0-3.92-3.92h-30.6v3.47a6.06,6.06,0,0,0,.46,2.34,13,13,0,1,1-25,5.76Z" style="fill:#C53F3F"></path><path d="M371.26,215.79a4.13,4.13,0,0,1,.05.6c0,.46,0,1,0,1.73,0,1.57,0,3.73.08,6.36,0,5.37.09,12.79-.08,21s-.62,15.62-1.17,21c-.28,2.68-.55,4.83-.77,6.32-.11.7-.2,1.26-.28,1.71a2.09,2.09,0,0,1-.13.59,4.48,4.48,0,0,1,0-.6c.05-.45.1-1,.18-1.72.15-1.5.37-3.66.6-6.33.46-5.35.87-12.75,1-20.94s.16-15.6.23-21c0-2.63.07-4.79.09-6.36,0-.7,0-1.28.05-1.73A2.41,2.41,0,0,1,371.26,215.79Z" style="fill:#263238"></path><path d="M403.25,166.19c-.86,5.46-.81,10.25,1.86,13.81a20.77,20.77,0,0,1,1.6,2.16,3.29,3.29,0,0,1,.41,2.58,2.28,2.28,0,0,1-3.9.79,3.14,3.14,0,0,1-1.53,3.15,2,2,0,0,1-2.8-1.44s.71,2.77-2.47,2.34l2.24-19Z" style="fill:#263238"></path><path d="M389,208.19h0a8.85,8.85,0,0,1-8.8-9.78c.29-2.84.55-5.15.55-5.15s-7-1.09-7.09-8.09,1.13-23.07,1.13-23.07h0a24.33,24.33,0,0,1,24.44,3.08l1,.79-2.43,34A8.85,8.85,0,0,1,389,208.19Z" style="fill:#ffbe9d"></path><path d="M376.59,174.74a1,1,0,1,0-1.43-.07A1,1,0,0,0,376.59,174.74Z" style="fill:#263238"></path><path d="M374.65,172.53c.11.12.8-.41,1.76-.41s1.67.49,1.77.37-.05-.27-.36-.51a2.32,2.32,0,0,0-1.41-.44A2.39,2.39,0,0,0,375,172C374.7,172.26,374.6,172.48,374.65,172.53Z" style="fill:#263238"></path><path d="M385.76,174a1,1,0,0,0-.34,1.39,1,1,0,0,0,1.4.34,1,1,0,0,0,.33-1.4A1,1,0,0,0,385.76,174Z" style="fill:#263238"></path><path d="M385.12,173.38c.11.12.8-.41,1.76-.41s1.67.49,1.77.37-.06-.27-.36-.51a2.33,2.33,0,0,0-1.42-.44,2.29,2.29,0,0,0-1.4.48C385.17,173.11,385.07,173.33,385.12,173.38Z" style="fill:#263238"></path><path d="M381.26,181.33a5.13,5.13,0,0,0-1.56-.33c-.25,0-.45-.08-.47-.22a1.31,1.31,0,0,1,.18-.72l.76-2a26.22,26.22,0,0,0,1.65-5.15,27.13,27.13,0,0,0-2.16,5c-.25.68-.49,1.33-.72,2a1.56,1.56,0,0,0-.14,1.05.65.65,0,0,0,.43.4,1.91,1.91,0,0,0,.43.06A4.69,4.69,0,0,0,381.26,181.33Z" style="fill:#263238"></path><path d="M384.39,182.4c1-.6-2.77,1.47-4.73,1.37a2.66,2.66,0,0,0,3.14,1.06C384.9,184.06,384.39,182.4,384.39,182.4Z" style="fill:#fff"></path><path d="M380.69,193.16a16.24,16.24,0,0,0,9.12-2.6s-2.16,5-9.14,4.41Z" style="fill:#eb996e"></path><path d="M400.23,172.75c.15-.05,5.22-.4,4.38,5.5s-6.52,3.1-6.51,2.93S400.23,172.75,400.23,172.75Z" style="fill:#ffbe9d"></path><path d="M400.2,179.37s.09.09.26.19a1,1,0,0,0,.76.13,2.57,2.57,0,0,0,1.5-2.12,3.3,3.3,0,0,0-.07-1.51,1.21,1.21,0,0,0-.66-.9.52.52,0,0,0-.65.2c-.1.15-.08.27-.12.28s-.11-.12,0-.35a.62.62,0,0,1,.29-.34.74.74,0,0,1,.59-.07A1.45,1.45,0,0,1,403,176a3.39,3.39,0,0,1,.12,1.69,2.69,2.69,0,0,1-1.86,2.34,1.13,1.13,0,0,1-.92-.29C400.19,179.51,400.18,179.38,400.2,179.37Z" style="fill:#eb996e"></path><path d="M372.91,161.43a2.3,2.3,0,0,1,2.62-1.88,2.63,2.63,0,1,1,1.74-4.77,7.83,7.83,0,0,1-1.84-2.63,2.64,2.64,0,0,1,.68-3,3,3,0,0,1,3,0c1.44.73,2.53,2.05,4,2.67s3.2.47,4.83.64a8.61,8.61,0,0,1,4.91,2.05,5.79,5.79,0,0,1,2,4.82c2.21-.13,4.63,0,6.34,1.37a5.08,5.08,0,0,1,1.92-4.75,6.48,6.48,0,0,1,6.29-.62,3.65,3.65,0,0,1,2.17,2c.45,1.35-.4,2.8-1.47,3.74a8.39,8.39,0,0,1-7.35,1.77,7.63,7.63,0,0,1,.5,3.28c-.11,1.93-1.66,3.93-2.34,5.74h0l-.15,1.19-1.16,4.95-3.1-.25.85-10.4s.58-4.37-3.22-4.22-9.19,4.1-16.47,2.57a8.1,8.1,0,0,1-3.36-1.19A3.4,3.4,0,0,1,372.91,161.43Z" style="fill:#263238"></path><path d="M413.68,166a4.44,4.44,0,0,1-2,.86,7.92,7.92,0,0,1-8.94-4.39,4.43,4.43,0,0,1-.55-2.12c.09,0,.25.81.88,2a8.16,8.16,0,0,0,8.54,4.19C412.89,166.28,413.64,165.9,413.68,166Z" style="fill:#263238"></path><path d="M406.25,171.76c-.08,0,0-.62-.18-1.54a10.7,10.7,0,0,0-1.45-3.38,28.48,28.48,0,0,1-1.9-3.3,3.22,3.22,0,0,1-.4-1.54,9.8,9.8,0,0,1,.73,1.38c.45.84,1.22,1.92,2,3.19a8.88,8.88,0,0,1,1.38,3.59A2.52,2.52,0,0,1,406.25,171.76Z" style="fill:#263238"></path><path d="M354.44,229.6a111.22,111.22,0,0,1-10.07-6.91c-3.87-3.27-3.59-3.63-3.14-4,1.2-1.07,7,5.5,6.57,3.34s-8-7.18-6.72-8.24c1.7-1.39,7.66,5.6,8.21,6.15s1.35-.24.83-.71c-.75-.68-8.43-8-6.78-9.38.92-.77,2.1,1.05,2.1,1.05s6.7,7.41,7.46,6.73-3-5.17-4.4-6.59-1.27-2.63-.16-2.74c.75-.07,5.08,4.17,6.42,5.6s4.92,5.44,4.72,2,.9-6.18,1.7-6.71,1.81.43,1.43,1.43a12.71,12.71,0,0,0-.44,3.46,8.4,8.4,0,0,0,.38,2.77c.24.77.48,1.45.71,2.05l2.35,6.47-5.9,7.47Z" style="fill:#ffbe9d"></path><path d="M412.65,207.36c1.24.31,8.62,4.13,8.74,20.86.09,13.3-.93,42.82-10,47.21-4.11,2-10.35,2-15.77-1.55-15.28-9.87-42.34-41.69-42.34-41.69l12.11-12.9s31.44,32,32.78,30.82c2-1.78-1.07-17.06.65-32.16C400,207.21,405,205.45,412.65,207.36Z" style="fill:#455a64"></path><path d="M365.37,219.75a1.18,1.18,0,0,1-.21.22l-.65.64c-.57.55-1.41,1.37-2.47,2.47a85,85,0,0,0-8.3,10v-.23c8.54,8.71,21,21.38,34.83,35.47a27.32,27.32,0,0,0,11.6,6.55,14,14,0,0,0,6.29.28,12.17,12.17,0,0,0,5.37-2.71,20.92,20.92,0,0,0,5.93-9.49,50.86,50.86,0,0,0,1.92-9.74c.81-6,1.24-11,1.43-14.37.1-1.7.15-3,.19-3.92l0-1a1.44,1.44,0,0,1,0-.34,1.35,1.35,0,0,1,0,.35c0,.25,0,.59,0,1,0,.9,0,2.22-.09,3.93-.13,3.41-.5,8.35-1.27,14.41a50.88,50.88,0,0,1-1.87,9.83,21.37,21.37,0,0,1-6,9.72,12.6,12.6,0,0,1-5.58,2.83,14.51,14.51,0,0,1-6.51-.28,27.72,27.72,0,0,1-11.84-6.66c-13.88-14.11-26.24-26.87-34.72-35.6l-.11-.11.09-.12a81.21,81.21,0,0,1,8.44-9.93c1.09-1.07,2-1.87,2.55-2.41l.68-.59Z" style="fill:#263238"></path><path d="M365.38,219.29s.07,0,.17.14l.47.47,1.79,1.81c1.55,1.58,3.82,3.84,6.67,6.61s6.29,6.07,10.17,9.69l6.12,5.67c2.15,1.94,4.37,4,6.75,5.94l-.41.2c.07-1.18.14-2.43.21-3.69.4-6.61.77-12.91,1.11-18.64.21-2.86.26-5.59.57-8.14a20,20,0,0,1,1.94-6.86,11.45,11.45,0,0,1,3.84-4.44,8.91,8.91,0,0,1,4.2-1.43,6.89,6.89,0,0,1,2.78.34,3.58,3.58,0,0,1,.89.4s-.31-.13-.92-.3a7.28,7.28,0,0,0-2.74-.24,8.88,8.88,0,0,0-4.05,1.47,11.53,11.53,0,0,0-3.68,4.37,20.11,20.11,0,0,0-1.84,6.74c-.28,2.52-.31,5.25-.51,8.11l-1.07,18.64c-.07,1.26-.15,2.52-.21,3.69l0,.51-.39-.31c-2.44-2-4.62-4-6.77-6s-4.17-3.88-6.11-5.7c-3.86-3.65-7.28-7-10.1-9.77s-5.05-5.12-6.56-6.74c-.77-.8-1.33-1.44-1.72-1.88l-.43-.49C365.42,219.35,365.37,219.29,365.38,219.29Z" style="fill:#263238"></path><path d="M358.62,237.53a12.16,12.16,0,0,1,1.53-2.14c1-1.27,2.42-3,4.05-4.87s3.14-3.52,4.26-4.69a12.76,12.76,0,0,1,1.91-1.81,13.69,13.69,0,0,1-1.64,2.06l-4.14,4.78-4.16,4.77A13.87,13.87,0,0,1,358.62,237.53Z" style="fill:#263238"></path><path d="M400.25,257.33a23.16,23.16,0,0,1-1.52-3.81,23.65,23.65,0,0,1-1.36-3.87,19.9,19.9,0,0,1,2.88,7.68Z" style="fill:#263238"></path><path d="M403,255.2a16.54,16.54,0,0,1-3.22-2.59,17.18,17.18,0,0,1-2.87-3A32.52,32.52,0,0,1,403,255.2Z" style="fill:#263238"></path></g></svg>