<svg xmlns="http://www.w3.org/2000/svg" viewBox="0 0 500 500"><g id="freepik--character-1--inject-68"><polygon points="103.48 404.17 71.36 433.16 62.56 421.9 90.71 387.03 103.48 404.17" style="fill:#ffbe9d"></polygon><path d="M72.1,434.25l1.1-1L63.06,420.8l-4.57,4,.61.78c2.73,3.47,14.14,17.45,16.76,19.07C78.78,446.45,72.1,434.25,72.1,434.25Z" style="fill:#C53F3F"></path><g style="opacity:0.5"><path d="M62.42,429.06a5.5,5.5,0,0,0,1.2-3.78,5.32,5.32,0,0,0-1.6-3.57l-3.35,3Z" style="fill:#fff"></path></g><path d="M75.19,440.37s2.12,4.48,1.13,4.55-13-13.62-17.83-20.12l.29-.22,13.93,16.09S74.54,439.7,75.19,440.37Z" style="fill:#fff;opacity:0.5"></path><path d="M58.62,424.39a1.25,1.25,0,0,0,.16.22l.48.63,1.83,2.26c1.55,1.9,3.74,4.49,6.21,7.3s4.77,5.31,6.46,7.1l2,2.1.55.56a1.32,1.32,0,0,0,.21.19l-.18-.22-.53-.58c-.53-.59-1.19-1.3-2-2.14-1.66-1.81-3.94-4.32-6.41-7.13s-4.67-5.39-6.26-7.27l-1.87-2.22-.51-.6A1.14,1.14,0,0,0,58.62,424.39Z" style="fill:#263238"></path><path d="M72.52,440.83a6.14,6.14,0,0,1,1.4-.51,6.56,6.56,0,0,1,1.49,0,2.12,2.12,0,0,0-1.52-.2A2.16,2.16,0,0,0,72.52,440.83Z" style="fill:#263238"></path><path d="M71.2,435.71a1.71,1.71,0,0,0,.79,0c.43-.06.77-.16.76-.22a3.25,3.25,0,0,0-1.55.25Z" style="fill:#263238"></path><path d="M70.86,434.29s.28.13.65.17.67,0,.68,0-.29-.13-.66-.17S70.86,434.23,70.86,434.29Z" style="fill:#263238"></path><path d="M71.45,432.68s.17.34.47.69.58.61.62.57-.17-.34-.48-.69S71.49,432.64,71.45,432.68Z" style="fill:#263238"></path><path d="M72.06,431.76a1.57,1.57,0,0,0,.41.88c.33.43.7.68.73.64s-.27-.34-.57-.76A6,6,0,0,0,72.06,431.76Z" style="fill:#263238"></path><path d="M72.6,435.2a2.93,2.93,0,0,0,.69.76,5.39,5.39,0,0,0,.9.66,2.31,2.31,0,0,0,.61.3.56.56,0,0,0,.4,0,.4.4,0,0,0,.21-.39,1.91,1.91,0,0,0-2.69-1.18.71.71,0,0,0-.23.17,2.69,2.69,0,0,1,1-.23,1.85,1.85,0,0,1,1,.28,1.57,1.57,0,0,1,.74,1c0,.2-.16.28-.36.22a3.72,3.72,0,0,1-.57-.27,7.53,7.53,0,0,1-.91-.61C72.88,435.47,72.63,435.17,72.6,435.2Z" style="fill:#263238"></path><path d="M72.74,435.43a1,1,0,0,0,.61-.38,1.66,1.66,0,0,0,.38-.71,1,1,0,0,0-.17-1,.42.42,0,0,0-.57.08,1.2,1.2,0,0,0-.23.43,3.07,3.07,0,0,0-.14.78,1.41,1.41,0,0,0,.07.71,4.87,4.87,0,0,0,.06-.7,4.28,4.28,0,0,1,.18-.73c.07-.25.3-.58.51-.42a1,1,0,0,1,.12.8,1.69,1.69,0,0,1-.31.66A4.19,4.19,0,0,1,72.74,435.43Z" style="fill:#263238"></path><path d="M62.11,421.74s.34.31.75.91a5.14,5.14,0,0,1,.91,2.64,5.24,5.24,0,0,1-.64,2.71c-.36.63-.69,1-.66,1s.1-.06.24-.21a3.92,3.92,0,0,0,.53-.7,4.87,4.87,0,0,0,.72-2.79,4.94,4.94,0,0,0-1-2.71,3.85,3.85,0,0,0-.6-.64C62.22,421.79,62.12,421.73,62.11,421.74Z" style="fill:#263238"></path><path d="M64.9,429.55a9.1,9.1,0,0,0,1.39,1.89A9,9,0,0,0,68,433.06s-.7-.78-1.55-1.75S65,429.52,64.9,429.55Z" style="fill:#263238"></path><path d="M62.85,427.19c-.06,0-.11.21-.22.44s-.23.43-.19.47.24-.11.37-.39S62.9,427.19,62.85,427.19Z" style="fill:#263238"></path><path d="M63.17,425.33c-.05,0-.11.18-.13.42s0,.43.07.43.11-.18.13-.42S63.22,425.33,63.17,425.33Z" style="fill:#263238"></path><path d="M62.56,423.62s.11.2.2.43.11.44.17.45.13-.24,0-.52S62.58,423.57,62.56,423.62Z" style="fill:#263238"></path><path d="M62,422.51s0,.14,0,.27.13.23.18.21,0-.14,0-.28S62.05,422.49,62,422.51Z" style="fill:#263238"></path><polygon points="160.61 403.87 164.48 447.66 147.93 447.66 140.63 403.87 160.61 403.87" style="fill:#ffbe9d"></polygon><path d="M164,448.07l0-1.47-16.07-.07.19,6.07,1,0c4.42.08,22.46.12,25.37-.88C177.63,450.64,164,448.07,164,448.07Z" style="fill:#C53F3F"></path><g style="opacity:0.5"><path d="M153.8,452.26a5.52,5.52,0,0,0-2.16-3.33,5.4,5.4,0,0,0-3.77-1l.16,4.47Z" style="fill:#fff"></path></g><path d="M170.65,449.56s4.8,1.2,4.24,2-18.8,1.45-26.87,1v-.36l21.28-.57S169.72,449.64,170.65,449.56Z" style="fill:#fff;opacity:0.5"></path><path d="M147.78,452.24l.28,0,.79,0,2.9,0c2.46,0,5.85,0,9.59-.17s7.13-.32,9.58-.49l2.9-.22.79-.08.27,0h-.27l-.79,0-2.91.16c-2.45.14-5.83.31-9.57.44s-7.13.19-9.59.22l-2.9,0-.79,0Z" style="fill:#263238"></path><path d="M169.31,451.92a6.65,6.65,0,0,1,.49-1.41,6.57,6.57,0,0,1,1-1.14,2.07,2.07,0,0,0-1.12,1.05A2.16,2.16,0,0,0,169.31,451.92Z" style="fill:#263238"></path><path d="M164.51,449.69c.05,0,.27-.25.49-.63s.36-.7.31-.73a1.89,1.89,0,0,0-.48.64A1.84,1.84,0,0,0,164.51,449.69Z" style="fill:#263238"></path><path d="M163.2,449.06s.28-.14.55-.4.45-.5.41-.53-.28.13-.55.39S163.16,449,163.2,449.06Z" style="fill:#263238"></path><path d="M162.33,447.58a1.81,1.81,0,0,0,.83.07,2,2,0,0,0,.84-.11,1.82,1.82,0,0,0-.84-.08C162.7,447.47,162.33,447.52,162.33,447.58Z" style="fill:#263238"></path><path d="M162,446.52a1.6,1.6,0,0,0,.94.24,1.61,1.61,0,0,0,1-.16,4.45,4.45,0,0,0-.94,0A5.87,5.87,0,0,0,162,446.52Z" style="fill:#263238"></path><path d="M165,448.28a2.88,2.88,0,0,0,1,0,6.26,6.26,0,0,0,1.09-.28,3,3,0,0,0,.61-.28.58.58,0,0,0,.25-.33.41.41,0,0,0-.17-.4,1.87,1.87,0,0,0-2.31.63,1.76,1.76,0,0,0-.31.7.52.52,0,0,0,0,.27,3.31,3.31,0,0,1,.44-.89,1.89,1.89,0,0,1,.85-.6,1.59,1.59,0,0,1,1.23,0c.17.12.11.31-.07.43a3.57,3.57,0,0,1-.56.26,6.54,6.54,0,0,1-1.05.31C165.4,448.23,165,448.25,165,448.28Z" style="fill:#263238"></path><path d="M165.28,448.32a1.06,1.06,0,0,0,.09-.71,1.61,1.61,0,0,0-.31-.74,1,1,0,0,0-.87-.5.42.42,0,0,0-.3.49,1,1,0,0,0,.19.45,2.86,2.86,0,0,0,.51.6,1.42,1.42,0,0,0,.6.4s-.21-.18-.51-.49a4.67,4.67,0,0,1-.45-.6c-.15-.22-.26-.6,0-.66s.53.22.69.41a1.64,1.64,0,0,1,.31.66A4.28,4.28,0,0,1,165.28,448.32Z" style="fill:#263238"></path><path d="M148,447.86s.46-.06,1.18,0a5.06,5.06,0,0,1,2.61,1,5.14,5.14,0,0,1,1.69,2.21c.27.68.31,1.14.35,1.13a1.11,1.11,0,0,0,0-.32,4.67,4.67,0,0,0-.21-.85,4.86,4.86,0,0,0-1.7-2.33,5,5,0,0,0-2.72-.95,5.2,5.2,0,0,0-.88,0A1,1,0,0,0,148,447.86Z" style="fill:#263238"></path><path d="M155.76,450.65a8.81,8.81,0,0,0,2.34.13,9.28,9.28,0,0,0,2.33-.28c0-.06-1.05.05-2.34.09S155.76,450.6,155.76,450.65Z" style="fill:#263238"></path><path d="M152.63,450.74s.09.22.21.45.18.45.23.45.08-.26-.06-.53S152.66,450.7,152.63,450.74Z" style="fill:#263238"></path><path d="M151.4,449.32s.07.2.24.36.34.26.38.22-.07-.2-.25-.36S151.43,449.28,151.4,449.32Z" style="fill:#263238"></path><path d="M149.69,448.7c0,.06.22.05.46.12s.41.2.45.16-.1-.26-.4-.34S149.67,448.66,149.69,448.7Z" style="fill:#263238"></path><path d="M148.47,448.43c0,.05.08.13.21.18s.26,0,.28,0-.08-.13-.21-.18S148.49,448.38,148.47,448.43Z" style="fill:#263238"></path><path d="M131.52,275.35s12.95,86,11.07,90.19-43.83,47.1-43.83,47.1L83,385.68s27.76-30.75,27.36-32.34-20-84.91-20-84.91Z" style="fill:#263238"></path><path d="M136.13,307.11c-.13-.92-10.58-24.41-10.58-24.41l5.07-7.16.9-.19Z" style="fill:#263238"></path><path d="M83,267.25l-.79,3.19a37.61,37.61,0,0,0,4,27.73L121.29,359a48.55,48.55,0,0,1,5.38,13.84l8.75,39.36h28.8s-3.56-27-6.73-46.69c-2.4-14.87-22.3-61-31.94-82.84l6-7.35-10.37-1.73Z" style="fill:#263238"></path><path d="M126.31,282.53a30.27,30.27,0,0,0,1.47,3.85c1,2.35,2.28,5.6,3.68,9.21s2.63,6.91,3.51,9.29a31.53,31.53,0,0,0,1.52,3.83,4.37,4.37,0,0,0-.25-1.09c-.19-.68-.49-1.67-.88-2.88-.79-2.42-2-5.73-3.36-9.36s-2.79-6.85-3.85-9.16c-.53-1.16-1-2.09-1.29-2.72A4.2,4.2,0,0,0,126.31,282.53Z" style="fill:#455a64"></path><path d="M129.46,384.79a3.47,3.47,0,0,0,0-.68c-.06-.51-.13-1.15-.22-1.95a29.58,29.58,0,0,0-.46-3.07c-.23-1.18-.45-2.55-.84-4-.18-.74-.37-1.52-.57-2.32s-.48-1.63-.74-2.49c-.48-1.73-1.16-3.52-1.82-5.42a122.84,122.84,0,0,0-5.35-12,209.05,209.05,0,0,0-12.26-20.37c-1.69-2.52-3.09-4.55-4.07-5.94L102,325a3.76,3.76,0,0,0-.43-.53,2.94,2.94,0,0,0,.33.6l1.05,1.65c1,1.49,2.3,3.53,3.92,6,3.29,5.1,7.83,12.18,12.09,20.4A129.85,129.85,0,0,1,124.27,365c.67,1.88,1.37,3.66,1.87,5.37.26.85.53,1.67.76,2.47s.41,1.56.6,2.3c.42,1.46.66,2.81.92,4s.44,2.2.56,3,.24,1.43.33,1.93A3.22,3.22,0,0,0,129.46,384.79Z" style="fill:#455a64"></path><path d="M87.73,295.3s-.08-.09-.22-.3l-.61-1v0l0,0a6.62,6.62,0,0,1,4.3-2.94,10.52,10.52,0,0,1,4-.12,26.57,26.57,0,0,1,4.58,1.23,33.33,33.33,0,0,1,5,2,8.52,8.52,0,0,1,4.07,4.36,5.42,5.42,0,0,1,.19,3.24,16.24,16.24,0,0,1-1.29,3,6.28,6.28,0,0,0-.85,3.06,4.29,4.29,0,0,0,1.39,2.83c1.92,1.91,4.76,2.26,7.11,3.45a12.21,12.21,0,0,1,5.34,5.3,12.48,12.48,0,0,1,1.5,6.64,11.43,11.43,0,0,1-1.88,5.64,12.82,12.82,0,0,1-6.73,5.18,11.4,11.4,0,0,1-2.29.47,5.48,5.48,0,0,1-.81,0,18.34,18.34,0,0,0,3-.7,12.82,12.82,0,0,0,6.48-5.18,11.11,11.11,0,0,0,1.76-5.46,12.28,12.28,0,0,0-1.49-6.4,11.85,11.85,0,0,0-5.15-5.07c-1.13-.56-2.4-.94-3.67-1.42a9.77,9.77,0,0,1-3.58-2.11,4.8,4.8,0,0,1-1.54-3.18,6.86,6.86,0,0,1,.91-3.31,16.06,16.06,0,0,0,1.27-2.92,4.87,4.87,0,0,0-.18-2.95,8,8,0,0,0-3.82-4.13,33.22,33.22,0,0,0-4.92-2.05,24.92,24.92,0,0,0-4.49-1.26,10,10,0,0,0-3.87.05A6.6,6.6,0,0,0,87,294V294l.55,1A1.56,1.56,0,0,1,87.73,295.3Z" style="fill:#fafafa"></path><path d="M160.44,384.9a9,9,0,0,0-2.37-1.5,14.15,14.15,0,0,0-3.2-.84c-1.27-.21-2.75-.34-4.37-.6a14.74,14.74,0,0,1-5.11-1.73,14.31,14.31,0,0,1-6.31-17.78c.95-2.35,2.38-4.39,2.78-6.66a13,13,0,0,0-.94-6.53,52.63,52.63,0,0,1-1.94-5.85,11.39,11.39,0,0,1,0-5.39,12.12,12.12,0,0,1,4.12-6.52,8.43,8.43,0,0,1,2.46-1.45,18.52,18.52,0,0,0-2.33,1.6,12.23,12.23,0,0,0-3.89,6.45,11.11,11.11,0,0,0,0,5.22,53.68,53.68,0,0,0,2,5.78,13.39,13.39,0,0,1,1,6.77c-.42,2.43-1.89,4.5-2.79,6.78a13.89,13.89,0,0,0,6,17.2,14.57,14.57,0,0,0,5,1.75c1.6.28,3.08.43,4.36.67a13.57,13.57,0,0,1,3.23,1,7.31,7.31,0,0,1,1.79,1.14C160.28,384.7,160.46,384.88,160.44,384.9Z" style="fill:#fafafa"></path><path d="M147,413.59c-.1,0-.13-1.3-.65-3.31a18.74,18.74,0,0,0-1.25-3.41,21.43,21.43,0,0,0-2.37-3.76,21.16,21.16,0,0,0-3.16-3.13,19,19,0,0,0-3.06-2c-1.85-.94-3.12-1.25-3.09-1.35a2.63,2.63,0,0,1,.9.17,6.69,6.69,0,0,1,1,.31,10.86,10.86,0,0,1,1.32.54,17.34,17.34,0,0,1,3.2,1.91,18.49,18.49,0,0,1,5.66,7.06,17.37,17.37,0,0,1,1.18,3.53,10.68,10.68,0,0,1,.24,1.41,6.27,6.27,0,0,1,.08,1.07A2.77,2.77,0,0,1,147,413.59Z" style="fill:#fafafa"></path><path d="M132.22,300.47s-.13,0-.39.08a10.66,10.66,0,0,1-1.15.1,15.15,15.15,0,0,1-4.2-.45,17.1,17.1,0,0,1-5.72-2.56,16,16,0,0,1-7.11-13.1,17.27,17.27,0,0,1,1-6.19,15.4,15.4,0,0,1,1.92-3.77,8.77,8.77,0,0,1,.7-.9c.17-.2.27-.3.28-.29a22.12,22.12,0,0,0-2.55,5.08,17.51,17.51,0,0,0-.84,6.06A15.88,15.88,0,0,0,121,297.25a17.55,17.55,0,0,0,5.53,2.6A21.79,21.79,0,0,0,132.22,300.47Z" style="fill:#fafafa"></path><path d="M106.58,356.58a3.54,3.54,0,0,1,.56.25c.37.17.89.46,1.55.85a18.67,18.67,0,0,1,4.89,4.29,12.9,12.9,0,0,1,2.14,4,11.08,11.08,0,0,1,.34,5.19,9,9,0,0,1-2.64,5.1c-1.48,1.44-3.65,1.92-4.91,3.5s-1.54,3.65-1.73,5.58a20,20,0,0,1-1,5.64,7.59,7.59,0,0,1-3.49,3.83,10.94,10.94,0,0,1-4.34,1.3,21.3,21.3,0,0,1-6.48-.64c-.75-.18-1.32-.33-1.71-.44a2.4,2.4,0,0,1-.58-.19,3.12,3.12,0,0,1,.61.09l1.72.34a22.34,22.34,0,0,0,6.4.47,10.62,10.62,0,0,0,4.16-1.3,7.26,7.26,0,0,0,3.27-3.64,20.29,20.29,0,0,0,.93-5.51,19.1,19.1,0,0,1,.46-3,7,7,0,0,1,1.38-2.86c1.44-1.73,3.62-2.2,5-3.54a8.52,8.52,0,0,0,2.51-4.8,10.88,10.88,0,0,0-.28-5,12.89,12.89,0,0,0-2-3.89,19.53,19.53,0,0,0-4.71-4.34c-.63-.42-1.14-.73-1.49-.93A2.67,2.67,0,0,1,106.58,356.58Z" style="fill:#fafafa"></path><path d="M109.65,149.66c-5.55-1.38-11.52,2.09-14.28,7.09s-2.79,11.13-1.49,16.69c.55,2.33,1.32,4.74.78,7.08-.58,2.51-2.58,4.46-3.54,6.86-1.83,4.63.5,9.76,2.78,14.18,1,2,2.37,4.25,4.59,4.69,2.49.49,4.68-1.5,6.78-2.93a17.83,17.83,0,0,1,12.64-2.85c5,.77,9.52,3.64,14.54,3.73a13.59,13.59,0,0,0,11.47-6.15c1.49-2.33,2-5.84-.15-7.56-1.42-1.13-3.59-1.09-4.84-2.41-1.52-1.61-.86-4.2-.08-6.26s1.56-4.58.17-6.3c-1.55-1.94-4.91-1.57-6.39-3.56s.08-5,0-7.64a7.75,7.75,0,0,0-3.43-5.8c-1.88-1.37-2.14-1.81-4.73-6.52" style="fill:#263238"></path><path d="M101.91,195.39l20,1.71s14.57-2.13,20.15,34.82l22.14-.91,1,14.72-30.45,1.5-3.59-2.15.36,30.27-50.37-3.71c1.14-6.87,6.51-15.91,8.31-21.71-1.83-4.58-11.95-23.25-12.45-32.84-1.36-26.26,24.9-21.7,24.9-21.7" style="fill:#C53F3F"></path><path d="M133.41,222.48s3.54,4,3.6,7.37c.09,5.4-1.27,8.17.42,14.07l-4.82,1.16s-.74-1.44-.11-4.52,1.85-6.83,2.39-10.18A11.43,11.43,0,0,0,133.41,222.48Z" style="opacity:0.30000000000000004"></path><path d="M132.61,245.08a5,5,0,0,1-.3-1.18,13,13,0,0,1,0-3.32,32.86,32.86,0,0,1,1-4.79,44.38,44.38,0,0,0,1.32-5.78,11.31,11.31,0,0,0-.61-5.74,14.81,14.81,0,0,0-2.58-4c-1.82-2.07-3.11-3.22-3-3.29a6,6,0,0,1,.95.75,29,29,0,0,1,2.37,2.3,14.43,14.43,0,0,1,2.75,4.09,11.41,11.41,0,0,1,.67,6,38.6,38.6,0,0,1-1.37,5.84,39.25,39.25,0,0,0-1.13,4.71,15.86,15.86,0,0,0-.17,3.25A5.6,5.6,0,0,1,132.61,245.08Z" style="fill:#263238"></path><g style="opacity:0.2"><path d="M133.27,244.7l-14.92.34a8.42,8.42,0,0,1-3.5-.41c-1.57-.66-2.58-2.19-3.46-3.65q-3.93-6.48-7.2-13.32s3.94,12.53,6.41,18a2.85,2.85,0,0,0,3.49,1.8A67.17,67.17,0,0,0,133.27,244.7Z"></path></g><path d="M230.81,211.7a12.91,12.91,0,0,1,6.4,1.19,6.32,6.32,0,0,0,2.73.64h2.44V182.18a4.81,4.81,0,0,0-4.82-4.81H206.34v-2.12a6.51,6.51,0,0,1,.68-2.83,12.82,12.82,0,0,0,1.1-7.86,13,13,0,0,0-25.81,2.24,12.87,12.87,0,0,0,1.11,5.23,6.62,6.62,0,0,1,.58,2.62v2.72H153.55a4.81,4.81,0,0,0-4.81,4.81v84.69a3.92,3.92,0,0,0,3.92,3.92h85.8a3.93,3.93,0,0,0,3.92-3.92V236.26h-3.47a6.22,6.22,0,0,0-2.34.46,12.81,12.81,0,0,1-4.84.95,13,13,0,0,1-.92-26Z" style="fill:#C53F3F"></path><path d="M230.81,211.7a12.91,12.91,0,0,1,6.4,1.19,6.32,6.32,0,0,0,2.73.64h2.44V182.18a4.81,4.81,0,0,0-4.82-4.81H206.34v-2.12a6.51,6.51,0,0,1,.68-2.83,12.82,12.82,0,0,0,1.1-7.86,13,13,0,0,0-25.81,2.24,12.87,12.87,0,0,0,1.11,5.23,6.62,6.62,0,0,1,.58,2.62v2.72H153.55a4.81,4.81,0,0,0-4.81,4.81v84.69a3.92,3.92,0,0,0,3.92,3.92h85.8a3.93,3.93,0,0,0,3.92-3.92V236.26h-3.47a6.22,6.22,0,0,0-2.34.46,12.81,12.81,0,0,1-4.84.95,13,13,0,0,1-.92-26Z" style="fill:#fff;opacity:0.2"></path><path d="M101.64,196.09l-1.55-35.3,14-10.62,12.74,6.23s.43,16,0,22.94-7.42,7.68-7.42,7.68.17,4.06.33,8.33a9.07,9.07,0,0,1-9.15,9.41h0A9.07,9.07,0,0,1,101.64,196.09Z" style="fill:#ffbe9d"></path><path d="M125.47,168.06a.89.89,0,1,1-.89-.89A.89.89,0,0,1,125.47,168.06Z" style="fill:#263238"></path><path d="M126.33,167.09c-.12.12-.77-.44-1.73-.49s-1.67.41-1.77.28.07-.27.38-.48a2.33,2.33,0,0,1,2.79.17C126.29,166.82,126.38,167,126.33,167.09Z" style="fill:#263238"></path><path d="M115.18,168.06a.89.89,0,1,1-.89-.89A.89.89,0,0,1,115.18,168.06Z" style="fill:#263238"></path><path d="M115.73,167.09c-.12.12-.77-.44-1.73-.49s-1.67.41-1.77.28.07-.27.38-.48A2.34,2.34,0,0,1,114,166a2.37,2.37,0,0,1,1.37.55C115.69,166.82,115.78,167,115.73,167.09Z" style="fill:#263238"></path><path d="M119.44,187a17.32,17.32,0,0,1-9.19-3.11s2.3,5.19,9.26,4.91Z" style="fill:#eb996e"></path><path d="M119.18,175.17a7,7,0,0,1,1.56-.2c.24,0,.48,0,.54-.22a1.43,1.43,0,0,0-.14-.78q-.31-.93-.66-2c-.45-1.41-.84-2.69-1.11-3.62a6.7,6.7,0,0,1-.35-1.54,6.37,6.37,0,0,1,.61,1.45c.33.92.77,2.18,1.22,3.59l.63,2a1.5,1.5,0,0,1,.09,1,.6.6,0,0,1-.4.35,2.27,2.27,0,0,1-.42,0A6.56,6.56,0,0,1,119.18,175.17Z" style="fill:#263238"></path><path d="M118.47,176a2.29,2.29,0,0,0-1,.56.93.93,0,0,0,1,1.55,1.31,1.31,0,0,0,.87-.65,1,1,0,0,0-.12-1.07.81.81,0,0,0-1-.15" style="fill:#eb996e"></path><path d="M119.71,177.38c0,.14-.79.36-1.64-.13s-1.08-1.3-.94-1.33.5.5,1.2.88S119.69,177.23,119.71,177.38Z" style="fill:#263238"></path><path d="M114.87,148.79a10,10,0,0,0-7.82,3.35,11.38,11.38,0,0,0-2.75,8.12,5,5,0,0,0,1,3.09c1,1.15,2.69,1.38,4.22,1.53a10.06,10.06,0,0,0,4.67-.24c1.48-.57,2.71-2.1,2.38-3.64-.73,1-.12,2.48.92,3.11a6.58,6.58,0,0,0,3.55.64l5.24,0a2.88,2.88,0,0,0,1.72-.37,3,3,0,0,0,.86-2.16c.28-2.79.54-5.76-.74-8.25a9.88,9.88,0,0,0-5.79-4.55c-2.39-.79-5-.43-7.49-.59" style="fill:#263238"></path><path d="M100.09,195.09c1.91,1,5.53-2.94,6.71-4.75a9.37,9.37,0,0,0,1-6.26c-.25-2.15-.82-4.26-.87-6.42-.07-3.5,1.25-6.85,1.87-10.3a26.24,26.24,0,0,0-.47-11.29c-.38-1.43-1-3-2.4-3.54a3.5,3.5,0,0,0-3.44.71,8.38,8.38,0,0,0-2.08,3l-1.11,8.42.83,11.79Z" style="fill:#263238"></path><path d="M150.43,239.49l5.1,17.4s-26.69,9.71-41.14,9.53c-13.55-.16-17.43-1.7-22.19-12.64S82,230.28,80.89,223.05c0,0-10.89-30.22,18.27-27.24l4,23s3.23,10.67,3.46,11.29c2.18,5.76,5,14.2,7.73,15.22S150.43,239.49,150.43,239.49Z" style="fill:#C53F3F"></path><path d="M150.43,239.49a3.34,3.34,0,0,1-.7.18l-2,.43c-1.78.37-4.36.92-7.56,1.66s-7,1.65-11.36,2.45a69.85,69.85,0,0,1-14.38,1.33h-.17l-.06-.16c-.55-1.43-1.13-2.94-1.68-4.48-3.84-10.79-6.76-20.71-9.12-27.81-1.17-3.56-2.15-6.43-2.85-8.4-.33-1-.6-1.71-.8-2.27a4.52,4.52,0,0,1-.25-.81s.13.26.35.77.52,1.26.89,2.24c.76,1.95,1.79,4.8,3,8.35,2.46,7.08,5.44,17,9.27,27.75.55,1.54,1.12,3,1.67,4.47l-.24-.16a71.57,71.57,0,0,0,14.29-1.26c4.32-.78,8.15-1.67,11.37-2.34s5.8-1.19,7.6-1.51l2.06-.33A6.31,6.31,0,0,1,150.43,239.49Z" style="fill:#263238"></path><path d="M155.53,256.89a4.61,4.61,0,0,1-.78.36c-.52.22-1.29.52-2.29.89-2,.74-4.94,1.72-8.61,2.79s-8.06,2.24-12.95,3.48a83.09,83.09,0,0,1-16.19,2.83,29.82,29.82,0,0,1-4.34-.11,18.45,18.45,0,0,1-4.15-.87,19.91,19.91,0,0,1-6.79-4.15,40.8,40.8,0,0,1-8-10.79c-1.8-3.37-3-6.21-3.86-8.18-.41-1-.72-1.75-.92-2.28a4.65,4.65,0,0,1-.29-.8,4.09,4.09,0,0,1,.38.76c.25.56.59,1.3,1,2.24.89,1.94,2.16,4.75,4,8.09a41.07,41.07,0,0,0,8,10.6,19.67,19.67,0,0,0,6.63,4,17.89,17.89,0,0,0,4,.83,28.83,28.83,0,0,0,4.27.11,83.83,83.83,0,0,0,16.09-2.78c4.9-1.21,9.3-2.33,13-3.36s6.62-2,8.64-2.63l2.32-.8A5.65,5.65,0,0,1,155.53,256.89Z" style="fill:#263238"></path><path d="M91.2,251.14s5,19.2,18,18.81S134.41,264,134.41,264l-.58-.6s-22,4.74-28.11,1.76C94.11,259.52,91.2,251.14,91.2,251.14Z" style="opacity:0.2"></path><path d="M153.72,254.89l4.09,0c3.71-.36,5.78-.42,6.82-1.4,1.39-1.33-.52-2.62-.52-2.62s2.68-.93,2.43-2.56c-.17-1.12-1.44-1.24-1.44-1.24s2.37-.93,2.84-1.92c.63-1.34-1-2.06-1-2.06,3.23-2,2.94-4,2.19-4.16s-3.26,1-3.26,1c-2.13.61-7.94,2.38-5.79-.82s2.6-6.47,2.11-7.44a1.21,1.21,0,0,0-2.22.55,13.78,13.78,0,0,1-1.51,3.58,9.41,9.41,0,0,1-1.94,2.45c-.91.81-1.72,1.46-2.41,2l-3.64,3.5Z" style="fill:#ffbe9d"></path></g></svg>